<mxfile host="app.diagrams.net" modified="2023-11-06T05:47:08.166Z" agent="Mozilla/5.0 (Macintosh; Intel Mac OS X 10_15_7) AppleWebKit/537.36 (KHTML, like Gecko) Chrome/118.0.0.0 Safari/537.36" etag="aMJp2NP9r4Ut6IK5jZ2U" version="22.0.8" type="github">
  <diagram name="Page-1" id="_DoudmLFzcZqgPdRPu-7">
    <mxGraphModel dx="1161" dy="832" grid="0" gridSize="10" guides="1" tooltips="1" connect="1" arrows="1" fold="1" page="1" pageScale="1" pageWidth="850" pageHeight="1100" math="0" shadow="0">
      <root>
        <mxCell id="0" />
        <mxCell id="1" parent="0" />
        <mxCell id="HT3ukdf5lwB25Wx5WFX2-1" value="" style="shape=image;verticalLabelPosition=bottom;labelBackgroundColor=default;verticalAlign=top;aspect=fixed;imageAspect=0;image=data:image/png,iVBORw0KGgoAAAANSUhEUgAAArYAAASwCAYAAAAOignLAAAAAXNSR0IArs4c6QAAIABJREFUeF7svQd7Isf2PHyUiEKIJKEcNyen3/f/AO//3mt7HXZXOZNBZCQkvU+dZiS0ttfaRcAMVPtpj1aagaG6mak5XafOyM3NzY2wEQEiQASIABEgAkSACBABhyMwQmLr8BHk6RMBIkAEiAARIAJEgAgoAiS2nAhEgAgQASJABIgAESACA4EAie1ADCM/BBEgAkSACBABIkAEiACJLecAESACRIAIEAEiQASIwEAgQGI7EMPID0EEiAARIAJEgAgQASJAYss5QASIABEgAkSACBABIjAQCJDYDsQw8kMQASJABIgAESACRIAIkNhyDhABIkAEiAARIAJEgAgMBAIktgMxjPwQRIAIEAEiQASIABEgAiS2nANEgAgQASJABIgAESACA4EAie1ADCM/BBEgAkSACBABIkAEiACJLecAESACRIAIEAEiQASIwEAgQGI7EMPID0EEiAARIAJEgAgQASJAYss58GAEbm5uHrwvdyQCRIAIEAEi8FgIjIyMPNZL8XUGHAES2wEf4Mf8eFdXV3J9cyPX19dyc30j92nujf7O+jv2+WyHxzwVvhYRIAJEgAg4BYERERDT0ZERGRkdldHRUf33lxr+OjI6ovviuNGxMSG1dcqA9/c8SWz7i79j3h3R2svLS7lsNuXysinNZlPaI7j4+erqum2fS7m+unbM5+OJEgEiQASIQJcQGBEZHxuT8fFxmZiYkImJcRkbG/sysR0ZkfHxMZkYN/vjuH8jw106e76swxAgsXXYgPXrdK+vb6Rer0u90dDtxcWFEtn2dtm8lHodf2/ofiC/jNr2a8T4vkSACBABmyAwMiKuiQnxeNzicbvF7XEr0f1SQ6TW7Xa1jvGIx+OR0VHGbG0yorY+DRJbWw+PfU4O0oJKpSqValXK5YrU6nWBNMFqkN+C7OLv1n4XF5f3orr2+TQ8EyJABIgAEegVAoi0gtT6fT7x+33i83mV6H6pIaLr9XjE7/frMZN+n8oS2IjAvyFAYvtvCDnw7yCh6CCeiKre3KC3f5AbuYIeFn9v7fdvkVW8XrlakUq5KuVKi9g224it3MhF41L/VgYBrlTl4vKCxNaB84enTASIABF4TAQMsfUoOQVJBcH9N2ILTa3Pa4itOc4vY58T21vt7mhLjzuiEgcQ4LHRMRkb+ysRxrmo3rel86W84TFH2h6vRWJrj3F41LOABAByAERVVTZweT9yiiSvxsVFm2ygrnrYL3ke4Bi8Xq1WM6/baNzT0CKVDNrbWg371HWf5mVTPk8xe9QPyhcjAkSACBAB2yMA8uhyTWgE1uuFrMCt2tkvNZUieFzi9XjFp8d5lby2N+wD3a7R4hodrtcDqYNHty6X6y9RXpBdc4zpfyHLtkeTJ/hvCJDY/htCDvw7SGuxWNJ+XixJtVbTCK7VjKygJufF4u1+SAr7UgOxRQQW8gIQZehpobu9azdy1by6/Tv2a5cqOBBGnjIRIAJEgAg8AgKgo2Pj40pu0UFA/y15DHpaQ1Zdeox7wvUXYjs+Ni4u94TR7brd4vV5JBgIyNRUQKYCAY303o/ajmgimrU/NLwgt2yDhQCJ7WCNp34aREzTmaxksjndFkvleyQThLNwXpQM9slgn5w0LhpfJrbqemCkDdfXV8byq03fgB8heWji71dX0vzs7wMIMz8SESACRIAIPBABEFVLHoDtvyWCWXKB0ZakAET4c9kA5AyI5ELaAN3uVGBSotGwxKIRiUbCMh2cukdccbzb5RKf3ys+6H19XiXZbIOFAImtzccT5BHdREfx8/0TNuTS/N7sdy3ValXOkik5S6TlLJmUQuFcmm16WBDUbC4viWRKEomU7gvpwl9e/DNs7t4ab/bZedz751/P0+Yw8/SIABEgAkSgywgY61ojJ3iQv8G/7A+SOhnwy+SkXwJ+vwSngzI3G5N4fEbmZmYkEgndI7aQLkAGEZiclACOCUyqXOHzZulw8XsrYa39d9TldnmidPjyJLYdAtjtw0FUsazfaDSk0bhoJWTdvav6xzavVDOrvXEhlUpFo7WZbF4yuayUSpXPIrbXKkMAuc1m85LN5fQ4NiJABIgAESACTkEAsgJEXqHb9Xm9Egj4JRIOSzQSkkg4pBHbdsnDPWIbmNQIL2QO7TQb+yASDJmCCxIH14RA8gBJA15rbGz8X6PNTsFvUM+TxNbmI4tIK4hqqVxWSQGstj4vjIBoK/5eKpv9SiX0ihRbP0OacF9je6NRXd2vtc+/aWxtDhNPjwgQASJABIYMARBNRG0NCUWimUejsCCsiMpCntCusR0ZGW3t4zdR2xaxbS+CBs3tJJwYWhFdRILxHojsouO9aDtm74lGYmvv8dFKXrl8wURXW/0viWDVaivyavZB0hgisBrlvbhQt4LPyTBeF3+v634X94ivzSHh6REBIkAEiAAR0FK7Y+OIohpXBJBSEE8kkrldcEW4X60MhNSQXxDbv5ci4PjQdFAjv5HwtIRD02pRBi2vFRn+t8Q3Dk1/ESCx7S/+9969nXxafwAxTSbTcpZIylkiJYlU6p6sACQXzgf6N+hlEykpnJ8rkbX65x/x7m9Gl/t372sjWHgqRIAIEAEiQAT+EQFL82rpYD/fWgfeSRHuR2ylLWQLa7GZWFTmoNONz8js7IxGgBHFRYQXTgvtTgrU29pvYpLY9nFMVB97dWXssy5godU0P182NVKrvrD1umQzWXUuSGUyks3m7pWy1cIJlYr+HQ4I6JArsBEBIkAEiAARIAJ3CKgrgtulEgXjpOBT+6/2huSySCgk0WhEZmLGXUGlDS15A6K9kCZMwLZs3FiXwUcXfrhGg2vcG0h4+zfzSGz7h71GSlHoQEvQtlXsKltlaVu/hzXXebEs5+dFKZZKct1us3V9rfZeiNqqd22ppP9mIwJEgAgQASJABO4TW0gWUPjBeNm6NBmsXWMLogr9bXBqSoLBgATVE3dSJidb2l24MLTK/FrkGBIFy58XOtzxv7Em4zj0DgES295h/Zd3ArFF+dl8vqA6WvR84dxs8e9CQclsrYpKX3Wp1lBJrHG/mtcNKn5dSq1mVRpr6L/ZiAARIAJEgAgQgfsIIKJqVSqDpODzRDD8HVFbaHE9cFvwGLcF1eROoviDX4LBoGpvocUNhYJKfFEyWHW4rYpnjNj2b+aR2HYZ+8+TtvB21u8sfWwylRbTM7pN6TYjyXRG8vm8etA2r5pawhYFEO43412LwgmQNeDn9uSyLn88vjwRIAJEgAgQAccg0K6/bfeobf8ASn7HRmW0lZSmDgnaJ2VqalIikbDMxqIyMxNTuUJ4elpdFKxILkiuVYDic4JLwtv9qUJi20WMQWANKb2Sq2ZTmuj6Myp4XWlZ2sJ5qY3MpiWVBsHNmt9lQGxNIhgbESACRIAIEAEi0FsEQEShyUXSGNwRsFViq6Q2qj0cCrWiukau4EVFs3F434IgG93tKIjyyIhGiNFJcLs3jiS23cNWo6i1Wk2q6NXWtlZTaYH1O2hiIT9AdbDb7XlR/w1t7ee+tV08Xb40ESACRIAIEAEi8BkCkCYgCmskCm6ZCgRUhjDd6tDhGl9cE9VF9BYFI0CIob+FrAHaWySqQcOLDpLL1h0ESGy7g6u+KiK0IKew39Jt4e7nc/3ZENeKEt+qIb8tAlxp/Rses4zYdnGQ+NJEgAgQASJABL6AgBLSlgMCfgZRhaOC3wfy6pPJSd+tL66RKwRkGolnwSmZDgYl2Iriqg63RZJZ5KF7U47EtnvYqnVXOp2RVNpoZrG968aaq1qpyeVVS6ZwaaQKKllodUR92YgAESACRIAIEIH+IAC97OiIkRBAUqDygnGQXVMU4q7og4naIpobi0YkFoNlWFSiYUgVAuJvuSlAzsAiD90bSxLbDrC1ErXutiaRS5O5rq+1slcildbCCYkkevreFkli8KllIwJEgAgQASJABJyHALSyrokJlR9Ag4sks+npKZmJxSQ+iz6jBDcUDGokFzIGSBfggwuyjJK/1Nw+7riT2HaAJ2QCsOGq11CatiH1el1qdWzNvyEvsGy8UOr21tIrd2ftdXFx0cEZ8FAiQASIABEgAkSgnwho1LalpcUWEdlQyJTjtbr+e3papkPGKkz1t26j20WH7pbtcRAgse0ARxRWOC+1CiO0iiOgkEKxWGwVSyirhhaVweBXa35uFWOAtrZaU8kBGxEgAkSACBABIuBMBFB1DBFYRG6RJIbiD+qg0LIAg1NCOIxqZmGtZAaZwnRwSiO4pgBEQItF0CnhccafxLYDHJH8lWmVu81kc5LOZiXTKm2Lf8PZAFFdq2TuxeWFXKB07uXlbelces52MAA8lAgQASJABIhAnxEAIbVK6hoN7ngb0Z1Qh4RIJKQWYeiQKKgGNxrR0r2xaFj3IbF9nIEksf0KHEFC4VCAhK6bm2vJ5gpydpaUs0RSzlRDm7ortJBMq/TAOgZlcHHsTes1rH9/xdtzVyJABIgAESACRMCGCFik1BSAEBkZMV616G6XS8Lh6VvNbRzkNj6j+lvTYxIITGpS2ugofG+N7pbt2xAgsX0gbiCliLZCE4uksMbFhaQzOTk5TcjpWUJOEwlJJjOSzeUkm81LJpsXeNTSquuBAHM3IkAEiAARIAIDiAA0uJAcRCMhLe6A6C3cEm4juDNRtQWD7hb2YYjeQnfL9m0IkNg+EDdEXqGpLZXLUipXdAtXA0Nsk0psIUMo4u8l0+FJy0YEiAARIAJEgAgMLwKw9gJZRVQWdmDQ1CKCGw1Dc9vS3obDEgmD+IYkEg6rBy7btyFAYvtA3FACF4UWEInN5fKSyeVVenDaIraQI0B6UG+0IrqNC9XSshEBIkAEiAARIALDiwCqjMH1wO12a5IYtlNTk+p3G5qellBoSmZjMVlcmJPFxXlZWpjXiC7btyFAYvsF3FQT2+ogtqlMVhKJpCQSaTmFplYjtabDq/a8WGppauFla45lIwJEgAgQASJABIYbAZDbERR4aBV7gOwAEVwQXLgmzMfjsrG+Kpsb6GuyuDAvt0V3caxAt3tXhpeJZv88n0hs/wEbSA8uL5sadb1sXqpHLaqHWRHak7OkpNJp1dmmMxmVIcDKi40IEAEiQASIABEgAl9CAJZgILewBcMWetv11WVZX12R9bUVWViY08pmWs5XS/qOa7WyUVQ9U4LMBLN/wpfE9h+Qgb8sNLLlqvGdhWYWlcNUU4so7VlCpQfF86JGatFRmIGNCBABIkAEiAARIAJfQgBkFZIEEFzIE+Bzuzg/J0uQIyzMqWuC3+czvUV+4ZHrUr9cl0ob4J7A9lcESGz/YVbAf/a8WFTyms+fCyqHJZLJu2Sxs4SS3VqtLrVGXWq1Bost8BtGBIgAESACRIAI/CsCiL6Oj6ObaCzkCCi9C20tupbhVQ2u0eFargmobObzepQU41g2EtsHzwEQVhRcSKo/bVq7uh/A2ussIZAiYJ/r6yv1tbX8ah/8BtyRCBABIkAEiAARGFoEICewvG5BWOGEEApO6VZ9b2MxmWkr6ADLsEm/XyuaQb7AMrx/P3UYsW3hguQw9amFpvbyUi29UumMOh8gMSyRSksqlVadLX6PLfZjgtjQXpP4wYkAESACRIAIPAoCkBhoGV6/X/x+JJYFZLYVvbUiuOHQ9G0UF+QXUVtLbwuCzKIOZihIbFtTEvpYFFSw9LL5QkETwlKZjKTTKJWblVwBsoSi2n4VCkVKDx7l68wXIQJEgAgQASIw3AhAVuBxu8Tr8Yjb41bfW8gQplWKMCWh0LTMRKMyM2MKO8QiEY3cmuSyCd1C3sBGYns7B8rlikZlNUKbTCmZ1SpiuYLkcgUB0YXrARLKqtWqVGs1lSCwEQEiQASIABEgAkSgEwQQbQU5dY1PyAQSxFwTpgoZnBNgDTY5KXNzs+pxu7Q4LwtzcZmenhKPx2O6263Hs5HY3s6BfOFc9g8OZW//UPYODlVPm8vnpVAoyfl5UYqlspbTbV5dSbN5xeIL/PYQASJABIgAESACj4IALGpHRiwbrxGNviKKiwQzRGQRyQWh3VxbkfX1FVldXpZYLCx+SBd8kDD4BK4JbENKbKGLRbIXOrS1IKrZbE62dvbk086ubG3vyvHJmRTOi4JIbrlSkWoViWKM0PJLQwSIABEgAkSACPQWAZDbZRDbjTUt4gC/29mZqJbnRZEHJJYhcmv52w6zz+1QamxBUBuNhpTK1Vvimk5nZP/wWA60H2lyGEhttV6Xeq0u9UaDiWK9/R7z3YgAESACRIAIEAERjd7OxCKyMB+Xhfk5mY/PSiwWlVCoVZZ3OiiBSb94vJAmuMXrdmsEdxgrlA0lsUWUFh60KJELQosEsWQyI2fJpJwlUnLWkiHAmxYuCXBLQMEGOiDw+kIEiAARIAJEgAj0GgEUY0B0Fs4I2sMhiYRDEo2GJRYJSyQSkXAoKFNTUxLUKG5AfD4TwR22NpTEFiQVBRcOjkyE9vDoRM4SSf1dLpuXTC6v0VqQWpBgy6d22CYHPy8RIAJEgAgQASLQfwQQeXW7XAK/W0RlkVQWng6qQ0J8NqZb2IJFoxElutii6MMwOiUMDbFFtNV0kYvLCy248Glrx/TtXU0WK5XLGsnVimL1BjW1/f8u8wyIABEgAkSACBCBFgKWtABJZcGpKXVKmIvPyFx8VubnZlWiAMeE+fm4WoShqpnVhkWWMBTEFoQWjgYNFGBoNKRSq2nRhe2dPdne3Zet3T1JJtNSrdXVzqtWq6n8gNIDXkuIABEgAkSACBABuyEAiQEKOkRVhhDSbXx2Rp0TlhcXZHlpXqKRiLjdLuOwMDam22Egt0NBbJEsBg/aMiKy5Yrad50mksbaa/9I7b0y2ZxcNEB+L6TRuFAJAomt3b7KPB8iQASIABEgAkQABBVJYtDdBgKTKjuAS8LK8pKsrSzJ6sqy/hteuCC38MWFlIHEdkDmztX1teTzhVsNbTqbVU3t4dGpHB6fqMY2nz9vWX811auW1l4DMvj8GESACBABIkAEBgwBEFREYVFW1+1xicflllg0IhvrK7Kxviqb66sqR0BhB+hxvV6v+LweElsnz4M7Te2N+tSm0pnbqmKQISBie3qWUG3tyVlCisWS6m+t45z82XnuRIAIEAEiQASIwGAjAHJr/GrNNhoOq8ftk811ebq5JosL81qWFxFdEFyU4B0Gl4SBlCIg2np52ZTL5qU0L5vqQYtksdNTENmEklr41KYzGS2dm85kpVKtDfY3gJ+OCBABIkAEiAARGFgEQGJXV5dkY3VFNtZWlNjCHSESNhZhSCYjsXXo8EMfC01tpVqVSqUipVJFo7UnLWJ7lkypLKF4XpTCeUmjtSC/bESACBABIkAEiAARcCIC0NlCfrC0MC+LC3NazCE+a1wTLEuwYbD/GsiI7eXlpeTyBckXzo22Nl+QRCLZIrZJJbnnxZLUanXT63UtwMBGBIgAESACRIAIEAEnIgAtLaqRzcaiWqUsHp9Vl4SVpUVZXlqQpYU5rWA26G2giK3lYgBrL5DXZCotiWRGkqmUammtnkynpVKuCpLKEN29RofAlo0IEAEiQASIABEgAg5EAC4J8Ladnp6S6eCUFm1YW12WzfU1ebKxKmurKzIxMfi+tgNBbFEZ7Or6Sq6aTa0SBh9aJIRBU3sCQqua2rSkkmlJpjNq7VWvU3rgwO8tT5kIEAEiQASIABH4GwQmJibU23bS79NtLBqW9dWV22SyjbVVcXvc93xtB1FzOxDEFsUUICeo1kxxBWhmldCqpjYpZ8mk5HIFKUCacH6uf8cxbESACBABIkAEiAARGAQEIDPwuF3i8XjU4xYJY8vLi5pItr62ImsryxKY9GtZXp/XK16fVy3DBq0NBLFFxTAUXSigF4uSz+VvI7aI1sLeq1yuqPMBEsrqqqm9GrSx5OchAkSACBABIkAEhhQBRF8hNUDk1jUxocUbkES2srwoqytLsrS0oGR3GnKFYECmp4O676C1gSC2pXJZ0pmcpFIZSWUykkql2yK2CbX2ajQamiB2qXIFFGCgpnbQJjM/DxEgAkSACBCBYUUAvrboY2PwtkXJXb/MoczuwpwsLs7LwsKcJpa1J5ihwMOgtYEgtnA/gJXXyemZHJ2cqgQBvrWJVFqSyZSSXpBZVGAAnWWp3L9OY/0ywOi59YVQ0+fWl2RkdET0v/bf4W8yMmjfB34eIkAEiAAR6AMCuDvj3nx9cy03fxN4sv52fXWtlUGRT4Okby2qdH3Ne3vbmFllcyFHQDWy+OyMzM7GlOTC+msuPivzc7MyNxdXSQKIsN7/W70Pw/+obzkQxBbJYHv7h7KLvrevpXJz+bzafOVyeZUpMEL75XkzMT6upfnwRdASfa4JtQUZHx/TLbzvPv/36Mjoo05GvhgRIAJEgAgMJwIgtFhVNd2UtTehKNNAYJEbg9VXJH/Dex7Wns3LK2le3R0znOj9/ad2uSYkGJyScCgk4fC0RMIhJbbzc3FZmJtVz1vIFTx67/eI2+1SCYPT20AQWzgefNzakT8/bsmHT9uyt38klXJFSpWKamur1RqjtP8yU70ej5bdg8EzJjoyKjHJb7sLhBf/Bul1icvl0ic8NiJABIgAESACnSLQvLqSxkVDGo0L3aJq6D0bzhvRwkvFUqnVy1Kr1qRxcaHHXDQuVGrIdocAAlM+n3FJQDld3OMRvUW01iK24emQTE0FzL1/KiDgAk5vA0FsIUN4//sH+fW33+XX93/K9u6eXFw05eLyQp/w8FTH9mUEUEc6EglJNBqWaDikonK/zyter1d8Xp/4fR6B+TO+JFi68Hg9A5lNyXlCBIgAESACvUcAkVoEoZDkXa1WlbC2SxIQsUWCeCablXQ2J9lMTs5LZXVCQlI4ii2B4LLdITA6OqLJYehYhXW7PTI7E9WILcjt/Pysam6jkYhag0UiYQEXcHpzHLFVPc2NmGUK6HGur+Xo+ER++fUP+e8v7+W/P7+X7Z09o7tpLV8Mo6bWEpFb288nqqXBsXS0ILKY8KhUEp+JSTQS1ie82yc9/dlvfjfpF7/PNxQVTJz+Bef5EwEiQAScgMDF5aVUKhUplc1KKyw8cX+/bTc3ksnmtfiS1ZFfU8Yxpapu67W6ufd/dv+3+IITcHjsc2znAlhljcUiLZ2t0dpCZ4voLcrvzsfjGtRyenMkscVTmfGsNd61x8dnKkP47c+P8vsfH+Xw6Njp49LR+UMADm0N5ALQy8D+wyKy+sIjIwJNLfaxZAXQ4SBSG9GIbVhCwaD4NEprIrSI1iJ6iyiu+dmjuls2IkAEiAARIAKdIgAZASK2em+HxKDRuJcb0x6xzeTyks1kNWKL6G61avnY140O9wKrtWbFtn172bwc6nwb8IDQdFADV4jOxqIhWZifl/XVJVldWZaV5SWN3Dq9OZLYosBCFslhmNzwrD1NyP7+oezsHWoSGZ7mhrmByLZHV6GZaa8ugsnt83pkcnJS9wsEjPbG6GsnJRAIyKTfq3pakGMYPrtaGluIzF36b2psh3mO8bMTASJABB4TATgXGX0tNLNIDGvey40BsYXkAPf/UqksxZYMod465qLe0ChvqVyVUqUs5VIr+qu5NmUpl6tKmiF5GNaGez/yZ5BHMzWFe/2krCwtyrMn6/L0yaY83ViTeHzG8fA4jthiSQEuCMcnZ3J8cirHp7D3SiqZPUuk5SyRFCxPDHNDkleklQUZDodUMwMRudWguwF5jYSnBX/HvpAcoNSeuiK0SOytE4I6IrRcEcbglGDcEu5FgYcZcH52IkAEiAAR6AgB3NvhhmAcDpoCW692t3njimASxeCIAGeEi8umXDUvBYlnOAa/Q7BLXZGyBbPNGXckdBRwGvaqo1ilxb1et263rK0uydtXL+TNq+fy6uVzLejg9OY4YounutOzhHza3pWt7T3tiWRS8udFtfU6Py/pU90wN0Rj8dQFzzpsQ9PTKke4I7ajt7Yf8dlZmY/PqMzAeNgZg2crwntLXvG7lq8tXueftLvDjDs/OxEgAkSACHwbApY2Fke3/2y9WnvODOw7b+B3i4Qb5Nzo9karip4lUnKWTOrWBLxMRwXSdDar5HfYG+7v1j18c31Vfvj+rfz0w1v54e1rWVlZcjw8tie2VoLY1bUxZYbDAYowfPy0Ix8/bcuHrR2B3Zdl61WpVAc+M/K2mELLTNmqMoLJiigr5AUm49FkPqKE3nibNx0E5NPBoMzEItpRhQQSA0ZgHf995gcgAkSACAwlAlZEN5XOSCqd1Z5GJdJ0RtL4dyYr2VxOJQmQOqhF2AUswoxnrnZUJQVJHqK2urIo7968ku/evpa3r19o+V2syiIYhhwdcAqncQPbE1uzPNFs2XZhqaEuR8eG2H7Y2tItJix+X6tjshptziA3qxZ0e01oy9LDqg9tqoqYTEcltuP3I7bQ2UwHUS/adGhm2YgAESACRIAIOBUBBL7yhaKcF4tqDWZWcc3PRf1dSQrn51IonOvv8ufnmrCG48AbIFPQKqVD1Bbm5+TViyfy4tlTef5sU5YX51WHi8RxlOT1epwX9LI9sUXZPFNpBMS1rpMQrgcfNGILcrsj2WzOEF+tWIKJ2WYRMoATFBpaaGGRFIZqIXAoMP821UOCwaAxX4ZXXYvYwgXBanj6wmsYj1qPvk478R1AyPiRiAARIAJEYMARACmt1urqbWu5JoE34N/4PVZ2wRdOE0k5O4NEIakEF/sox6g1NJA2TBah8dmYbKytysb6qqyvrcjS4pw6J0DCiC0SzNqTz50whRxAbDFRa61KYlUplUpycHh8S2pRcSyXK8j1NZYTLN2NE6D/+nO0lgNgvzU5iacp80SFxC/4ylr/DoVAbCFDaJMitBFbvDPkCGNICNNkMOctNXw9evY/4p8WwEbsf+o8QyJABIhA3xEAIUUCGgjr0294AAAgAElEQVQuktCwvWpea3IZfoa+NplKyc7egezuGxeldDqjhBcyxjIKQzQu/lbj2/cP16UTgM3n4uK8LC8tyOLCvK7yzs7E1M9+djam5NZp1p62J7Z4eoK1B5wO8GSFLMfDwxOtLra9sy/bu/u61DDIuhhMKuhoDRkd1yeo4FRAgsGABAMBdT1oJ7mm2EKsNTmjarjMiGyXrgodvKyVIIG5qwbieDC7lwdskvQ0aQ966rakvg7elocSASJABIYSARSBSCbTsrt3YMjt3r7m6KhsoVjSjlVh8A6s/IIM3ysSMYCogUvc8oXZmBZtWFqal+XFBVlaXNA8HBLbRx54iLtz+YIkUxCBpyWRysjJyZkcHp3I4fGJHB2daKWSQV06AJlB+VrIBSA5QLQWRDUSmpaQ9qBWAjOyBCNPwL/NUkJQ90EymdMm5iNPI1u+nIkuNFXbZWQ0Tblpr7QjoktA4xPjWlADOmonCvltCT5PiggQgaFDANfYfL5gpAiJlJyeJdUpIQ9LsLzpFrk10gQjURjkdDLNt7H4wvS0zMVjKkvYXF+TzY1VXfkdd1gxJttHbHXpIJ1Rz1okjWFr2XjgySuRSusT1qASWxAZjc5qhHZKOyqDRKMRiUUiEo2ElMia5LFWNTG320gTWvIEOB44TSMzDFdcRAKgDa83cPE0WbqfJy4g0m401Z5WoQyX4zJUh2Es+RmJABGwPwKIwsIOVJPHdBX4XH1v05mcpDNwUcgquTUJZiUpFs+lWBrcwBlGDPcXTRTzobKoX2Zno/Ly+VN5+fyJbpeXFzWw4qRme2ILfS0qi+nSwS50MQdq3wFdbb5gnrAsTYyTgH/ouYLYgMjGQGRjUV0WUP0LPGpnZ2Q2FlW9rfGgbckVUFChFeWDzReetpxm1/FQfJy8H4gtIgK40KJbS2DtnwkPLHrBaemoQXA5lk4edZ47ESAC/UIAeThYHbuA3Ver2ANkjtDdwuf2LJWSFFaHUxklubAMA/Ed1MAZxgG8QR2WsCrocinH+O7tK/nuzWvdbqyvaODMSc2WxNbSHmoJvUpVDo6sZLFt2drelWw2r/IDCL6xhVXHoDTLNNkUShjVpykUWoB1F5YE4HYQj8+a38VnZGYmqpHZLzUSoe7MDtXFtvSxuGDeb0YtawzEkdQIH3Fszc/4HxIaQGbLWvIRyQsVvei2N9iwITnQlEieVBcLy1xbtGDGXz+b0eVaxTbMFs2aW5wP3ZkPfFUiQATsj8DnJLVYKhlSq4UdjFOC6eZ3qVTaJKSp162VpD6Y4gTcWyLhkPz4/Vv58fs38uN3b+XJ5rryECvPA7zk7+47dhp52xFbTDpoDqGFQVZjqViW/Rax/bgFYrunUVpEuiwbD0y6QWmQHlh2Xih3B1IDMbflcABiG4mETSnccEjC00FdpmbrLQL3ZQQXRof1mbG3ycw1pR6trNymzm3zezyQWTquastu5uqzuYzI+52+2iNut0efrOFkgUTCv0TjR0b0b5CfaPe4xeVC1N4qhTyuiYgkt72dL3w3IkAE7IkAVsussruIzmayOV0V1sgtijtkshp4KMM1oVKRaqWqJHcQG4IgsPl6/eq5vHn5XLcbayu6Yoh7icftUc973EPs3GxHbDFhGtAb6jJBQ7MV9w+OBLZe8K3d2tnVsrn4u3rXXkKXODiTDJMmEPDLVGBS3Q+QAAZi227fNTUVUF0tIngBv89xywR2/kI89NxAWrGagKf9Yqmsc/Lq+krLO1oND2ZWdRtr2cuqeHP7b53H1ly+/EsGLpwwMCdATnU7gfreE1rjGw9A2LaTVDxJg/xi/pge0IuS2delZBfyFCQlshEBIkAEhh2BeqNxu/oLAoviDiC42rM5XSHOQH+bNTrcTDY/UKvE7eOPewnyeZ4+2ZBnT9Z1i0pk4CG4lyj38Pts77JkO2JrlmeN3hBbRGf3QGxRkGFrRyO2sP9Sf7preNO16kUPyLfT5/NqpbBoJKyJYbFYRObjliet8aVFBE+JjhtEx2TKs/UWAURh8dBlLnTmgoff3bYb0YsfNOI6l2EYXjV6WhiF43dYcUAEV+dyaz5/Xs0R/NPYvZk+MT6h7hjQ3fp8HhX93ye2I3rhMfMnrNF9VJaDXAVzC/uD4DKZsLfzhe9GBIiAPRHAChqCC1awDNfm8+K5VjBDEhlcFJC4bjkxHZ+cabLvIDbcSxA0W11ZkrWVJd3C2xa6W72nRCMSCgaVf9i52Y7YggwgAlYsIhJWUtIAYgtt7aetXdnZ25dK5c4Fwemi7vua2hH1pNXksPiM6mjNdlb1tOhIGIPQGzoXo8M1na27CLR7zsKSC36IeIq3dFinyaSuINwR2xvdB7pZNf6uVM1Wl7TM70Bw1QWhTYP7d58Co6tjDJnB2JgSVKO59elF6D6xHdVI7exMVOfRzExMYMCN/TC3sIVlnMoRWt642FrvYb0W51R35xNfnQgQAXsgYOVJWNd4EFzN3wEP0dW4onrebu8Y7/yd/QOVI8B//ObGBNY+D0jY45N9/Vnguo/7g8npaZNAzt8F10BysfJn52Y7YotJhdA/lgAyuZz61+JJaf8AVUKONJEM+tpBadBDmiVmLDVPqJ8cCC1K4WJixWdnjb1XKwKHLSO0vR99EFAQVZBXPN0jAgsN1ulZQk7OkrrF79svcNCKV2ut1QerxKOuRJgILp76v9b8G5FWy88YUVuvz3uP2EJiAOlB+3yB1zFkLSC2AUgTfF69MN3JGyaMZrctMsyIbu/nGN+RCBCB/iOAlTeU4K20rtWlcll2dw9ka3dfyS0cms5LJbls3QtwXxgUOSSILVb02lf8UIEMcoTVVURxlzXfB0nMdm62I7ZYntWMRJCFhCEMMFGG5Rc6ImTQKQ5KgyBb9bJ+RNT8EomENEI7P2+elhB5C05NqbbF0kySdPR+9EFSUW6xXCrr0zxMvBPJdGt+JuQ0kZCLxuW9ymG3S1wNoxcH8a1DT6v/vpDLJjS1X5ddiwsPHoQ80MzigQjZqm0Re/wM0mo02tBEGa22/luJrdmaCC6ivn6ZhDzB4zav19Lz8uGp93OM70gEiED/EUAQoz0nAitrBwdHsntwKPv7h7J/eKwVUHX1rWwSyu6t1vX/I3R0BrD2snI0AlMBiUXCsrmxJs9Ud2s0twie2LnZjthCg3hweCwHh0eyf3AsRyenWvIu0zJQhqB7UCaR6ln8PgmHQhIOT6u2FvZd83BBmIe1V1w1tqaqmDHop49pf75OIKbwO7SyZ7GaoJVrTkFqWxFb1BhvOz1EY9URQWuXG2eEu38bXe23LGHB2xgRVsgSxsbvexSPiHFFMMllxhkB0gUltAEjR8CDEuZaBHMuHNLEADxYWZFgbFmCuT/zjO9KBIhAfxHQ6zau1XCwwUpd40J5iNHYHsvh8amk0xlzL8gXJJ8/1wjvoLRbZ6bW/SMUnpYXz57IGzglvHqh1chwH7Fzsx2xRdh/a2dPNbXoeDqCNAGZisg8h+blXpKOndH9l3ODRhYkQ4stqJbW1Gm2PGtBcFGYARNNiy+MmSIMbI+PgKXVtnRW1jtYv4d8AAliqHRnKt4Zj0OsJmB1AasMeMpvZ7Z3vrV3/rXtmqxv1Ye3+9GaYO19jTX+DjeFkVGztZw21EVj0q9yl5lYVOKWDjcW1Yp2VgQXFy0Q23b9NjW3jz/n+IpEgAjYD4E7H33jQ46ghK4aQ3Z2cqZb+N1ixQ7+t7AEgx4X7Vuv6XZCQX3QR9EN3wBHge3XD9+9kR/evZbnz56oc4Kd8zFsR2yRNPbnxy3588OW/PHxk+ztH+pTERLG1C3BSrix00z4inOxzPVBUsfGxlV6sLQwp5mHS4tzSmxBOiDQnolGJRSaZnLYV+D7Lbuai9eVFkdoXsJCrml+bjZvPZWR/AXddwq2L/A4TJvyi5bPIX6260oCIrimvLJxRYBtCxw3MM+0oh0yXaeDtyWb4aKAlQFTjcaUaqY04VtmFo8hAkTA6QgggmtVIVN/23RGAxkguxrYSCTVIQcRXsjLcN8YFM0txg4Bj5cvnplqZG9fqRwB9wtT3dTcH+wWcLMdsUUG4m9/fJT3f/wp73//ILu7+zppsBRcrxtLjq9NuLHLFwtPOFg+hoYFHSJtSA9UmL28KCvLSxKfjWlEDeRiemrqL1nvdvksg3Qe0LlifmlpW7gXaInbmma+mlK3VSmVKpowgLmIOVo4L+nWrCSYrV0LheCiY8y1jTwB0oTglJEkYJ4hWmukCaGWLCakGiurjC8IMY5jIwJEgAgMGwLgG8ipMNd9YwGGlTvN/zk1xBYSyWoFCWfmfoEciq/LnrAvqrgPPNlYk5fPn8qL509kc31VA3ImWOLTrd2ka7YjtoXCufzy2x/y86+/a0cWIuQHt9XImk3HhvsR3p+YcIkXJMNjCAYitKjssbG2KutrKxpFw2RB1qHXC0JxPznIvtPfuWeGCxcisvArhI42X7C28DA8F8xJWM+B7GrFO3jT6tb8bFXBs+sDFx6orFrguAChHjjmoDXHMN9U392K4GILzTcq0IRDQd3aPVnAubOPZ04EiICdEcCKHq7x5ppvXG1SmZYjjia0J3UFD/cJ3C9wDwHBHQRZAsYF9wkE3TbWV2RjfVW9bXGPQNQWK8qofgq5m52a7YgtyMV/f/lN/vO/X+U///tFPm3vauYhtImIrDl5sliRMyTqgChAywj5wZMNVPhYl6cb6xKNhpX8jo9DqmAsmNi6iwBkCIViSZLJlCYq4mkc9cHxM+zmoKnFEztcDbDEZJXKvS2scIW5ae9CIZbn8Z0UxrL3MhrcaDhsdN4tr2SsHMAHVz2VZ2dUU8VGBIgAERg2BCypmnXth0wN/vpIHIbeFnKERCIpyXTm9p4BSaVdAx1fO35Y6YNL09LivCwtzMvCwrzMx2fM/WE2JrADg3TNTq3vxNZMGkMKMBGgp/3fL+/lP/97L//9+VdNJMPy8CA0kFS4IFhSAzztLC/My8bGqob3N9fXNFLWTmaZtNOdkW+fcygKgnmHijInp2dyfHomZ8mk+tSC2GKLVQMtpqDtviG30x622hPOrMpmiMpCFgN7OTyNg+DCbk4dOubiAi/c8TGjtTV9lNrv7kxNvioRIAI2RMC6zoOnIDKbTKc1gQxBECSTWXpbJBNn8wWtPGmCH/YPfHwJbqwax2fgrd8q2ADHJr0vWAUc4uqoY6fWd2KrSTst0TW2uVxefnn/h/z8/nf55dffteIHQv+D0LAcDE2jSQ6LKpFYnJ+T5aVFWV5akJWlBdU72k2IPQjYf/4ZcNGxksTq9bouJR0ewWbuRLeJZKolSzBLS5iDg/IE/jkWmG/ws8WSEh62pqen9GkcFy5YzoHYojSvz+PRghC4iOEpng9dg/jN4GciAkTgSwiA4MIFwZKtISiSzmTk5PQuoQzJZrhn4N4CGYOTc4NAbK37gQY7UDwq3ro3tGxJSWzbZgwmCBJuTGJYXeqNhvrV/vbnR/nt9w+aPLZ3cDgwlcZQXQy1lhfVBWFOw/qw9tLSuQjpz84owSCx7e6FFfMOc61Rb+gWKwIgsrt7h1pVBnMOMgRTeQYJZTW9MDktMvtQFLWog8etFcmshABIYnARW8BTeTwusZmoSWgMoljIlCaXkdg+FGHuRwSIwKAgoPePel3vD6ZcekULNmgFSpDbREJX+gqFohRbycXI4bhb8XMWEiS2XzlemCCInN1moleqaqf0wbL7+rClpsioRjYIDRPEShZbX10WdOgakbiDIg0wQkadZhKG7o425p0S1pYLAtwOTk4SLf/kPdne3VdLl3a7r2sUU+juafX11SEvwIrCeMu+BcUb9Olcie2sxGFDF40YGzpNLgtxnvZ1xPjmRIAI9AsBc28wq36Ni0sploqmMmqrvDqkCen0nR0k3BSwrxMbie1Xjpp58mkYy6SWnQYIhVWgAYljmCzYx6nNStYZHRlRF4TF+XmTKPZkTS00QBLUOD+A8qaTWtaUxLa7o415Z805iPzxtH10fCpb23vyaXtPdnb3NTnAtPt62u6eWX9fvX3eQQeOpIB43Kwk4IFMVxrmzWoDfufUeWrp+a2Ev+tvKf/W36Hiu/cYATWtV+N6Y1rv1LnfY9gG+u3aNbeIyMIdASt/KNqAapTgLijogJyNdCanycdObEguRkDjtpBUfEYW5uPGe1/vCfPKbezU+qqxxcRAtBZ6FO3ZrGYXQueIimOoz4yQvlZ0cmDDBRCTAsu8eOrB8i0mwcbGiiaLra2uSDQc0kmBsrmw90LUjBfN7g42CE0mm1ddVCaT1WxWXHwODqCxPZaDoxO1bhnmhiRH6G3V2zY8rcR2bWVJLenWV1dUE+7Ueaq14BsXKkPBQzOkUGxE4J8QUP/x8fE7L2iPWybGxwkYETChD7UDq2mJXfjZZvN5TSrb3z/UAlO7+4caycX1xonN5AYFb73OQXLhkKD3gtb9ABJKO7W+ElsQDGSbn5whGx1mxwmzTRjTY80uzJnsQic2LO+iakdgalKrPSE5Z2FhTn3gQBJWlhbVIcHlmlACjGgtjnEqYXDKGGHemSfqs9s5B32UVU0GT91WiUSnfKbHPk88jMGWDhcszGEkD6DizLNnm/Li2ab6Ljt1nmJJsFRCee6SnJfKQz/Wjz13Bu31MM/h5YlrOHogMKkkl40IWMQWVSdL5YqUy2Xd6srz9q58+LQjHz61JJU1Z0oqwUmQf2GVZEfAAxwG94HnT02fspkdZN+JLTIL8VSj/eBQl4Sz2bxkcjnd4uZj14pO//a1xpMOtLPRaEiikbDEYlHNMl9eXNAnHoTyQRosCyWUPmXi2L+h2vnfEbE7ODqWvT0z57A6gOUjM+cKKk0YFCeOb0ULFfKsBy5sIZl5+/qFvHn9Ut6+fqkXNacSW0Rrs7mcpLM5jdgjysJGBP4JAVyTQWZjkbBexyPhMAuWcLrcQwCaW2htITdARxL87x8+yfv3f8ivv/8pO7sHmtPhxAYJDiqlIviGewFILIpKvX2De8ELeff6pQbo7NT6Smyvrq8lm83Jx61t+fhpRz5u7WiyGHSPiOQiagaCgf2c2DAR4HZgknBaiTgt7zcQXHiFQn6AZrxFsW394MQPbONzbnc0wEVoa3dPPn3akU9bO7fJYtacwxM3yA/b3byMRiLy4w9v5cfv38pP379VgosLXmvW3s5fJ2AG+x0Tnb9bHbLO28htBzlN0AkjZK9zBLFFgq91HYeLjRWh4vXaXmPVr7Ox7i/Y4hoCCzDYlf7n51/k//3vV+U35XJFT8/J7jq45MM558nmmvz4/TvtP/3wViVrVrPDd6K/xPbKENsPt8R2W/W1iNKC1JZKFanWnOsfiuUqaBERtl9dNl61WNKNRSPmyT8SVj9Qtu4iAOkBdNpYLkIHsdndP9ByzehYLdBa36jz3Sqd6FT5S7eQxI399avn+nSuEdvnT1Q3biQ0E/pE75TVBkROUIwDq0NHJyf6Mx52rq+upXl1pVtS227NJOe97tjoqN64l5fmZWlxQRbm55ToWoVKsGVCmfPGtZtnXDg/l9//+CS//PaH/Pr+D02IhzOCiejCTeHSsQQXnrVrK8t6H3j75oVuwWfuJJUTMjaGXKFuIvzl1yax7SL2iMZubqzKs01TMndtdVlJrWq1pqDXmlRCwNZdBEBa8LQMv0FEY7EiAPmBJYHBKgEuRIjSggBj61TPwW4hicIhz6Gxhabq2aY6elj6W5SGRgIkEmyc0DAPkCCI5FTMAchSMOYXl5dy0drSKcEJI9mbcwSxhRRndWVRVleWZXVpUUufWw912GLu2yFS1RtE+C7/hgDuMVs7u/Lh47b8+XHbBE/yeXMf0nuRc31tEbCDjNLS1+J+gIQyvR+08jLcfS7gQ2L7bzO0g7/7/T55+fypvH75TN68eiGbG2v6pI+Jod3tvlc+t4O34qFfQABPyNDNIiqLJSKsEiBaB0JzdHSqjghYIYCWu3nVvC2BSFDvEMBFC77La2srqq/CCgS8bCOhkMDzNogkSIc8pJXKZb3RwNYNnsWoboisZkTyEbGHU8L1tVU+mbNg2BEYHR1TSZkpe76q34PZWcjIjJMNEstAbklsh32m3H1+fXg+ONZrC1YHETxBQpneg3IFyaPkbtOhvrYqsZyR9TVzP1A//tkZdc/B/QBbyBX6+X3oC7G1NCaIisEvFPoTS46AcqbQOuKpRjW2tbrjSplaAwoy8N2bl/L9uzfyw3dv9AknGAwILpRjY/RD7OZlsF3HBKKSSBl/QRhnn8FnEPrKM7hwJCWZTGkVGaOPMovQTtZBdQNXRGSxBAsPW/UwnJ/T4iLG63ZGYpHIbaY45n8/L2r/9vkhdQKp/bi1K1vbOwK/7HLZVBDCdQdzwakJq//22fn3r0dgfGxU5ubi8mxzTZ4+2dAABQqXIPEXmeKwxkOEyilSnK9HgEd8LQKQUMLl6Qg+tien6meL+465D6UlkUo719d2YkJllCYBfk4WF+dlHvcCraBqqqhiFa+f34eeE1uQWWger69N1TH41yJpDLYYSCI7OjrRML1VyhTeb9jfCQ2aktGRURltkVZIDb57+1p++P6N/PjdW13Gxe/YuouAmV/Xt5FXJCAen0JPeSbHxyZCm0pldO7hKTqXy0udyWJfHBSsLsS06lhE5TRYmrXqhiMRcjYW1Uzx8Ylx9fi0s+YWxBbFOHDd+fhpWwku7L8gU8HDNAguiW13v6NOenVoaDHHnz01Upynm2v6kDcV8EsA9l+Txv6rnzdyJ+E5DOeKaqm4x2jBhlRKrUthZWoR3eOThGP9s9XtKRyShXhc5udn/zYxHlLLfn4fek5sQWahZcO2Xr+QVDrditiamwwGvo7lwJZ5upNE1hhIDDqWZHFjnw4GVILw7u1LeffmlTzZXNeLIFt3EQApMeUOzVwDWYHsAMUX9g+O5PDoVPLn53J+XtSOFQImi315TKz5DK3t9NSU2rsYYjurN30kRU4Hp8Tn9+kyFHwP7aofJ7Ht7vdv0F6dxHbQRrT7nwdFX7AabRWfSibTcnhyagoAoRDQ0bFjK6qS2P7N/MGA12oNwRMNorKo0KF2Xxq13daQvSG+Tc1UvkKGskNKXuIC6FX9rEef4GFk/Aoa21fP5PXLF6pNtFuFju5/xXv/Duahycwx6CZRRQzVX3b3DlTztH9wqMvNWC7C37Evk8W+PE46t70e8WFuw6zb571HbLEEhczYUCgooelpJbn4HtixkdjacVTse04ktvYdG7ueGZKQcd9BTgfyO1LprJJa6x4EjT/uPU5sJLZ/M2ogE6pjq1QFSRwI0X+4XRLc0XC9JVWwark7ZfAx4FiORcUmbGER8/zphrx49kSeP3uiFhn4PVt3EcDDE+ZXuVrVLZLFYLcCLSWqwYDcIqEMZNZ05zw8dRe5f351aGatQiLYwuJrbm5WFqylqHhctVUzMzGZnYmqVAGRWzs2Els7jop9z4nE1r5jY9czQ3ClWCzLebGoHdHbvYMj2YKufwf3oX0NrDixkdj+zahZhBY3l+J5SU6V2N4VaMC/nRKh/fzjwdcTkSrUVZ6enpJYNCwb66tqjbS5vq5iayThsHUXAURg8dCkXsjlstFxtwqAWAUZQGbZvh0B3Ozn4rO3UoTbAiSQJsRRfGTWtqsTJLbfPu7DeCSJ7TCOemefGavNGlxpJaQiaru7dyh/ftxSCzDkFDm1EhmJ7RARW0S0vF63RqqsjggWijIsL6E4w6LMzcZsuzzb2dfYXkeT2HZ/PEhsu48x38EeCJDY2mMcnHQWWAmst6RwtXpD8oVzdWL57Y8P8tsfH+X3Pz8q8XViI7EdMmILmQHsL9QGY35OFhbigvKLxgJjVqUJiOqydRcBEtvu4otXJ7HtPsZ8B3sgQGJrj3Fw0llARmlVGEPOEJKU4cSCSmS/vP9dfv3tz9sSu076XDhXEtshI7awuECCGIyL19dWNFoLMouiDLDHCAYCts0Ud9qX60vnS2Lb/dEkse0+xnwHeyBAYmuPcXDSWUBOCbkbCr1gC/nTp61d+e/P77X/75ffVCbnxEZiO2TENjQdNF6HWnp0Q0voBqeMz6EpO+qT8fExJ85lR50z3BBKxZKcF8tSLBUlnc7Kp22TPPZpe0d2dw/kyiHeyHYFHjd7rETMzc3I3OyszLf0tqaAw5z+O2BTz2ZqbO06q+x5XiS29hwXu5+VKfiDs7zR6Cz8sg2pNcT2vFhqJcob33Wn5BaB2ML5Btd4FOfBPQCWj7juaxGf+bjAFnKofGwHNXkMGluUknv1/Jm8evlUXr14ptFbyBNM2UWvyhBwkWTrLgIQ5RcKRdU1oXQhijDACcEqoQovW6cU/eguUt/+6pjHWqhhJqrFGeIzMyq9WVlakKWlRVlamBOsYNixkdjacVTse04ktvYdG6ecGe5JuP+8//2D/Pb7n7rN5c+1SAM6CgQ5xXJyfHxck+Rx3Y+1rv8LC3OyvIh8ItMR5COxHQBXBBBblJl7+/q5vH39Uvvmxqp43R4ltC6XKdrQz8F2ykWg0/NEJmo2m5d0NiuZTE6SqbQWZkCH5crR8SmJbYcgYx5DZhOJhCQaDkksFlVt+drKkq5UrC4v6VO7HRuJrR1Hxb7nRGJr37FxypnB2gtVVY216Y7AnQcWYCgOhKqHxVLFMSV2seqM1bhIOHx7/cdKHa772leW9d7QT67T88pjgxyxRQTr+3evb/vTzXWZcE3I+NjYrQcoCDBbdxEAcdFyhqm0pFJpOUum5PD4VI6OTuXo+EQt5hix7WwMcNFCZT1UIIO9HQguorWb62uyubGmOnMsV9mxkdjacVTse04ktvYdG6ecGfI+zhJJQWGG3YNDDbKgGlkmm5dMLqde69jHCXIEfB8m/T61NDXWpkFZWpy7vfY/WV+VSCQiY2OjfRuenhNbaBaVO8EAACAASURBVE2K6jFaksJ5UUmGeYLZ1epjGHwnDK41YkpTR0ZkdGREbb5+/OGt/Pj9O/np+7fy9MnGraYWhJaktjfzHPMK8+jkLCmnZwk5O0vc/nx6mtAI7vW1ip/60qw5g+3IqJk7I6OjZvvZgw80Wkar9Tcd6q0+VeUbHR2RyZZ2PBDwa5W91eXFlr58U55urGnCpB0bia0dR8W+50Ria9+xccqZNRoX6qd+fHomxyfop3qPSiRSctbqkCv063r+NTiOjY5qFUpEba0OGYKVW/TsyabMxEBs+ye77DmxRei9cH5+W24OxGN7Z1+2d/e1OhSeYpwwuIbPjihxRfQKupPZmZj8gIjtd2/kh3dv5Mnmel+fWr5msg7SvvlCQS8eh0cncnRyqhcTzKtkKqNbXGD6MccwXzBXcGHAlx5zx+12i8fr0VLMXo/nLxcD6K5gF3NrHXNxoT9fXDbl8tL83I9mfJs94vd5tegIZAdYgnr5/Km8fPFUnj/d1BK7dmwktnYcFfueE4mtfcfGKWd2cQFim9NAy8lZQrcI6mk/Nb/DanY/7ktfiyHuYS6X6/baj3sAdLUvkV/04qm8ePFU4jOx4SK2qJ+cyeUlm8up/hEDjPD83v6RhuiRwe6EwcVkAJl1TUyoftbldulgQlv77s1LefvmpVYdA4lh6y0CWN45PDqW/YND1dQen55KJp1TTVM6m5NcrtCXOQYyqHOlNWc8Ho8Ep6Y06RCWcBDcu13ue2Ch5vhtBZtKWcrlqmbYlltVbSqVSivztrcY47OgrC704zhnRG3X1lbk7asX8ub1C02ehDTHjo3E1o6jYt9zIrG179g45cwGidji2g9nBARl3C6X3gOQU4HrvnX9n4vPDA+xBWHNtbLUsRycTGeU2B4ensrh8bFG2JD04xRii6cWjbR5PRq1ArF99fK53tRfv3wua6tLfRVQO+VL/9jniYej3f1D2dndk+29fU0Ww7zDQ1U+f64SmH7MMTzpWvMF0Vks40C+gozShXlThtbv892Do1arafYszh9lGbO5vH6GHB4O8wV1fejHZ4GMYmwcUedx1ZD7/D59kPv+7Wv57u1refv6hczORB97aB/l9UhsHwXGoXkREtuhGequfdBBI7bWKjW+GyC5SBrGdf/7t6/ku3evZX4+rveFfrWeShFwA0bUTHWPiZScJloh+dOEHJ8k5OQ0KVhG7seN+lsGAOQEdl6BSb9MTvrV1/P5syfy4tmmPH+2KStLiyS23wJsh8fgoWl7Z0812/CtPTg8kfNiUUqlshSLZTXG7oc0FdF7zBMI77FFchVKLW9ursqT9bVb3+P2j18qV1QTjAQ46LES2CbTra353XU/PoyRluP/usXDHZLGfvr+nfz4/VtNoMT3wY6NxNaOo2LfcyKxte/YOOXMBonYWpibvCEjyURBKlz3kVv04w/vZHF+vq+e/T0nttA3Wkk9RmeSkNNTk+QDvQm8Rx1DbCGgRgJNYFKmApMSn43Js6ebqi9EgQYIqvtpeeGUL/1jnycemj5+2pY/Pn6SPz98kv2DY4EFGJb0q9WaVKq1x37LB70enmBDoaAmWkF2gKV6ENuN9RX1PF5dWdZ51N4gOchks+rykMoYjTBWNg6PT5Sw42c7ODx4PG79DD9AX/7dW5XjgNiqpnhsVLd2+S6Q2D5ounKnFgIktpwKnSIwiMS2HZP11WX56Yfv5Kcf38n/gdguDCOxBZG1orUDQGxBRkBuoSt5+gTE1lQeI7Ht9HLwbcdDjP/7h0/yvmWEDQ03rFTq9boaYcMQux8NSzazsZjMzsY00RDzBf5/8H9dWpjX5ZtJv//eqaGKGirUnBeMhMIqNoGINBIut7f3bFFFDXorLEepvvztS3nz8rl+Png3Q1OMLQiCHZxBSGz7Mfud+54kts4dO7uc+XAQ23fy04/fyf99/04WF0lsHR+xJbG1y+XDnAesVN7/9qf8/P53+fmX32V3/0CQhNW8vJLLZlOazWZfThiabJDYZe0L+lSLkoTQoqLHolFd0m9vl5eXUq3VNdIMvW02n5ePH7fl9z8/KXn/489PtqhYgwQC+NhCY/765TN1R4BmGJFcJMlBtgNiT2Lbl6nHN+0AARLbDsDjoYoAiW1vJ0J/pAiW9ABR21PL9sK5UgQS295O2n97NyzP/+/X3+S///tV/vO/X2Vnb1+aTdTiRk1u4wfbj+Zxu43sYH1VNtdXZXVlSWaiEZmeNtIEWGaBILY3yAxg+dVsXukWCXDv//hT/vfL7/K/n3+Tn3/9TZpXV/34OPfeU0n7wpw8f2405vA0BLFVPbHfL36/Xz8biW3fh4on8JUIkNh+JWDc/S8IkNj2dlL0nNhiKVUNik/P5ER7UhLJpCaTIRGmXxnr3wK7mhRPGn0tpQjfgmB3jjk4PJb//vxe/r///iL/7z8/y87egW10qPA2RkU6dLhmRCMRCQYDEgwEJBAIqB3YfWJrFWYwpByyhF/f/yH/+dmQ9v/+/KuS3n43nPfC/Jw8f2JkOPicILbWdwPfE8gVUNih341ShH6PgLPen8TWWeNlx7MFsYUNZSIBGabhOwjqacEG8KCThOaB9Cvo0ilmRmM7xFIEZHXvHx3L4eGxHBydaFWoVDqr2kHYNOGm06eA2lePLYntV0PWkwPsSmxB7JBgtbG2rJHbleVFicWiLQ/blo+t+76P7dXVtUonIEnAFhHb3/78KD//8pv8/P4P+eXX320SsSWx7cnk5pv0HAES255DPnBviCI7sGkEz7G6FhFq8SDYncKxh8T2cYa+5xFbVNjY3TtQ3SOKMsANQT05cwXdwt7IKY3E1p4jZVti63IpmV1ZWZTVlUXV2SKJDO4IUfRwSPWo7Q1ktt5oCEoyIgEOfrZwenj/+wf57Y8PuoVEod+NEdt+jwDfv1sIkNh2C9nheV0EJrDaZnhOTv364WwDv3UkN2N73id/9ccYhaGP2B4encrW7q5sb+/K9t6BhuMxoJAgoCNJximNxNaeI2VXYgvyh4Qx9KXFOVmcn5O5OSSPzahVHIo1+Lzee6CiZG61VlOrMtQSR4GGT2pltiV/ftiSPz5skdh+5TSkFOErARvy3Ulsh3wCPMLHR4ACFSMtnoOVt4OjY9na3pMtdbjZ04guI7aPADbc1W96iCTeav/wWD1GYZ6/tb2jGlsY5pdKFSmVSlKr98eK6VvgBLGdCgRURzg1FZC5eEztvpA4g44MeLt4d37L53PqMZC4/PzLe/l/SB77r0kew5I+5p/V+/HZYHkFCyztszMyNzerOtT5OVQdA7md0frbcL2GEhWJVrAnK6OwhPaSFjjZ2d2XT9u7soW+s6efrd8NyWOL83Hj4fxsUzXE+GwoXmIKmEyqQwKTx/o9Unz/r0WAxPZrEeP+nyOAVTX4p4PjGL5T1nLvHz/uyAcUEtra1mhuD+nYow7S0EdsB4nYouoYstnVdH86qDdyK+N9c31Ny6SS2D7q9+dBL3YCH9s/Pxof29/+lL2DQ6nVsJxvlvRh/dWPhvKz4dC0RMIhCYdDEo2EZCYWkZmZmMzGYPcV0Up2KOQwNjaulVtwvljRyJ+fa/GSbCYnkPMcnZyaJMyTM1skxqFm+NLSvJaTfvXiqVbgw/fBh3LTXq94fV71syWx7cfM43t2ggCJbSfo8VggQGLb23nAiG0HeCNSG42GJRIJK0nBjXxtZVltnNZWlzUqR2LbAcDfeChK0CKa+eHTjq4MQKB/jiflUmtloFz+xlfu7DBU4IL11WQAUUzjphEOhSQSCam+FmQXf4ctFiKgIIsg4dDVIlILUptp6bPgZwudFqQJdnjKxzmvLi/J29cvtL96+Uy/D/gM+CzoIOoktp3NIR7dewRIbHuP+aC9I4ltb0eUxLYDvKeDU60qUlHVR2JJ2RjwL8jy0oJG4kZRTJmtpwiABB4cHmly4u7BoRwfn2lZWpBAkEEQxX6QQZA6Jawt4ur1uJXcTk8HTQ9O6bK91+sVn8+r24tGQ9KZnKTSaUkmM/oZtDRwraa9Vq1Jf1x57w8pPHrX1pblh3dv5Pt3r5XcQloBUgBCiwg0HvLs8HWgxranX0fHvxmJreOHsO8fgMS2t0NAYtsB3lhWNjpJ6CahlZxVL09IEJAYhKVlO0SoOviIjjwUS/bGI/lMjo7P1HnjLGl8kmE3l0xl+kJsAaYhdyPq5wppApbp4YGsvaVHRTGDyUlT2ABSBNjg4bzxGUDKkYhgCjfA27a/+lp8FpBVuDlsrK3KTz+8lR++fyvfvXmlxNb6u9na4yGPxNaRX+u+nTSJbd+gH5g3JrHt7VCS2HaAN7SSILYgtIjWKrHVbVzm5+MSi4RtczPv4GM67lBknp7BCPssIdDbwhD7tsJdIinJZEqLHfS7geQieutvaVARpfX7fEp28TM6bGJyuYKkszmVIxSLpb6TWQs3SCtGRxGNHdWkN+jLf/gOEds38u7NS7Uys2MjsbXjqNj3nEhs7Ts2TjkzEtvejhSJbQd4k9h2AF4XD3UKsUUEE04JILfQoqKAg/6s3fx81bzSLFqYd4OQwQ6vHzKKz4fLnPu4uCagn52QyUm/Fp94++alvHv9UjW2kOfYsZHY2nFU7HtOJLb2HRunnBmJbW9HisS2A7xJbDsAr4uHOonYjo2Oyti4cUCANEG36ohgfobUAG4OKNKAAg2Xl03bEFtohGF55/F41e5ufXVJXr18Lq9fPJMXz55oYqUdG4mtHUfFvudEYmvfsXHKmZHY9nakSGw7wJvEtgPwungoiK3W5IYU4QxSBFOX2/zbPlIEQGBpTy3dbfu/LU3qnZ72yhYSCuu8J/0+jdSih4JBragGQgsv26dPNtTWzI6NxNaOo2LfcyKxte/YOOXMSGx7O1Ikth3gTWLbAXhdPLRYLEoildFkMSRcnSWTctLyfD06PlX9rR00tl2EoOsvDX0worTTwYAEpwJqVbaytChPNtfl6caarK+vqmevHRuJrR1Hxb7nRGJr37FxypmR2PZ2pEhsO8CbxLYD8Lp4KDSpGVhkZbKSzhhHAXjZotQuCoTYpahBFyHo+kuD2IK4ag9PqwMIrO7W11ZUawsv5+lgsOvn8S1vQGL7LagN7zEktsM79o/1yUlsHwvJh70Oie3DcPrbvUhsOwCvi4dWqlXJ5wuSg29tviDJdFr29g5ld+9AdvYOleD22yarix+/Jy8NJ4RoJCyxGDycUT0tKkvzc7KyvCQry4tKcoNTUz05l699ExLbr0VsuPcnsR3u8X+MT09i+xgoPvw1SGwfjtVf9iSx7QC8Lh5aq9XkvFhq9aKk0lnZ3tnTamRb23uys3dAYtsh/rjZz87GtLpePB6T+Cw8nOOytDAniwvzansHb147NhJbO46Kfc+JxNa+Y+OUMyOx7e1Ikdh2gDeJbQfgdfFQOAhUKhUpl6tSqlQkm83Jpy1TXhd9Z3dfmk2TiHVzc60uAzf9t7XtIiKP/9J6s5+Pm2IkC3O3Ps4oVIIen41pgQk7NhJbO46Kfc+JxNa+Y+OUMyOx7e1Ikdh2gDeJbQfgdfHQi8tLqdfqUqvXpVarSy6fl09bu4bYftqW7d09aTQu5bLZ1CpeILl28IbtIiSP/tKwIltqlY5eWV6Q5cV5jdpCmjAbi0o0GtGiDXZsJLZ2HBX7nhOJrX3HxilnRmLb25Eise0AbxLbDsDr4qEgq/B7vbi4kMvLC4H918dPhth+2tqWrZ09qdbq6gvbuLjQsrXU3H7dgMBnd211SdZWlmV9bVm1tbMzUbX4Qg+HQupxa8dGYmvHUbHvOZHY2ndsnHJmJLa9HSkS2w7wJrHtALwuHnrn+3otuKCAyLRHbEFsy+WKIMmsUq1pVBf7sT0cgYnxcS2hu7m5Jk82VmV9dUWTyKangxIMTmnimMftfvgL9nBPEtsegj0Ab0ViOwCD2OePQGLb2wEgse0AbxLbDsDr8qHt0gKQWJBZJI992t6Vnd09yZ8XpagJZmUpl8sa4WX7MgKw+LIKSbgmJuTpk3XTN9eV2EJ+EJj0a9IY9LUul8uWkILYbu/sy6dtSFN2ZGtnV0sWwyauVKpIuVJReQobEQACcACZn4vLM53vG/JkY00W5udkKoC5HpDA5KR4PG7B94ONCPwdAiS2vZ0XJLYd4E1i2wF4PTy0Wq3J/uGR2nztHRi7L/jbwus2k81JLl9QOQLbPyOAmzuIqtvtFrfLJT6fVzY3VmVzbVW3q8uLEgpNi9fr1b95PV6ZmBi3JaQgsHv7h0put3f3ZWdvX4ktHnBKZSQdgtjyQceWg9eHk0LEFsmQm+trOtfh1YwESRLbPgyGQ9+SxLa3A0di2wHeJLYdgNfDQ5FEhipkWl73zJTa1fK6p+bnZCqtcgS2f0YAJBWRqcnApG6ng1NahGENfXVJlhbmZWpqSlyuCXG7XUqCx8fGbAkpIrKHR8eyt3+kDzr7B0dSKpWliGhtucyIrS1HrX8nNTY6KjOxqKy2NOV4iJudnSGx7d+QOO6dSWx7O2Qkth3gTWLbAXg9PBQJYrlsXjLZrEZoEa1FBbJ9JTZHcnRyKpVKtYdn5Ly3QqQ2Ep7WxLBoNKzFGZbVFWFe3REQwfL7fIKkMjgmIMpl16VZaKtPTs/k8OhEO8bfitgWob1mxNZ5E7SLZ4y5jHm/vIT5vqA+zSC6jNh2EfQBe2kS294OKIltB3iT2HYAXg8PhX4Wy8/Q1CIyVzg/V80t9JVIKtvZP9Dfs/0zAj6vV+LxGZmfMz612MLDVrdzczIzExOv536yGPS4dmzVWk0SiaScIHp/mtBIvtHXGikCPJCpsbXjyPXnnPCABpkNio5gvs/HZ1VPTmLbn/Fw4ruS2PZ21EhsO8CbxLYD8Hp4KPSSIDPQ2sIFoVQqye7+oVYhg84Sy9GFwrnA//bi4lIuLy+H3v5rdHRERkcReR3VyCsSwhCpQqlcyA5QlCEWDUssGpFYNCrhUNC2yWKfT7VGo9GK3JvoPaL4Zm5UpVqtSr0Ol4zrHs5QvpWdEcAD2lQgcLtSgdWK6ekpXaHwafeK24XkMXs+yNkZ22E5NxLb3o40iW0HeJPYdgBeDw/FRQXJYSA09caFoOQupAggt3v7B3J4eCyZbF7KlapG60BwQHCHuWH5FXpZuB9MTExIaDooqyuL6lcLbS1kCMGpgASDAZmaCsjk5KTAAswJDQ8uliMGHBLwM+aGzhH4Gl80tCodGxEAAiC28GQGucWcnwpMit/v00RKWNphCw26XVcoOIr9R4DEtrdjQGLbAd4kth2A18ND4WtrKoyZKmMgL9BVGo3lsRwen0kqlZZ8vqAOCfnC+dAnk4HMej0evaGjY64jG3xzfUXW19fUBUH/5nGLx+NRpwSQYSc03GRq9YZGZlF+GYU6IFe5nSPwNGaNZScMZW/OcWREH9rwfYCtlyGzEzI+jg5N+biubJDY9mY4nPguJLa9HTUS2w7wJrHtALweHgpP2+ubG7m5vhbE4a6aV3IKjeXpmZxAY3makLNkUp0T4JCQTGXU8mmYy+ziBg4v2slJdJ8my2xurKlnLfra6rISWWSMj7a2Trmx40EH8wE3G3TMC50fmCfXZstGBCwEIDAYGR1tzXVIc5AYOdLydB6V0RHzMxsR+CcESGx7OzdIbDvAm8S2A/D6eCiIDbSViNIm0xklsrD9Oj45leOTMzk+Tch54VzJjpKgISQ7WGqF/EB7KChzMzOyvr6i1cY21lZlZXmRN/M+zmG+NREgAs5BgMS2t2NFYtsB3iS2HYDXx0MRkSucF9UdAUljkB/A3xaFG7QfnUg2m9OlaegxLy6bSnCHKZIHLSGcDuIzUZmdjWkm+CLsvZA8tjivzgiMUvVxEvOtiQARcAwCJLa9HSoS2w7wJrHtALw+HgqCqi4JLacEWD2dnaVkZ+9Advf2tSpVKp01GkxoMRtGgzlMxDYSDsvS4pySWJDZ+fm4zM7EZHZmRmZnoupjS2Lbx0nMtyYCRMAxCJDY9naoSGw7wJvEtgPw+nxoezIZiOtZIimftvdka3tXtnf35CyRMg4J6pRQ1YSzQc6U/5ykxmdisra2LJvrpoTo0sKcTIemJTSNHtTscBLbPk9ivj0RIAKOQIDEtrfDRGLbAd4kth2AZ6NDQXKRNLa9u699Z3dfpQmWFRTsoCpVeJs21d/U6G6d63MKQopuEr9MMoz1s+VbC6nBxuqybKyvyebGiszH461EMr8mlcG7k8TWRpOYp0IEiIBtESCx7e3QkNh2gDeJbQfg2ehQXHTyhYK6IyCJDKQ2mU5LLn8uee0F9Tqt1upSU3lCXT1PnSpNAIl1uV0t+yLLsssrXq/79ncovqBVlrSyWFwikfA9+y94d5LY2mgS81SIABGwLQIktr0dGhLbDvAmse0APBsdiugrZAfwr7V8bLO5vKlKlTHVqfD78/OinBdL2iFPwMXKiQ2+m7Dx0gILMJxvbYNTUxIMTum/Q8EpIzsIGWeEwOSkKdig3aXenSS2Thx9njMRIAK9RoDEtreIk9h2gDeJbQfg2ehQRF7hfqCJYvWGRmVBYhOwA0umdJtKZSSVyd6SXZBgSBic2EBMUQIX9e7vyuLiZ9Px+8CkX43oUXzB43YpmYVMAd61KLGLTmLrxNHnORMBItBrBEhse4s4iW0HeJPYdgCezQ41XrXG0gs6WhRoSKRSkgCxTaZb27ufM9mclt219LZ3x6Nolb1M/i1NrSGkIyopiMUiatk1F5/RLZLF4rMt14PZmPi8HhkZMQTWMqPHkFlklqTWZhOYp0MEiIBtESCx7e3QkNh2gDeJbQfg2fhQENNarS6ZXE6y2bx62qazOUmlM6aoQyoj2VxOE8oajYbqbbFVp4Wra00yQ+leu2hwQU7dbpe4XSgF6tJorHrTzsVVQwtiq5HaSEhg84UtIrQkrzaepDw1IkAEHIMAiW1vh4rEtgO8SWw7AM/Gh4KQIhoLf9tSyXQUdIDu1iK7uVzeuCaUKrf71BsgupdycdFQezBEfu3QJibGVSMbCEzqFprZeNwitnGZm52RaehoA36Zau03MTFhh1PnORABIkAEHI8AiW1vh5DEtgO8SWw7AM/mhyL6CnKq0diLC6lWqnJeLKpLQqFQlFyhICC3mVxeCS+iumX43lZrUqvVpFaty6VNNLiI0kbDYYlEQhKOhGQmamQIC/NwPUDhhRmZ9PsETgcmsgs97ZjNR4inRwSIABFwBgIktr0dJxLbDvAmse0APJsfiqitVUYX+lmQ23K5LMVSWcqI4BaLWp0M/rfJVEqSybQUiiUplStSKZelXEZRh8vPPqXR3t71v4JgyRfaZQyWRtba/hN0IyOWBhY+tWYvHOP1eiSuFcNiKkGAlhYlclVjOzcrM7GIeNweo6WFprblc2vzIeLpEQEiQAQcgQCJbW+HicS2A7xJbDsAz2GHIvqKSGy1WpNKtarJZblcQV0S0lljC4aILqQJ5XJJSqWKkuH2dnNtJA4Xl5fqwoCocDuBvbkRub65lmvV6V7J1fW1ks3x8QmBnMA1MSET4+MiLdJqvbZVYOHWtWBszDgYoPDC2Kh4vV7jeBAJ/60TQig8ra/NRgSIABEgAo+PAInt42P6pVckse0AbxLbDsBz2KG4MFlJYvXGhRZpgPYWOlv42haV1EKPWzHa3HJZ9bbt7fr6ykR0K4YYw1bsvg73RpPOLPJ7cXEh4+Nj4vP6ZHLSp3IB2G99ntSlhHfizmPW5RqXiQlYdE2Ia8KlEVvLr3YKXrW3vrXGwxbJZPClZSMCRIAIEIHHR4DE9vExJbHtEqYktl0C1oYvC1mCuh40m3LZvNKIK5wQjO8ttnUlqybhzGxBhNtb86qpUV4tAoFqZuWSElmrWUlrcGQA6cUWkdrpYFALJYRD0zIVmFS5QHuD3ywsvLR7Wx3+s16P+Fpbr6flSav7mZ9164VPrVttvdiIABEgAkTg8REgsX18TElsu4QpiW2XgLXhy97Xxhr97XVLhwvpACQElUrtzknhb4gtyLDliQtNbjafF0Rl24ktosEgyOiohjbhcmmyl9HGzii5vUdCR0T8GtH1t6K6fpn04+dW9/uU8FpFFW63KlWwfGpZbMGGU46nRASIwIAgQGLb24GkFKEDvElsOwDP4Yf+nUctIqzlalUdFEBKoaVtb5eXTeOFm8lIOp1Vh4WL5t0+eE1EeXF8Ga9RraqUAPNsZiYiM9Go2nJBd3vXRrSYgt/v0+7z+WTS5xW/33/7O0Rk/6nRq9bhE5GnTwSIgO0RILHt7RCR2HaAN4ltB+AN4KFIFoMkwZTmrd+TGeDjNq+upFA4l8I5elGjsp9LEW5L+6rMoa7aV9XEQo4wPSX+Sb+6FrQ32HRp+VstgWtJDszPiNbSk3YAJxs/EhEgAo5BgMS2t0NFYtsB3iS2HYA3gIeq/vYS/VI9bD8v0IDkMbgqVFvuCtDoQtJgNURsUbmseQnnBOh5L1VCAHLq83m1g8R+HmUF+bVcE8zPLv239vEJTUBjIwJEgAgQgf4gQGLbW9xJbDvAm8S2A/AG8FDL9xYXsXbCep+4XrWS0Mw+n9t93cDu6xoaXvz9RkZg96X2XeNKUFE44TO3LyW6o2PGfxZEGMll0M/q71s62gGEmx+JCBABIuAIBEhseztMJLYd4E1i2wF4Q3roDT43DGu70KiX7QKofEkiQASIQIcIkNh2COBXHk5i+5WAte9OYtsBeDyUCBABIkAEiMAQIEBi29tBJrHtAG8S2w7A46FEgAgQASJABIYAARLb3g4yiW0HeJPYdgAeDyUCRIAIEAEiMAQIkNj2dpBJbDvAm8S2A/B4KBEgAkSACBCBIUCAxLa3g0xi2wHeJLYdgMdDiQARIAJEgAgMAQIktr0dZBLbDvAmse0APB5KBIgAESACRGAIECCx7e0gk9h2gDeJbQfgO/pwhQAAIABJREFU8VAiQASIABEgAkOAAIltbweZxLYDvMOhaZmfi8vc3IzMxWdlfm5W5nUb158jkfBfyp928HY8lAgQASJABIgAEXAYAqhCWalWpVwuS6lckVKpLAeHx/Lx04583NqRT1s7ks0X7hXscdJHXF9dlp9+eCc//fid/N/372Rxcb6vFS9JbDuYPaHpoMzOxGR2NqbbeOvnuP57RkB8R0c/rxPVwRvyUCJABIgAESACRMBRCIDY1ut1Jbcoq16pVOXo+FS2dvZke2dPt/nCOYntI40qiW0HQE5NBSQWDUs0YnoM22jE9EhYpoNTWhKVjQgQASJABIgAERhOBFA+/eLiUhr1hjQaDak3GnJympC9gyPZ2z+Uvf0DKZyXSGwfaXqQ2HYA5OSkXxC1RWQW29D0tIRCQQmFpiU8HZTJwKSMjox28A48lAgQASJABIgAEXAyAtc313LVvJJms6n9stmUZDItB0cncnh0LIdHJ1IslUlsH2mQSWw7ANLn88pUYFKCUwGZCgRkampSEMU1PwfE7/PJyAgjth1AzEOJABEgAkSACDgagRu5UdJ6c30j1zc3gghuJpuTk5MzjdyenCWkXK6Q2D7SKJPYdgCkx+0Wv98rfr9PSaxutftl0ucTj9ctI0Ji2wHEPJQIEAEiQASIwEAhAKJbKBQlmcpIKm06tLcgv05sTB7TTMBtzQTc2t6Rk9OklJApWEKmYElq9YZjxnViYkK8Hrd4PG5xu93i9brF4/YICK/H4xGXa4IRW8eMJk+UCBABIkAEiED3EQCBLVeqUiicS+H8XElu46IhDuW1QmI7QMR2bGxMXBPjMj4+IRMT46bf/jwhY+NjJLbdv0bwHYgAESACRIAIOAYBENtG40KjtNVaTbfQ3jq1kdgOELGFfnYUfXRURkZHdav/HjM/4+/U2Dr1q8rzJgJEgAgQASLw+AiA2F5fXUkTvZVU5lQZAtAhsR0gYvv5dG8nsSS0j38x4CsSASJABIgAERgEBNqJrJNJLYntzY3sDzCxHYQvGz8DESACRIAIEAEiQAQeigAjtiS2D50r3I8IEAEiQASIABEgArZGgMSWxNbWE5QnRwSIABEgAkSACBCBhyJAYkti+9C5wv2IABEgAkSACBABImBrBEhsSWxtPUF5ckSACBABIkAEiAAReCgCJLYktg+dK9yPCBABIkAEiAARIAK2RoDElsTW1hOUJ0cEiAARIAJEgAgQgYciQGJLYvvQucL9iAARIAJEgAgQASJgawRIbElsbT1BeXJEgAgQASJABIgAEXgoAiS2JLYPnSvcjwgQASJABIgAESACtkaAxJbE1tYTlCdHBIgAESACRIAIEIGHIkBiS2L70LnC/YgAESACRIAIEAEiYGsESGxJbG09QXlyRIAIEAEiQASIABF4KAIktiS2D50r3I8IEAEiQASIABEgArZGgMSWxNbWE5QnRwSIABEgAkSACBCBhyJAYkti+9C5wv2IABEgAkSACBABImBrBEhsSWxtPUF5ckSACBABIkAEiAAReCgCJLYktg+dK9yPCBABIkAEiAARIAK2RoDElsTW1hOUJ0cEiAARIAJEgAgQgYciQGJLYvvQucL9iAARIAJEgAgQASJgawRIbElsbT1BeXJEgAgQASJABIgAEXgoAiS2JLYPnSvcjwgQASJABIgAESACtkaAxJbE1tYTlCdHBIgAESACRIAIEIGHIkBiS2L70LnC/YgAESACRIAIEAEiYGsESGxJbG09QXlyRIAIEAEiQASIABF4KAIktiS2D50r3I8IEAEiQASIABEgArZGgMSWxNbWE5QnRwSIABEgAkSACBCBhyJAYkti+9C5wv2IABEgAkSACBABImBrBEhsSWxtPUF5ckSACBABIkAEiAAReCgCJLYktg+dK9yPCBABIkAEiAARIAK2RoDElsTW1hOUJ0cEiAARIAJEgAgQgYciQGJLYvvQucL9/n/23oO9jeTYvy4iByZReaM3+F7bN9i+3v/3/xqvvcGbJG1QYEIOfJ9f9TQ4pCiJVA+HYQ58+w4pogfA6Vk8B4XqKghAAAIQgAAEIHCtCSC2iO21vkB5chCAAAQgAAEIQOC8BBBbxPa81wr3gwAEIAABCEAAAteaAGKL2F7rC5QnBwEIQAACEIAABM5LALFFbM97rXA/CEAAAhCAAAQgcK0JILaI7bW+QHlyEIAABCAAAQhA4LwEEFvE9rzXCveDAAQgAAEIQAAC15oAYovYXusLlCcHAQhAAAIQgAAEzksAsUVsz3utcD8IQAACEIAABCBwrQkgtojttb5AeXIQgAAEIAABCEDgvAQQ2wqI7dra2nmvB+4HAQhAAAIQgEBFCRwdHd34V47Y3mKxldDWajWr12p+1MBxb/x/s7wACEAAAhCAQGEE5LLL5dLHIjveZMFFbG+x2EpkW62mNZsNazWbVm80jOhtYe8FnAgCEIAABCBw4wlIYhfzuU1nM5vN5jadzlxyb+oNsb3FYluv163bbVu307FOp2PtduumXqc8bwhAAAIQgAAELonAZDK18Xhio/HYxqOxzReLS3qkyz8tYnvLxDakGqx5ykGj0bT19Z71+31b7/ddcteMfNvL/8+KR4AABCAAAQhcXwLHmbRHpojteDSxw8HADg8HNhgMPXp7U2+I7S0S21ptzRr1utUbdVO0VlHarc0N29zc9ON6v0cqwk39L5XnDQEIQAACECiAgERWY7nUCLm1EtrdvT17tbvvx8lkYjd1Hxlie4vEVvm0vW7Xut2Odbtd29xYtzt3tm1nZ9t2trf997UaEdsC3hc4BQQgAAEIQOBGEjhaHtl8Mfd82jBm9urVrv36+3P77bfn9utvv9twNHb5vYk3xPYWiW2/17PtrU3bysbOnS27f++u3b9/14/629pa7SZepzxnCEAAAhCAAAQKIKAI7XQWcmrDGLvM/vTkmf3881P76eendnA4QGwLYK1TrB2V+BFBD/X9LRJbiasE9sH9ey6zDx7cs0cPHtjjRw/s0cP7tnNn20t+cYMABCAAAQhAoJoEFouFjcYTz6UdDId+/OnJU/v23z/Yd999b99+94Pt7u0jtgVdHohtAkiJ6+PHD+2DRw/t8WMJ7UP78NEj++CDR/bB44d27+4OObYJfJkKAQhAAAIQuOkEJLaD4cgODw/tQONgYN//+JP981/f2j+//s7+9fW39vLVLmJb0EIjtgkg7+7cCWLrI8jsh34McnsfsU2gy1QIQAACEIDAzScQxfbg4CAT20P79w8/2T//+a39f19/a//6+ht78RKxLWqlEdsEkohtAjymQgACEIAABCpAALEtd5ER2wTeiG0CPKZCAAIQgAAEKkAAsS13kRHbBN6IbQI8pkIAAhCAAAQqQACxLXeREdsE3ohtAjymQgACEIAABCpAALEtd5ER2wTeiG0CPKZCAAIQgAAEKkAAsS13kRHbBN6IbQI8pkIAAhCAAAQqQACxLXeREdsE3ohtAjymQgACEIAABCpAALEtd5ER2wTeiG0CPKZCAAIQgAAEKkAAsS13kRHbBN6IbQI8pkIAAhCAAAQqQACxLXeREdsE3ohtAjymQgACEIAABCpAALEtd5ER2wTeiG0CPKZCAAIQgAAEKkAAsS13kRHbBN6IbQI8pkIAAhCAAAQqQACxLXeREdsE3ohtAjymQgACEIAABCpAALEtd5ER2wTeiG0CPKZCAAIQgAAEKkAAsS13kRHbBN6IbQI8pkIAAhCAAAQqQACxLXeREdsE3ohtAjymQgACEIAABCpAALEtd5ER2wTeiG0CPKZCAAIQgAAEKkAAsS13kRHbBN6IbQI8pkIAAhCAAAQqQACxLXeREdsE3ohtAjymQgACEIAABCpAALEtd5ER2wTeiG0CPKZCAAIQgAAEKkAAsS13kRHbBN6IbQI8pkIAAhCAAAQqQACxLXeREdsE3ohtAjymQgACEIAABCpAALEtd5ER2wTeiG0CPKZCAAIQgAAEKkAAsS13kRHbBN6IbQI8pkIAAhCAAAQqQACxLXeREdsE3ohtAjymQgACEIAABCpAALEtd5ER2wTeiG0CPKZCAAIQgAAEKkAAsS13kRHbBN6IbQI8pkIAAhCAAAQqQACxLXeREdsE3ohtAjymQgACEIAABCpAALEtd5ER2wTeiG0CPKZCAAIQgAAEKkAAsS13kRHbBN6IbQI8pkIAAhCAAAQqQACxLXeREdsE3ohtAjymQgACEIAABCpAALEtd5ER2wTeiG0CPKZCAAIQgAAEKkAAsS13kRHbBN6IbQI8pkIAAhCAAAQqQACxLXeREdsE3ohtAjymQgACEIAABCpAALEtd5ER2wTeiG0CPKZCAAIQgAAEKkAAsS13kRHbBN6IbQI8pkIAAhCAAAQqQACxLXeREdsE3ohtAjymQgACEIAABCpAALEtd5ER2wTeiG0CPKZCAAIQgAAEKkAAsS13kRHbBN6IbQI8pkIAAhCAAAQqQACxLXeREdsE3ohtAjymQgACEIAABCpAALEtd5ER2wTeiG0CPKZCAAIQgAAEKkAAsS13kRHbBN6IbQI8pkIAAhCAAAQqQACxLXeREdsE3ohtAjymQgACEIAABCpAALEtd5ER2wTeiG0CPKZCAAIQgAAEKkAAsS13kRHbBN6IbQI8pkIAAhCAAAQqQACxLXeREdsE3ohtAjymQgACEIAABCpAALEtd5ER2wTeiG0CPKZCAAIQgAAEKkAAsS13kRHbBN6IbQI8pkIAAhCAAAQqQACxLXeREdsE3ohtAjymQgACEIAABCpAALEtd5ER2wTeiG0CPKZCAAIQgAAEKkAAsS13kRHbBN6IbQI8pkIAAhCAAAQqQACxLXeREdsE3ohtAjymQgACEIAABCpAALEtd5ER2wTeiG0CPKZCAAIQgAAEKkAAsS13kRHbBN6IbQI8pkIAAhCAAAQqQACxLXeREdsE3ohtAjymQgACEIAABCpAALEtd5ER2wTeiG0CPKZCAAIQgAAEKkAAsS13kRHbBN6IbQI8pkIAAhCAAAQqQACxLXeREdsE3ohtAjymQgACEIAABCpAALEtd5ER2wTeiG0CPKZCAAIQgAAEKkAAsS13kRHbBN6IbQI8pkIAAhCAAAQqQACxLXeREdsE3ohtAjymQgACEIAABCpAALEtd5ER2wTeiG0CPKZCAAIQgAAEKkAAsS13kRHbBN6IbQI8pkIAAhCAAAQqQACxLXeREdsE3ohtAjymQgACEIAABCpAALEtd5ER2wTeiG0CPKZCAAIQgAAEKkAAsS13kRHbBN6IbQI8pkIAAhCAAAQqQACxLXeREdsE3ohtAjymQgACEIAABCpAALEtd5ER2wTeiG0CPKZCAAIQgAAEKkAAsS13kRHbBN6IbQI8pkIAAhCAAAQqQACxLXeREdsE3ohtAjymQgACEIAABCpAALEtd5ER2wTeiG0CPKZCAAIQgAAEKkAAsS13kRHbBN6IbQI8pkIAAhCAAAQqQACxLXeREdsE3ohtAjymQgACEIAABCpAALEtd5ER2wTeiG0CPKZCAAIQgAAEKkAAsS13kRHbBN6IbQI8pkIAAhCAAAQqQACxLXeREdsE3ohtAjymQgACEIAABCpAALEtd5ER2wTeiG0CPKZCAAIQgAAEKkAAsS13kRHbBN6IbQI8pkIAAhCAAAQqQACxLXeREdsE3ohtAjymQgACEIAABCpAALEtd5ER2wTeiG0CPKZCAAIQgAAEKkAAsS13kRHbBN6IbQI8pkIAAhCAAAQqQACxLXeREdsE3ohtAjymQgACEIAABCpAALEtd5ER2wTeiG0CPKZCAAIQgAAEKkAAsS13kRHbBN6IbQI8pkIAAhCAAAQqQACxLXeREdsE3ohtAjymQgACEIAABCpAALEtd5ER2wTeiG0CPKZCAAIQgAAEKkAAsS13kRHbBN6IbQI8pkIAAhCAAAQqQACxLXeREdsE3ohtAjymQgACEIAABCpAALEtd5ER2wTeiG0CPKZCAAIQgAAEKkAAsS13kRHbBN6IbQI8pkIAAhCAAAQqQACxLXeREdsE3ohtAjymQgACEIAABCpAALEtd5ER2wTeiG0CPKZCAAIQgAAEKkAAsS13kRHbBN6IbQI8pkIAAhCAAAQqQACxLXeREdsE3ohtAjymQgACEIAABCpAALEtd5ER2wTeiG0CPKZCAAIQgAAEKkAAsS13kRHbBN6IbQI8pkIAAhCAAAQqQACxLXeREdsE3ohtAjymQgACEIAABCpAALEtd5ER2wTeiG0CPKZCAAIQgAAEKkAAsS13kRHbBN6IbQI8pkIAAhCAAAQqQACxLXeREdsE3ohtAjymQgACEIAABCpAALEtd5ER2wTeiG0CPKZCAAIQgAAEKkAAsS13kRHbBN6IbQI8pkIAAhCAAAQqQACxLXeREdsE3ohtAjymQgACEIAABCpAALEtd5ER2wTeiG0CPKZCAAIQgAAEKkAAsS13kRHbBN6IbQI8pkIAAhCAAAQqQACxLXeREdsE3ohtAjymQgACEIAABCpAALEtd5ER2wTeiG0CPKZCAAIQgAAEKkAAsS13kRHbBN6IbQI8pkIAAhCAAAQqQACxLXeREdsE3ohtAjymQgACEIAABCpAALEtd5ER2wTeiG0CPKZCAAIQgAAEKkAAsS13kRHbBN6IbQI8pkIAAhCAAAQqQACxLXeREdsE3ohtAjymQgACEIAABCpAALEtd5ER2wTeiG0CPKZCAAIQgAAEKkAAsS13kRHbBN6IbQI8pkIAAhCAAAQqQACxLXeREdsE3ohtAjymQgACEIAABCpAALEtd5ER2wTeiG0CPKZCAAIQgAAEKkAAsS13kRHbBN6IbQI8pkIAAhCAAAQqQACxLXeREdsE3ohtAjymQgACEIAABCpAALEtd5ER2wTeiG0CPKZCAAIQgAAEKkAAsS13kRHbBN6IbQI8pkIAAhCAAAQqQACxLXeREdsE3ohtAjymQgACEIAABCpAALEtd5ER2wTeiG0CPKZCAAIQgAAEKkAAsS13kRHbBN6IbQI8pkIAAhCAAAQqQACxLXeREdsE3ohtAjymQgACEIAABCpAALEtd5ER2wTeiG0CPKZCAAIQgAAEKkAAsS13kRHbBN6IbQI8pkIAAhCAAAQqQACxLXeREdsE3ohtAjymQgACEIAABCpAALEtd5ER2wTeiG0CPKZCAAIQgAAEKkAAsS13kRHbBN6IbQI8pkIAAhCAAAQqQACxLXeREdsE3ohtAjymQgACEIAABCpAALEtd5ER2wTeiG0CPKZCAAIQgAAEKkAAsS13kRHbBN6IbQI8pkIAAhCAAAQqQACxLXeREdsE3ohtAjymQgACEIAABCpAALEtd5ER2wTeiG0CPKZCAAIQgAAEKkAAsS13kRHbBN6IbQI8pkIAAhCAAAQqQACxLXeREdsE3ohtAjymQgACEIAABCpAALEtd5ER2wTeiG0CPKZCAAIQgAAEKkAAsS13kRHbBN6IbQI8pkIAAhCAAAQqQACxLXeREdsE3ohtAjymQgACEIAABCpAALEtd5ER2wTeiG0CPKZCAAIQgAAEKkAAsS13kRHbBN6IbQI8pkIAAhCAAAQqQACxLXeREdsE3ohtAjymQgACEIAABCpAALEtd5ER2wTeiG0CPKZCAAIQgAAEKkAAsS13kRHbBN6IbQI8pkIAAhCAAAQqQACxLXeREdsE3ohtAjymQgACEIAABCpAALEtd5ER2wTeiG0CPKZCAAIQgAAEKkAAsS13kRHbBN6IbQI8pkIAAhCAAAQqQACxLXeREdsE3ohtAjymQgACEIAABCpAALEtd5ER2wTeiG0CPKZCAAIQgAAEKkAAsS13kRHbBN6IbQI8pkIAAhCAAAQqQACxLXeREdsE3ohtAjymQgACEIAABCpAALEtd5ER2wTeiG0CPKZCAAIQgAAEKkAAsS13kRHbBN6IbQI8pkIAAhCAAAQqQACxLXeREdsE3ohtAjymQgACEIAABCpAALEtd5ER2wTeiG0CPKZCAAIQgAAEKkAAsS13kRHbBN6IbQI8pkIAAhCAAAQqQACxLXeREdsE3ohtAjymQgACEIAABCpAALEtd5ER2wTeiG0CPKZCAAIQgAAEKkAAsS13kRHbBN6IbQI8pkIAAhCAAAQqQACxLXeREdsE3ohtAjymQgACEIAABCpAALEtd5ER2wTeiG0CPKZCAAIQgAAEKkAAsS13kRHbBN6IbQI8pkIAAhCAAAQqQACxLXeREdsE3ohtAjymQgACEIAABCpAALEtd5ER2wTeiG0CPKZCAAIQgAAEKkAAsS13kRHbBN6IbQI8pkIAAhCAAAQqQACxLXeREdsE3ohtAjymQgACEIAABCpAALEtd5ER2wTeiG0CPKZCAAIQgAAEKkAAsS13kRHbBN6IbQI8pkIAAhCAAAQqQACxLXeREdsE3ohtAjymQgACEIAABCpAALEtd5ER2wTeiG0CPKZCAAIQgAAEKkAAsS13kRHbBN6IbQI8pkIAAhCAAAQqQACxLXeREdsE3ohtAjymQgACEIAABCpAALEtd5ER2wTeiG0CPKZCAAIQgAAEKkAAsS13kRHbBN6IbQI8pkIAAhCAAAQqQACxLXeREdsE3ohtAjymQgACEIAABCpAALEtd5ER2wTeiG0CPKZCAAIQgAAEKkAAsS13kRHbBN6IbQI8pkIAAhCAAAQqQACxLXeREdsE3ohtAjymQgACEIAABCpAALEtd5ER2wTeiG0CPKZCAAIQgAAEKkAAsS13kRHbBN6IbQI8pkIAAhCAAAQqQACxLXeREdsE3ohtAjymQgACEIAABCpAALEtd5ER2wTeiG0CPKZCAAIQgAAEKkAAsS13kRHbBN6IbQI8pkIAAhCAAAQqQACxLXeREdsE3ohtAjymQgACEIAABCpAALEtd5ER2wTeiG0CPKZCAAIQgAAEKkAAsS13kRHbBN6IbQI8pkIAAhCAAAQqQACxLXeREdsE3ohtAjymQgACEIAABCpAALEtd5ER2wTeiG0CPKZCAAIQgAAEKkAAsS13kRHbBN6IbQI8pkIAAhCAAAQqQACxLXeREdsE3ohtAjymQgACEIAABCpAALEtd5ER2wTeiG0CPKZCAAIQgAAEKkAAsS13kRHbBN6IbQI8pkIAAhCAAAQqQACxLXeREdsE3ohtAjymQgACEIAABCpAALEtd5ER2wTeiG0CPKZCAAIQgAAEKkAAsS13kRHbBN6IbQI8pkIAAhCAAAQqQACxLXeREdsE3ohtAjymQgACEIAABCpAALEtd5ER2wTeiG0CPKZCAAIQgAAEKkAAsS13kRHbBN6IbQI8pkIAAhCAAAQqQACxLXeREdsE3ohtAjymQgACEIAABCpAALEtd5ER2wTeiG0CPKZCAAIQgAAEKkAAsS13kRHbBN6IbQI8pkIAAhCAAAQqQACxLXeREdsE3ohtAjymQgACEIAABCpAALEtd5ER2wTeiG0CPKZCAAIQgAAEKkAAsS13kRHbBN6IbQI8pkIAAhCAAAQqQACxLXeREdsE3ohtAjymQgACEIAABCpAALEtd5ER2wTeiG0CPKZCAAIQgAAEKkAAsS13kRHbBN6IbQI8pt56AkdHR2e+xjf9+7uAvO+8d52Xv79OYG1t7b2xvGluyjnf+8kwEQLXgABiW+4iILYJvBHbBHhMvfEE3iWu8e86vm0IRP6++d9PQ0JuL/+yOY+YxvvUajV/Qvo9/lv8OX+M98kfT78SxPfy15ZHuBoCiG253BHbBN6IbQI8pt54AnnJjOIapTQvssvl0t40dL/4t9PyexHhvfEwr9ELyAtqfFpniaukVv+uY/y5Xq/7v8Vj/Fv8+0peMxHOx4UR22t0EfBUCiWA2BaK850nQ2zfiejNd0BsE+Ax9cYTOCvKKkmNgqqf9YYex+nfT//7RQT3LOm98UCv6AXkhfJ01DUvtnk5jfIqgdW/63jWyP/thNxmQuwR3OxBENsrugB42EsngNheOuITD4DYJvBGbBPgMfVGEzgdodWLiVKbj87O53N705jNZivp1X305n9ajM+KBCO1xV86p6O0p9MI8lJ6WmQbjYZLrY5njfi3KMFruUjvSmwVwc1SGop/dZwRAldLALEtlz9im8AbsU2Ax9RrTeB0LutZObJRRPNR2fhzlFnJq37WMY7877p/lNo4Nx/xRWzLuUzOK7b51IIotBLWZrO5ktr481lHj+pKgLMIby1GerN0htMpC6ejuER1y7keeJRiCSC2xfJ819kQ23cResvfEdsEeEy91gTOSjM4LbCTycTyYzqd+u86nh6npTaKb/6c+rd8xDYv0zFKe9bmMTaUpV9K70pHiLm0+ZzafOpBjNTG6Kyk9vRotVrWbrdXo5X7udNum/6eP2eUXI/qZlUaENv0teYM5RNAbMtljtgm8EZsE+Ax9VoTOB0plXDm5VTiOhgMbDgc+jGO0Wjk/6bjeDw+IbpxfozS5tMP8vm2p6spRKnNH681vBv+5N62eSwvtjF6e5bgSnQltpLVODqdjvV6vePR79t6v2/99XU/6m+6b5yr45sqK9xwxDz9ihFAbMtdcMQ2gTdimwCPqdeawGmx1RtzjM5KaiWte3t7q7G/v28aBwcHqyHBPR3RPZ12kE9nyEdr3xShJTpbzmVzVgpAXnjzKQnx53xqgn6OEdp47PX7trG+bhsbG7axuWlbGtvbtq2xtWWbm5sm+c3Pe1dqQjk0eBQIpBFAbNP4XXQ2YntRYrn7I7YJ8Jh6rQicTj2IFQziUdHWGInVUePVq1c+dnd3fUS5jYJ7Wmzzm8VOR2jzFRGI0F6rS8OfzJtycE8L7um8W6UexIhtX2K7seECq7G1tWU7Ozt2584dH/pd91Hkttvt+sifLz5W/vmcJkWqwvURVwyzAAAgAElEQVS7dnhG5htjB8NR+NB/eGgHB4f27x9+sn/+81v7/77+1v719Tf24uXuqp73TWP2+R8+sa/+76/21T/+Zv/v73+1jz76wBqN+pW9DMQ2AT1imwCPqdeGQJTafMRUEhrzZXVUaoHelBWljQJ7OmJ7eHi4SkmQ1CqqG3Nt4yYyvcHH2rX5n8/Kp80L7rWBVdEn8rbNZW9KT4gpBTHXVtFYiWscUW4ltIra6qh/84huNjQnH8WN6Qmv1cXNrQtyW9GL9Bq/bMS23MVBbBN4I7YJ8Jh6bQjkqxDEyKmkNC+qktmXL1/aixcv/Kgh0dV94lHye1bqQdwoli8HFuU2yutpsY1wSD24HpfJm6oTxBzY0+XA8nVuY9Q1phhIVBXJVWR2PaYmZJHcGL2NkVwJru4Th84Ry43lI7h5Sojt9bhmeBbHBBDbcq8GxDaBN2KbAI+p14ZAPoIaUw+0GSymGOgoof31119X4/fffz+xeUxSq+js6Y1hb+oslhfat0VmEdvrcZm8TRaj3OqZ5n8+3ZnsdK1bSarSDeKGMknsvXv37MGDB6sh0ZXkKqKro6Q4n56gc56+IbbX45rhWSC2V3UNILYJ5BHbBHhMLY3Au0pk6e95IVWEVWkGklkJ7PPnz+23336zp0+f2rNnz/woyY2VDxTd1YgR2dPSmhJ9RWxLu0ze+kDvI4vvivLGDWYxgquorKT20aNH9vjxYx/3798/MZTGICGO6Q1RbN9UDux9nvf1IM6zuE0EiNiWu5qIbQJvxDYBHlNLI/CuZgux4kHcHCZhVapBFFrJrcQ2/7ukN18lQTm0EltuEDgvAUV0Y0kwHRW5vXv3rkdt80Ir2Y2/Kw83RngV7ZUUxxxfSW4+YhyfB3J73hXhfpdFALG9LLJnnxexTeCN2CbAY2ppBM4S25hyECO1ypVVykHcECaJldAqMhujtvpbvI9ybvNdxeJGsNJeFA904wlIOPONHZR3q3QEL/+VbSY7LbhKR5DcxqEIbv4cUW4Fh6YON/4SuTUvALEtdykR2wTeiG0CPKaWRuAssY0bunRU5FVluySwcShCqxHzavX3WOZLEV2NWIM2bjgr7QXxQLeCQIyuRhmVoCoKmy/5dVbkVhHdOCS4sZxYTE84q4LDrQDGi7ixBBDbcpcOsU3gjdgmwGNqaQROi22+i5iirpJUCe3PP/9sT5488aFc2rzYKlKbl2EitKUtX2UeSKkJ+RJh+lmpCZLbmI4Q828/+OADz8WV4MYc3VgWTOchYluZy+ZGvFDEttxlQmwTeCO2CfCYWhqBfCkt/SxBja1vFYVVuS5FZiW0klsNSa3yaDWUlqBUhRiZzW8SK+1FFPpAa/qiOnxVrZH/Of977jF1r7JvR2c8oH9I0bBwDB9asmP8d/3tBt7y9XAltRLUWA1BKQiSXAmupFZDm8v0e6yLq81nsWpCPBc5tzfwQriFTxmxLXdREdsE3ohtAjymlkYgL6T6WakHktlYzktpBr/88ouLrSoe6CihzXcSkwifFuTSXkAhDySJ9TheJrR1W6vVbG2tbramYxz6PbtPfFz9XshzuPhJjqPtQVZXrY6XSzs6CsP8qMYXi+znY/G9+CNe7Yx8JzNJaWzUELuVKXobKyZEsY05uTpKbpWSoPSGON5UneFqXymPXiUCiG25q43YJvBGbBPgMbU0Aqc3isWqBzGfVtFaiW0s5SW51Uax2D0s1qg9IValPfuCHmhNX0+HCK1LbE0RwYYfffiOesluJrwWvs52Fc6EuKBncoHTKBLr1P3/gtkGiV1KZCW3Swnt3JaLuR0ts+Gym4vsXuARr/quMcIaj7G1bmyzq6htTEd4+PDhKh0hVlKQ3GoTmuQ21ruNqQnH63lVH1Oumi6Pf1UEENtyySO2CbwR2wR4TC2NQKx8oHxaDTVfiKkHktg4otxKcHUfpSzEuTre3FsUWh0zqa03rVZvWa2hTlYtq9UluFFsJblRbIMEXUXM9mgltMepBYrQLiWwLrILPy6XU1suZrZchGOI4obWxRLhm3bLR1jjhrBYu1biGoVWgqufFbmNsquIbsy1jXMQ25t2Bdy+54vYlrumiG0Cb8Q2AR5TL43A6c1ielNVA4VYd1YpBpLZH3/80cdPP/3kEdtYCUFH3TfWpb3xTRLWaqvorEdp602rNzpWa3aspmOjbfV609Zqkt0Qyc3CtFnqQlDbq7it2K9yaZd2JIldSmgVqZ3Zcj62xWzix+Vc6zbz6O0yE1+zmye3kXVsn6u0Av2s1IR8XVsJ7Ycffujjo48+ctFVzm1+Q9m7mjhcxbrymNUigNiWu96IbQJvxDYBHlMvjUCUoZiPqcirNn8pCqujmi8ojzYvtkpLUM6t8m31d7XH1e3mSu2xiNaiyDY6Vm+2rd7sWr3V99HQsdkz3adWa9paJrbKvz2WWaUvXNpyvfHEJ9MQQt6sb9xbHkdnFaVdTIe2mA1tPh34cTELgruQ5LroznPpDDdrY5mit1FqJbZKSVCb3dhqVykIElqNjz/+2KO3yseV3CrfVvdXSsLpFIfyV5NHrDIBxLbc1UdsE3gjtgnwmHppBE5v8lL0NW4U01FVDhSl/eGHH3yoCoKENoqv5FcpCzf3FjeIhUirorONtgS2b432ujXaGz6anU1rtDXWs5QERWwluA0zpSU4gCwJ4YrMNqYj+FHVD5aLE2kHitLOJwc2mxz4cT4+CII7HdhMwjsd+P09NzerpHCcsHv9VzgKqaRWPysSK2GVvCp6q2oJElqNTz75xMU238RB91FKwtuqJFx/CjzDm04AsS13BRHbBN6IbQI8pl4aAYltLMmln7X5K3YS01FpB1Fsv//+e4/eqkpCPl3hRrfHjRvEss1i9VbPmp2tMLrb1uxs+7HV0893rNXdDvm2PoLcei5uXm2vIGJ7HDGPZb3kp0o/UC7tNERlZ2ObjfdsOn5ls9Gezca7Nhvvh58n+zYf73vkdlU9wdse37yobcy7Vc5t3FCmoxo0fPrppy61OiolQXm2sTyY/p5vuxsF+dL+4+PEEDiDAGJb7mWB2CbwRmwT4DH10gicLu+lSKxkNl/5IIqt0hEktqqAEDeK3fg6tb5BrG41bQCr1a3RWrdWb8davbvW7t/1Y/g9G907tpaTWqUkmCKE+Yjtpa3W20+8qlPrd8sitvNMbJdTm09HNh+9sqnGMB5f2nT00qZDjVe2mI2y6gmqpBBKgt3Um9ISJLex25iit1FqdVTkVnm2MQ9XqQoS4HwZsdObyW4qC573zSGA2Ja7VohtAm/ENgEeUy+NQBTU2ClM0djYVSwe89UQVCFBUd0oxDe9AoKktq5qB1nlA0Vq2+v3rb3+IIzevRC59bFljfZWqIiQq2frZcFyK3RFAdtVjvNR9mxC7dqsIoLSEubjkIYwVrRWY9/Gh7/bZPCbTXQ8fG7z6eFxxYTFNMjtDb3F7mSxQ5lyaNWsIW4gyzdv0M8SXMmvhFhzYuOHG/ryedo3lABiW+7CIbYJvBHbBHhMvRQCsbOYcmS1AUxDebWKzOZzaiWzqn6gTWNqxhCrIMQ0hkt5cqWcdM2FttHsWk2bxJoda/d3rL3+yLqbj6298dglt+m5tSHXVjm2ISC6KhabfVsffl+7wq/uXWhP1dENpW1DnVpVQNDmMcmr59hOD228/4uNDp7ZeP+ZjQ9+cdldzsa2UPWE+dirKtzUW9xMFpsvKM1AEdo4VCUhbiRT9FZyq3zcWDYsNm+4qa+f530zCSC25a4bYpvAG7FNgMfUSyEgMZXUxnxZHVXl4LvvvlsNpSEo1zZWQFAzhrhZbNXZ6lKeXQkn9V30YbOYbxRr9V1ku5sfWnf7I+tufeRR22Zr3asheHWEZvfEV/XewWuVi5p18Srhqb/xIXLNJUIkOXRJUx6w17WdjW0+H/lGMaUdjPZ+9jHcDUelKQT51aayoUdvb+otX91A0VulJCjdQDm1OipCq1zbP/zhD/bZZ595moLybNW0QffVMZb/uqkMeN43jwBiW+6aIbYJvBHbBHhMvRQCElNFX5VaoLxZ5ddKYr/55hsf3377rW8ck+wqRUE1bVUFQW+8N7e01zFKj+g142axTa980Nl4ZN3tj623/YkPia2X/Mpq2Nbq7eyr+qw8VvZ1/ZHqv2b1Y69uw1XWVCITWc8dVlkyr7nbDPFklfzyDWUTfx3D3R9t+Erjexu++skmg+chmuvj0KO2N/l2uoGDmjZIXnWU3Epqv/zySx/6WdKryG4cSkfgBoEyCSC2ZdI2Q2wTeCO2CfCYWhiBvJDqZ0VpJa0SVomr0g2i1OqoPFtFaWNtW0nwzc6rzYttzeqtdWv37vjmsGZvx7oS2y2JbRit/v1VWS/VrbW1ui1moUSWxG8+G4TOXr7JKlYkuKJKAl7hIeuEpkYT9ZanV9QbXav5aLp8H1c9WNhw7ycbvvohjN0fPdd2NlK1BFVP2LPFdJQBu6LXVNiVbx59VUkvDeXSquWuZPaPf/yjD0VtJbvKxVVt23xd2wKfBqeCwFsJILblXiCIbQJvxDYBHlMLI3C6IYMitfm6tcqnzacixPJeup+kViJ8o8t7rUhKAmvW6Gxae/2etfv3fXQ2H1tPqQhbSkX40IU3NGAIN9V3nQ13bZZVF5AAqpRW4KrNWldXRcCjk2vqhlZ3AZfUqspDzA9W5Dl0SlM74JCiMNp/EiK2uz/YaPcnmxz+apOBqiaESglKSTi+3Wy5jU0bJKyqfqCorWRWUvsf//Ef9vnnn3v5ryi/OirPNh/1Lew/RE4EgTcQQGzLvTQQ2wTeiG0CPKYWRiAvthJURWK1IUwj1q3997//bapZq+OzZ888RSHm4WqD2c0X26w4V63hdWk7Gw/DWH/kYtvZ/MC62VA1BKUZhA5eSsGY2+TgVxsf/mbTw99sMnhhi/kwiK1XELjCPFsvXdbIRt0azb5Xcmh2d6zVveOb4FxuG+1Ve+Dx/lMb7v5ko70fXWy1gUzVESYDVUt4brPxYa6W7c0WWwmq8mbj0EYxRWwltZLbL774wjeWxVQFiW9s2FDYf4CcCALvIIDYlnuJILYJvBHbBHhMLYxAfsOXBFVpBqp4oKForUp7xYoIklv9u6K1ElptGtO4+fm1oduYJFAR2Six3a0PgthuSG4fWWfjA492hiYH46z97NhGe0/C2H/iVQWUlrD6el+5tldUGcFLkHlObcPWVO1BaRb942i0XmvsnhY2y23Y+OCpjbRxbP8nP6o6wujgV4/cjg9+85QEj1Sv8ocLuxRLP5HWPJbx0lHpBlFsJbfKs1WlBOXZxqFc2/yN6G3py1a5B0Rsy11yxDaBN2KbAI+phRHIN1TQG6jSEBSVjUOpB9owppJfOkpsFa2V0KrW7W3YOOZVAtQrrNbwJgxKOegp9WD7oyC2itxuPPSyX6qY4KWvVClAubWzgW+y0lf3inSOd5/41/VeHSFLRyhssS56IuXVSmzrIWqrCK02v2lDXHv9oadahG5qiuKG7mqK0I5VGWFfsq7KCKHsVyz/NR1JbEOk9qbLbWyVq5QE5dsqJUGVEBStldQqYquSX8qzVUqChlIW8jKL2F70ouT+FyWA2F6UWNr9EdsEfohtAjymFkYg3z5XoqoyXpLZ2Iwh/hx/V3qCxPbWdBqT0mZiq3zTVv+ubxKT1OqoaK0kMIjtQ2u0eraYDcNGsalqvx7Y4GW22UqVBPZ+tvlkkNuUdYVf1/uGsZiK0MyqPOi1PPZNce2NB9bq7lizq81yd/yotAqX2v2nNna51fFZ9vsvNh3t3hqx1X9EsauYBFViqzq2yrNVfq2it/pdUVuNx48f+30Q28LefjjROQggtueAVOBdENsEmIhtAjymFkYg30JXYqtSXorOxiGhVfRWKQk66u8qCaY3W829DRURVmJbb2Ziq9JeH1vvzieZ2KrrmMT2vjWaPW9kMJvseccujcHLf9vg5fd+VNR2JrG96ooImbArUithV3UERWeVUqFUC+UNu6z37oU2wf3QNnhy+JtL7ORAQvvURpLavadZqsUzb7N7WyK2+o8oX9tW0VjJq2rZasQ2u+pMJsHVUdUT4pw4v7D/GDkRBM4ggNiWe1kgtgm8EdsEeEwtjEAUVEmqxFYR2bhZTDm1Sj9Qru0vv/ziQ6kKccPYze80FjDGhgUesV2/7/Vq+3dC3VoJoFdIUFvd/n3fbDWb7HsVhPn4lR8PX3xngxff2eHL72zw8kcX3yC2hS3Te50o5NiGqghraw0X2+7WY+tkqRaS3Hb/gefdtnp6jfdCK111HjsM3cckucPdmJbw9NaJbQQbN5Jps1jsPqaj5DaKro6qjIDYvtflyKT3JIDYvie495yG2L4nOE1DbBPgMbUwAnrTjEN5s6pbq/JeklsNRW7jZjL9TWIbN4zl83MLe0KlnyhsHFMnLn1tL9FTpDaI7aeeY6vatZ1MbGuNjs0muzYbSmpf+jh4LrH91g5ffGuDVz/YbCKxvbI9YyuCXsJLYuvlvOqh4sPWB1npMpUv+8BzboO46/jApoPfbexi+4tNVmKrXNuwQW4SI7Ze//YKKz5cwnWiigfKo1VerYYitJJZpSbE9ARVTlD6QvhAlF07l/BcOCUEIgHEttxrAbFN4I3YJsBjamEE4gYwHRWJlcTm69ZKbBXFldRqqGmD7pvPzS3syVzJibRpTC1m13yjlSKzIWL7aRaxVY5tiGpKAGvNjs3GUWxf2Gz40g4ktC++DYL76gfPv70Ot9citr2tXHvgD0M6QpZi4a9x/YFND3/3aO1EG8YOQhpCaK97+8VWNWrVpCHm1EpuJbbaRKahDWUq/SWxzacwXIe15jncXgKIbblri9gm8EZsE+AxtTACsbqBjsqdldiqdW6UW4ltrGmrYxTb25KGEKohFCW2IWLrm8euwS2IrdroZjm2ve1Qymw7NJs4FltJraK2Dysvtnfu3LEHDx545FaCm69rqxJgEltVUEBsr8EFXpGngNiWu9CIbQJvxDYBHlMLIxBr0Spaq2oHyqeV2MahHFttGItNG9TAQRHbfP3bwp7MlZzofcVWaQhvitheV7F9V8QWsZW4qryXIrcSXKUg/OlPf7L//M//9CHxzVdSoNzXlfxHW6kHRWzLXW7ENoE3YpsAj6mFEZDQaihaK7HVBrEotd98841vHlMJMMmthsQ2VkK4+Y0ZhDGIbahp2gybx+58eiLH1r+m7ykV4Z7Vmm1vUqAUhNsrtr+EDWQHv+RSEZSO8NQmw5chefgW5tiqSYNyaCWvGoraSmz/8pe/2J///GcfatQQI7YxJaGw/xg5EQTOIIDYlntZILYJvBHbBHhMLYyAhDaO0WjkJb1OR2wlthraOBbF9nZI7dvE9lSOLWJbCbFVOS+1ztVQ5FZi+1//9V8utzpGsc1HbQv7j5ETQQCxtY8++sAajfqVXQuIbQJ6xDYBHlMLIyCpldDqqFa5Z4mthDaOfMS2sCdxpSd6U8QWsa1axFaRWImtorYaklg1avjv//5vHxJbya7up0HE9kr/w63MgxOxLXepEdsE3ohtAjymFkZA6QcSWh0Hg8FrYqsGDXt7ez4kt7rPbWjKcAwQsQ0bx0ITilAVoZqpCLGtrmrVSnCVjqBqCP/zP/+zGqfFNpb+Kuw/SE4EgVMEENtyLwnENoE3YpsAj6mFEVC0VmKro6KxpyO2aqkbxVZH3RexJcf2NubYSlLVfazf7/tQOoLE9n//93/tr3/9qx+Vd6tcXN03Rm0L+4+RE0GAVARSEZ48/dUODg/t4GBgBwcHNhpPbsx/GIjtjVmqW/1EJapx6L+hN4mtynxp6L6qYXt7bkRsidiGq1my2ul0rNfrueBKbJWKIKnV+Nvf/uZiq3q3UWwlt9wgcJkEiNheJt3Xz03ENoE3YpsAj6mFEVBqgWRVR4nt06dPT2weU8Q2Sq1/eByNEFuqItzKqgiSVXUfk9RqKM9WEVsJbRwqASaxjXm2iG1hb0Wc6A0EENtyLw3ENoE3YpsAj6mFEZDQaigN4U1iq3+PA7Gl3NdtLfcVxbbdbnvkVrm2Etu///3v9n//938ut1FslY4Q5baw/xg5EQRIRSAVgVQE3gcgkEZAQhuHIrNnRWzj3yW32mRGKgI5trcxx1a1jBWNldgqchvFVlIbh8RWf5PURrlN+y+Q2RB4OwEituVeIURsE3gTsU2Ax9TCCOSlVWKr1IN8HVuJbl5+EVsitrc1YhvFVnIreVVlhC+//HIltf/4xz/s4cOHLr+SWsS2sLchTvQWAohtuZcHYpvAG7FNgMfUwggoCitxjXm0MWKrrmPfffedR3DzYqt6t0Rsidje1oitZDUvtkpFkNDGgdgW9tbDic5JALE9J6iC7obYJoBEbBPgMbUwAvn8WZXzepPYxjxcxJaI7W2O2EaxldwqYnuW2Cqam8+xVaSXGwQuiwBie1lkzz4vYpvAG7FNgMfUwghIbBWt1VFim09FyEds4yYzxBaxve1iG+VWtWyVipCP2D569MjTFBDbwt6CONE7CCC25V4iiG0Cb8Q2AR5TCyMQpVZHdRaLEVtJrXJt9XuUWh0RW8S2CmIrcZXYKmL71VdfudzqqFSEKLZRbonYFvZ2xInOIIDYlntZILYJvBHbBHhMLYwAYkuDBho0hP+cJKhxUxhiW9hbDCdKJIDYJgK84HTE9oLA8ndHbBPgMbUwAvnmC/mIraK1MRWBiO0Da/fuWbt/z2pNIrZEbEMqAhHbwt6GONFbCCC25V4eiG0Cb8Q2AR5TCyMQxfasVATE9hPrbD629jpiO9r72UZ7T20yfGmILWJb2BsQJ3onAcT2nYgKvQNim4ATsU2Ax9TCCCC2pCKQinC+VATl2eY3jxGxLextiBMRsbWv/vE3+39//yudx+g8xvsBBNIIILaILWL7drGNVRHi5jF1JiMVIe19h9nnJ0DE9vysirgnEdsEikRsE+AxtTACiC1ii9gitoW9oXCiwgkgtoUjfesJEdsE3ohtAjymFkYAsUVsEVvEtrA3FE5UOAHEtnCkiO1lIUVsL4ss570IAcT2DLHd/tT6dz6x3p1PrbOhzWP3rd3XuP1VESaHv9vk8Bcb7z+z8cEvNt57YkMf2jz2xKbDV5XbPEYqwkXeUbhv0QQQ26KJvv18RGwTeCO2CfCYWhgBxPYssf3E+nc+td52ripCX+W+7t/6cl9BbJ/ZeP8XGx88s/HeUxtkUovYhgYN5NgW9vbDic5BALE9B6QC74LYJsBEbBPgMbUwAojtRcW2Y7Pxrs2GL202emmz4Qs7ePGdDV58awfPv7XBqx9sPhkUtj4pJ1pbq9larW61WsPW1urW7G1Zd/ND625/ZN2tj6yz+YF1VMosNxDbUJ8236CBiG3KVcjcVAKIbSrBi81HbC/G68S9EdsEeEwtjABi+75i+yontt/a4MV3mdh+f43FdvsMsX0YUi18PDDEFrEt7M2FExVCALEtBOO5T4LYnhvV63dEbBPgMbUwAohtqti+tIMX3yC2hV2RV3eiN7XUJWJ7dWvCI5shtuVeBYhtAm/ENgEeUwsjgNiumYTG1mr+lX1r/Z7n1vq487F1NrKv6/v3rbX+wBqtrs3GBzaf7NlcKQnjXRu8+Lcdvvy3y+1g90ebTwdmR0dhjeKxsBW7wImy1+SpCLWGNbtb3kmts/mh9TY/tPbGI98Q1+rftZa3DL5rk8NfQ27t/jMb7T+18f5T3zQ23Hvqv682j61eW/Y6L/C0rutdEdvrujLVfl6Ibbnrj9gm8EZsE+AxtTACiK2ZclFtbS2Ibf+u9bY/tu7Wx9bbVh7qY+usP7T2hr6yf2iNVt8W06HNp4e2mB76cfjye8+tHe7+4NUDPMf2aGlHkto3iO1aYSuY+fNZ55PY1pshx7bWtGZn01+HKj10JLXrD6zVvWPN7h1rdbet2d0OlRD2n4RqCH58aqODZzbaC1USpqPdUBUBsfU83Hq9Hj4YcYPAJRFAbC8J7BtOi9gm8EZsE+AxtTACiK15tNZMYlsPYrulzVXZJqtMAoMIPrJGe92W84kt5iNbzMe2nA1DKazdn2yw+7NHOBfTgR0dLTO5XR6LYG7Vilah1+OmWRTaxbZpa/WGNduboWyZS/oDj9JKdhvtDWu2N/zokdq9n2y4q/Je4fVIaEcHiuT+arPxHmJL57HC3n840bsJILbvZlTkPRDbBJqIbQI8phZGALGV00ozlWtbt1Zvx3pbH3rFAJdbVQ7YeGzdzUce5Wy2t2x5NLflYubjaDG1oeRv78lKAhezoR0tF3Z0pBEEN38rWmrjuU/KbXg9a5nY1uotq7c3rN3bsVZWk1cRWkWgG82+1Vs9qzf7Wd3aH2346kcb7Wk88/SE0eFvvrFsNt5HbBHbwt5/ONG7CSC272ZU5D0Q2wSaiG0CPKYWRgCxFcqgmhJBfS0fJbaz+SiIbTZ6mx/43/VVvIQ1SOvCJge/2fjwV5sc/mbTwXObz0YutuZyK6k9h9he1HbPSG19TWyzVATJrYYEVjKr19Ds7Fijs2H1RttqGvWWD+XTjl79YIPd72306keP1k4Gv9t48Nwmhy9sPjnIrj092u3Jr/X1X1tblfqi3FdhbzGcKJEAYpsI8ILTEdsLAsvfHbFNgMfUwgggthFliHA29HX9emjG0OnfM5dbT00IQ5utYk5uFGKvaztS+S8d92y5mByL7/Kk1B4/Wm4JLyq1mvpOsQ0pFto05pHbWsPqzY7VW+ueTqFRb3a9vq3Xu/Wodc3TEAYvf3C5He5KbH+16ejVahzX6EVsybEt7G2IE72FAGJb7uWB2CbwRmwT4DG1MAKI7TFKCZ7ETxupfFNV746L7apKwvYnXu9Vkc0gjEEalXoQNpQNPOd2uZy/dfPYax57WWLr6RWSVm2OyzaSNTouuLVGxzeU+Sa3LG3CltCnomAAACAASURBVEuX2cGr7230UmL7vU0On9t0vO+5tUpDUG7x8Y2ILZvHCnsr4kRvIIDYlntpILYJvBHbBHhMLYwAYpsX2zWrNbrW7ISNVNpQpbza3p1Prb/zB+ve+YP/3mh0vbVurR6GHSnfdm7LZTgqPeE4onq2/CXL7anTvlkxs3JmSrdYdSKrm9Ua/sKPfCPcxDfEaQyzNARVetDPk8ELF/b55NBms0O/z229kYpwW1f2Zr8uxLbc9UNsE3gjtgnwmFoYAcQ2j1Ji27JGs2f1Vte/qu9sPLTe9h+sv/OZy63KfzVa+hq/5xuvwtf5YfPZm2/vCMmu/rx2fJbXzpl99a8KYm6k54mWnrzP8bxwLkn4YiZpHWTHQxvu/mTDV/8O6Qi7P3rd2rkqQMw0xrZcTAu79q7biRDb67YiPB8RQGzLvQ4Q2wTeiG0CPKYWRgCxPSW2tYZHY+OmqlbvbqiOsPWRlwFTmaxYIitGdeNX/V42bE1ymhdZRUrftlyxQYSOynfN57xqbpRmbVhb2NFSm9Z0XGQn1e9uuq8/yCn5PdKmN9/UFs4hSVUkdj7Zt9lETSf2Q73a/Sc22gvNGTz9YBGiuYrsHinN4pbeENtburA3/GUhtuUuIGKbwBuxTYDH1MIIILYnUSpnNtR9bXpzg2Zny2W2s/HAGzWoM1mro6YG29bsaGxZrd4IQlrTV/x1VcQ9PqlL7RvMNpYZkwxLqJWzq8ddU+5uyIt1SfY6u4qwTj3d4cjTHmIeb2wEccYmtRNiGyo5KEorOdVQHd75eM+mnj+7a/PRbqiAcPC7V3jQz543vCptNnMhvq03xPa2ruzNfl2Ibbnrh9gm8EZsE+AxtTACiO0plJLMTFJ1bLT7vpGs1VN3rh2vc6sobqu/Y+3eXWt2d0J3L5XUyhoheAQ3yuwbo7UhGhvF1evMquRWo2W1WtycJrmVMNc89cAbQixiTuw026AWo7hnNII40db3yJbLEKXVOFrMvCyZqjmo6sFs+NKmo5eeeqDqDv5vo1ch/WBVuiyWLyvs8rtWJ0Jsr9Vy8GQyAohtuZcCYpvAG7FNgMfUwgggtmehjBuuzGrNrjW9PNaGbypTlLbdl9iqJNg9a3XvnqgD6zVjFbn1QG1mtWfKrR4jlNlaW2v4OepesaDnxyDKIQqsaK5SCLz6gue66jj2qKsitxqvRVKPlHiQ5eJmgnukzW3zadgotph4NFbyOpHUDl/4mI0PbTE5sJlSFKbaLKacWiX2ZpHhW1a7Nr/6iG1hbyucqEACiG2BMM9xKsT2HJDedBfENgEeUwsjgNi+HaVHUn0jWdhQ1mytexmwtqK43R1vduDVERotW/MmB81QXstTCLJzn1ECIebl6qg56voV29pKopXje9w1LIitl9xSPux43xslhOirKjGE4+k82yMXWklp2HHmIqz7ZhUQPGKbpSF4HV6lI0xHoXSZosPTUUh5iOe4xVIbPofQoKGwNxZOVBgBxLYwlOc6EWJ7Lkxn3wmxTYDH1MIIILZvR+m5r96dq+WyqRqwjVYoBSYBVYWE0LVLebk6NjzPNkZsz06xPZnuoHOrVW9Ic9hxYVaLWwlz3MQmIZ0OFFX93UtwKW1gORt7eoKnKGhjV148X4vYho1jKxGeK3o7trlXRVB09sAWqo6QSe/CBXiabVK7fc0YzozTI7aFva9wouIIILbFsTzPmRDb81B6w30Q2wR4TC2MAGL7DpSr7l0Nq9XrIbqqlIGGorgdq9eztIFVnq3E9jhiG3JoTz9GbrOYOoI1Otbq37X2+kMvL6ZNarGkmMqJaUhex/vPbHzw1MYHz7yFb2wKMZ8ObTkfZe17s8c6MxVhEdIWVjV3Q/RWaQ1qvOByrAiwBDjbYBZKLpyntFhhl+SVnYiI7ZWh54HfQgCxLffyQGwTeCO2CfCYWhgBxPYcKFfVCbK8WFVOkMiqisFa+Nm7kKk6gv9bLhXBN4idunkVBM0Pm86U5iChDW17Q2kxVVvwOrmtvjWafZvPhzZ69aMNd9UR7Acb7T/xdITZWGW6Dj3yqjJe8ebR21gGbJVjK2ENpcKiuIb0hONKCZ5LeyKn9hx8bsldENtbspC37GUgtuUuKGKbwBuxTYDH1MIIILbvgTLb9FVbq4fKBllr3dVmL5X7ihvHVPfglNn6hjGX2pCX22hJbD+w3p1PvMuZWvgqd7cpqdXGtdaGi+vg5Xc2fPmdDV792xspxDa3c8+5HZzcQBYjtjnBVbmvfB1c/31VG3fpG8SqfENsq7z61/e1I7blrg1im8AbsU2Ax9TCCCC274MyNlWIVQ2ypgqx9qxHbHU7uyqCV0OQ2DYUtW15SbHu5odBau/8wXo7n3qJMW1Ui3m889nQBi++tcFLje88ajsb7dlstO91aBW1PVEZ4YymDUFkg8AGwc1HZ/Xv1Ug5eNOKI7bv898Ccy6bAGJ72YRPnh+xTeCN2CbAY2phBBDb90UZu4IpOCvBjVFa/ZyT2lzVr9UjKX0hi9hKbpVPqxQEtezt3QmteyW2jU7coLbhLW8Pn3/jcnv44lsb7n6fia1qzu55aa4TXcE8E+G0qKpJQ6ySEBo2nG6z+740bsM8xPY2rOLtew2Ibblritgm8EZsE+AxtTACiG0RKOMGsRChfT2r9mQughouKGJbVzMGpSK0JbYf2frOZ9a/+7n17n4WSom1N4PctjZsMZXYfm2HLzS+seHL723qjRR2vaGCcm2P2+zqWZwdfV3J7qmuZEVQuOnnQGxv+grezueP2Ja7rohtAm/ENgEeUwsjgNgWhvLcJ/IIb67TmMS1t/2RS+363c+st/O5dzdzsfXmEJu2mB7awfOvbfD8Gzt8+bUNXv7bZsPQIczl1sVWNWe5vS8BxPZ9yTHvMgkgtpdJ9/VzI7YJvBHbBHhMLYwAYlsYynOfKIht0+pZYwelIvS2P7b+3c9sfUcR20xsW4rYnlds909FbM/9dLhjRgCx5VK4jgQQ23JXBbFN4I3YJsBjamEEENvCUJ77RIjtuVGVekfEtlTcPNg5CSC25wRV0N0Q2wSQiG0CPKYWRgCxLQzluU+E2J4bVal3RGxLxc2DnZMAYntOUAXdDbFNAInYJsBjamEEbpfYvtYKoTBORZ7oWGxb3q43pCJkObarVIQda14oFeH05rEin3HR57qeZcUQ26LXmfMVQQCxLYLi+c+B2J6f1Wv3RGwT4DG1MAI3W2yzkltZBwSJSf52Rs+vwrglnWitFsp9xaoIrb5XRfDNY3c+C1URtHmstbEq+eVVEVQRQZvHsqoIM20cG+/ZdPgqK/e1SHpalzXZS4zlbqvfV+16r4foIraXdQVw3hQCiG0KvYvPRWwvzmw1A7FNgMfUwgjcXLENUpuvIXujxFYteX0oYiux/dB6Kve1o6oIKvd1Jyv3FTqPHdexldh+a8NXoY7tdBxKfnmDhuVJsb0u8etjsQ0CG34/rqnrTSNWt6uTXMS2sLcVTlQgAcS2QJjnOBView5Ib7oLYpsAj6mFEbjJYuv1YNfqpla2lrW5FZgodKdFtzBoqSdSxDYT27VaJrabH4QGDVmTBm+p21bENie2EtrYfSwTW7XV9QYNpzuP5TikPt3U+VFsTxyzLmirbmhBea+0+xlim7rSzL8MAojtZVB98zkR2wTeiG0CPKYWRuDmiq2aHGg0XGx9xJSETG2vq9iGHNuGN2dYU0vdVt86EtvYUvfOp/Zmsf3OW+oOYkvd8b5Jbq+/2CpCG+Q1yuyqre8q0hzF9mqitohtYW8rnKhAAohtgTDPcSrE9hyQiNgmQGLqpRO4WWKr1APFY5WjWrd6sxtGu2f1Zj9Eb7PWti69q9jtpWO80APoNbiQK2pba/hraK8/sM7GB9bdDENNGRr+unpWb/VsMRvZaO9nG+39ZKPdn2188Mxm0wObTwY2mxz63/OpCNclDSGo7NKfWxTa5WJmy/nEFrNxOM4nZkeL4/u46JYvt4jthS5j7lwSAcS2JNDZwyC2CbyJ2CbAY2phBG6O2GZS6ykH+iq/Zc3ulueitno71uzdsbpHQCW3MYJbK4xToSeSnK/VXc7X1hpWa7at1dm2Vv+etXv3rNW/61HcWqNr9Ubbao2OLRcTmwx+s8nhbzY+/M2mwxcus2GMbTEfm53IVT1OySj0ub/HyZYurXM7WsxtuZzbcjb2zW7Tyb7Nx5LzQzuS7Gosp37Mwrvv8WjvPwWxfX92zLw8Aojt5bE968yIbQJvxDYBHlMLI3BjxHa1USxIq4TPo5ybjz3C2dl8ZPVmx9ZqzWyEFIXrevN0hFrNapLwesNLfjXaG6HEV3vTy4CFqgnaYNay5XLmm8VmY7XPVerBgS0XksCpLeZT//tVyOB5+Epql3qO8flOBzYdvrTp4IVNhi/85xC5Hbv0LhbT1yT9PI+Teh/ENpUg8y+DAGJ7GVTffE7ENoE3YpsAj6mFEbgpYutf33skthHSELJKAv07qiTwB+vufGqNpqKcLVvLymhda7FVmoRek/5Xq7u81hsdH4rQhtzh4/xhfZXv0dl5iNAu52M7OlrYUl/xKxrq0dryv74/z4WoaGxMO1guxi7m44NfbXLwq432n3kEejEb2mI6tPl0aEulVZyKPp/ncVLvg9imEmT+ZRBAbC+DKmJ7KVQR20vBykkvSOBmia3yUrXpKkQ4e3c+tfW7X9j6vT/a+r0vrN5azyKdina2raZ82+x2/ZQvywDO5Fa5tjHnNkSdY6WHmld8UJpB+KpeX9nHr+uXq7zV6yq1wu9i69HYkQv5dPTKhXa0+8RG+z/baP8XW0wObT4deIqCJFcby8q+IbZlE+fxzkMAsT0PpeLuQ8Q2gSVimwCPqYURuDliq9zak2KrSO36/T/axr3/sPV7/+GlsVQXNnyN3/YIb7hFrb1uehu2eMWo7SpC65vgJLYhoqujb8FazEN0Vl/tHy089UD/C7m11+W15bethZ89b1YpBi62oyC2e09suKvNcBpPPc/Wx0psy282gdgW9rbCiQokgNgWCPMcp0JszwHpTXdBbBPgMbUwAjdKbLOv5xWxVY3X/s7ntv7gP23z/n/axv3/9C5d5xPb6yKBcRlDowmvxWvZ0TeYSQyPxTaUxwrVBVYyu+reVdglkXCiVQXh7BzHYhtSEcJmN+XUqrrD8NVPNtz9ySVXOcMS21DhYfBas4mEJ3XuqYjtuVFxxxIJILYlwtY77tHpXomX+Ph6qO9//Nn++a9v7J9ff2tff/OtPXn6qx0cHtrBwcAODg5sNJ5c4jMo9tSIbbE8Odv7EbhpYiup1Vf2LrZ3v7DNB3+2jQd/ts0Hf3KxDTmqpyK2q8hmPnJ7neQ2E8IosorTrgKfuQjoideRf/7X4bXkpVYyHiLReiFhg5sitsNjsX31ow13f7ChH392sZ1lQ+2DT3dRe7+r+2KzENuL8eLe5RBAbMvhvAozILbvDxyxfX92zCyOwM0TW1UJaFizs2nrd7+0jYd/cbndfPiXLGIbxbbl0U/VUDWPdIYRvr7PIp6hYwC3ZAJBZIPK1sxyHeEUifYSX1m01iO2oxdBaF/9YMOX33vUNkqtl/9ysZ0nP6uLngCxvSgx7l8GAcS2DMrHj0HENoE3YpsAj6mFEbhVYtveCNHaesurIyjtNJaY8qOXxVKO6iyrJKA81cJQVvNELrShtnAoYRY6qqmyg8qvaT28esOqIYPE9iViW82rhVf9HgQQ2/eAljAFsU2Ah9gmwGNqYQRul9hmVRFqiuo2bXm09BJS+gp8nn0NfrQIna4kWt4IALNNvJayLmoqWeY50GoR3LN6e92aXpt33c/vYrsI3BHbRORMrxQBxLbc5UZsE3gjtgnwmFoYgVsntt59TFHDpotr+Ip73+Y+QimpKLuSLMQ28VJSFzgvVRabSbSt0dkMHeG6d6zZveONKEKDBontzKZjIraJ1JleIQKIbbmLjdgm8EZsE+AxtTACt0ts+6HrWL3ppcEkUiotNRu98ihh7NjlNVMlufOR599ySyCg7mkutaFTWr3Rs1bvjrXX71u7f9+7w+mDhtfgzervzsavSEVIQM7UahFAbMtdb8Q2gTdimwCPqYURuFVi2+p7AweX27W6i+tkoJatv9tk8Nymwxc2G+/bfLzvkqvIrfI/ub0/AXFWHm3smqaOcO3+PW9x3PFWx49dfNWkITSXmHlb4LM3j2ltQi1bqiK8/5ow83YRQGzLXU/ENoE3YpsAj6mFEbhNYiup8va0taZZrW4qG6V2rZPDX0IL18HvNhvthgjucNcFyhDbtGtpre6bxOqNrtWbXWu0N6y98dB6Wx9Zd/tjH3VtINOmvcXc5RaxTUPO7GoRQGzLXW/ENoE3YpsAj6mFEbiNYusdvNbqXht1tP/URgfPbLz/1MYHv3jUVg0CpoMXnn97FWWlClu8a3AisXahbfas3upZs71lna0PrH/nD6bOcL07n7n4emOJrGsaYnsNFo6ncGMIILblLhVim8AbsU2Ax9TCCNwWsVU9W+3Gj1KryK3SDtSy1btb7f/skjs5fG7TwfMsert3JV95F7Z41+BESv1wsVUFhFbfmp0tj9Ku3/vC1u9+Yf27X1qj1TXvmnaW2L7K1bFVDVt1IKNBwzVYWZ7CdSGA2Ja7EohtAm/ENgEeUwsjcHvFtmazkcT2Jxt421bJrcT29zA8LUFiW34jgMIW7xqcyCO2rd5KbFvd7Uxsv7T1e3+09XsS215ObJWKsPfmzWOI7TVYVZ7CdSKA2Ja7GohtAm/ENgEeUwsjgNgitikXE2JbN3Us4waByyKA2F4W2bPPi9gm8EZsE+AxtTACiC1im3IxIbaIbcr1w9x3E0Bs382oyHsgtgk0EdsEeEwtjABii9imXEyILWKbcv0w990EENt3MyryHohtAk3ENgEeUwsjUJ7YroWvbP1rW/1c86N+1//Cv4d/yv7fideo+9dqda9Tq3JezfaG9e9+Zhv3/2TrD/7sR21S0qYxVURQt6vZ+MDG+09suPezjfae2Hj/mdezVW3bkGO7b0dH7xbboyM1cTgyO9LQj0s7sqUd6ff474WtSIknWq2FViCuh/CfsS7Hi3NyXWJVhFb/ePPY1kfWv/e5re98nts8lq+KsG8j5T3v/miD3R99g58aZmjMdJwNz9jUJ9a529FRxl//FtcmrMlqXS7YLlnXZ6PRWI1+v29ffPGF/eMf//Dx1Vdf2cOHD63dbq/uU68jtiVesZV8KMS23GVHbBN4I7YJ8JhaGIHLFdsoqzWX2pV0rtVyAhokNApv0Nqc6Gav1PV3JbYNa7TXrXfnD7Z+90tbv/8f1r/3R2s0O95xTBKsc0qUJLPaNDY+fBbKfQ1e2kTlvoYvvVHDuxo0SGpdbH1ImpZZPda5S7Hv9nfxlV9lolvY6lzGicQ2o6w18Q8BamohQQvrYjrmxqlPGKd+VR1b1bDNyn11Nr0pQ2/nD17yq7fzma+LOJlXRVh4i2OVXxvt6gNHqFahSgiqOzzzoxpn5DrCOddTt2xdIn8vJ+YlxbLhv1/sgwdiexnXG+dMJYDYphK82HzE9mK8TtwbsU2Ax9TCCFye2MYNNRJSCZMirY2sM1jDavVm9ns4ukydiOCeeomZhHnUttbwnfbd7U+s71HBz62387nXS3VRc0Fbs/lkYJPDX11odVQ1BDVomA7VYvfV6x2uPCB7OjKoMlWSV4lSKFnlrWHn01WL2CC+QXpDSPca3zxCHj5IeBRc7Yd9LZrh50xya/qA4B84FMkNUdzgwyc3Som3dx1rhQYN9faGddSgYfsT6259bL07n/jf89LpHzhUW/jgqY32wweOxWxoi8kwHGejk2LrnxnyXEOEdpmJsp9bzR9i296sw1lcl/N+4EBsr/F1W+GnhtiWu/iIbQJvxDYBHlMLI3CpYhu/6lY3MMlTvZWNptUb2c+NdiZUEqgQ2V1Jbv5V+r+rq1hINVDaQWfzQ+ve+dTlqXfnU6s1JLYx2rhm8+nQpoe/h5a66kCmlrqjvdWYzwZmiiRmt9ek1oVqYUuPAipCuwjyNBt7u97FbGzL+XgVtV1FdgtbnaJPlKWD1ILUrtrh1tveFrfmx5MfOHSfkDIS5fZUBYCa5LidRW07Xvarvf7A2+l2tz607uYHvi4eGc+iqYrOhg8av9rIj7+5zGospyNbzCchQp5fF/fa44i4WPtauMTO7Wiu48QWc63NxJbzSXjM+IHjrKjva5+dSEUo+orjfOkEENt0hhc5A2J7EVqn7ovYJsBjamEELkVsV3IZ0gw8GuhtVzseVZXoqM2qZKrelFC1wlfhLlAhcvt6CaXsb9lX5rVm11u3diW3mx9aZ+tDqzVaJ8RW4hk6jb2wmdIPFKWdHHjurY4SqXxL3eA+JyOuy1xjgaXEdj71qKKkeTEb+M8hUqiWsRKt+QkpK2yhCjhRiGQrEhtSD/RhI6QRZJ3Dmt0gtvFDSHa/45zns9alFqS42c7Wt2et3o5Hbdvrj3yNtL5B+vUBYenMpsPQJEMd4LQ+LqT+QWFiy9nEzHJie2JdgtzqPOK+WM4C9/nE5+vDikvydOTSe7TQB5OQApE/51k4idgWcJFxisIJILaFI33rCRHbBN6IbQI8phZG4DLE1tMOohw1Wi483pmqveG5sfVmPwitxLbRycQ2+3p89TX567VBfcNZlj+rKGGrd9fa/fvWWr/vRxfk3OY0RVPVfUwNAZRPq9xO5W8G+Rm6QGkT2CoyeEZUzwUq65jlEdv5NMsHPQzHmY5DFymd26OOLreK/4YUhau75XOV18Ka+IeJ8MEidAzTpq91a7bWrd7uryLqMT3Bc25jxPasDxy+qU8pJiECr3Or+1izt+PrI8nV4yoyHiPaklitidJCZuNX/vMqvUOR1+X0FDeleZyK2GZi61KbpYZoHeZTdS7TmhzaYqrobRhaa1+X1Wa/19cFsb26K5VHfjMBxLbcqwOxTeCN2CbAY2phBIoT22MRdcHJci4bUZ6629bq3rFmZ9vFJ0ZsXbTqLTPl4bqUxnSEs4rex/sESWu0N63Z3Qrn7G5n7XRj1YU1O1pIQiU7mYQqirfQ19SZ7CxmJyO0LqOnbjG/Vrm1+ip9MQtRXwnUWPJ0YFMJ2mjPpplALxb6GlybpXIbmApbsQucKMujFVPlxoZc2L412hobLrStzqY1syGeinorwh7ENkR2o9ietakvVLgI0V+vWFFvBVlub1izvWmNzmY4xyolIERa/UOBdxkLaxNylxVZldgquppbidW65FIRtC6rVARFbMehqkL2AUYfZLROU51/HCouSIC9okWWE306Oo/YXuDa4q6lEUBsS0PtD4TYJvBGbBPgMbUwAsWKbZBRjwS2+16Sy4/dLWv37llL0dX+PY/iudgqN9OPSkUI5aZiju3ZLzCWoQq79/O78fVzLCEWo7YhwhryLsNxEsQpE6jw9fTrZaTyjx02jMXNY8qxnbowzSWxEtzJfmjRe/C7jQfPbTp47o/nouZiG/I8r+QWU0KySgeqXNDKfRBQ+1v/sJEd9bvnQb8mtsebxt6WIqIcaI/Wx6iwpzmEDX2rDVy+6UsclXoQPmR4nrLn4C5N6R4e3X3ruoSNeiHHNts0FqPzo1c2G2lz4K6nnigqPNFxuOt50V6dweX29XVBbK/kKuVB30EAsS33EkFsE3gjtgnwmFoYgWLE9uRX3vpau9nbslZn21o9Se2Otdcfer6l513276+ENmxaamUlpkK0NdZRffOLDLVvVzv6fTd/M5eXG6O9R5nEKhIYRDNG7EKZr7dLrT++i21WEcFLfU09Kjif7GXRwT0b7T218d5TG+4/tcnBL16NIWxqUk7p7LUd/oUt3jtOtMqprYe8WqWBtD09QCkc97IPGzFlIEsb8IitUguyiK1vHntzVYTsj1m1hLBxL19vWFHcVY5uJvixuoQqGYR1OU4RiKkhJ1bmtYoIYVOfb+hTNYTlzD+0hIoXL2w6ehHKunnNYm0cDEevj7t6zHAt5G+IbVlXJo9zEQKI7UVopd8XsU1giNgmwGNqYQQKEdt8zdO1mkdoOxKn/n3rrN/zHNhWT78ranvPWt2d1VfetazhQqxlG0tKvR4ZjC/5uIyYremr71iHVfVrT6Uv6CvsKKWKEsYonQvN66W5TpaUCo8XJCwr5ZVFCfXVeRhKRRjYUGK7/yQI7sEzT0tQru3cd/orequUh7Jvoe5vyGMOHx48ct5/4FUL2hsPfI2anh6yFY7dbat7fnQQ4VCBIpb7in57VoqI/nZci9gfd9UoI0tlyL38UBs4V2/WK1NkTRZylQ/ilBOb+jLJXcYPHL45LETmFT0PubvK2931SPro4DebDH61ycFvIcd6pjJtWdUEF+rjG2Jb9jXK452HAGJ7HkrF3QexTWCJ2CbAY2phBIoQW69ooCif1z6te4S2s/XYSz11Nz5wkdLX3M2e5CkIlKKCUUqDBMUd9zoqAPgmgcoJbq7RQ2gqcFpss8he1mDh9UYKJyO2Z1VF8E5WLrbZ19/L+WoHv28Um4+9q5m6m3nTgf2n3vxBXc1mSlmYHLh0lX5bU0Rbm7lC4wTlOot/Z/2RdTYeeRMFffBodjeP82HbG0FsfT0lpzmmsdfGG9cli7Z7cDc24MjVwT0htrFxQqiScNyM4ewGF2HfWLZW2Saypa+LNvZJbJWWMA0NHpx5yK8dH4Qaxj72n3kO9GIy8Mitbx6cTxHb0i9MHvCiBBDbixJLuz9im8APsU2Ax9TCCKSLbRYZzKog6CvszvoD622rOP+n1t/+2Dqbj7KNRFu+majeWnd5cnFSObBMSkNBg0xsQzuAt99WMnu8YSw/IbjQcTTwOCJ7ds7rGdW+XGiDREW5VX5o1qQh25G/6qC198RG+09Czq13N3vlkiuJKvcWSqMpWhvynNet2V73aHl364NQeWOHvQAAIABJREFU/3fzQ//AoX8P4tv3jWVakyC08RjWYdXx+J3Lkm+b/KZ1yXUEi9Uj3gooVkXIkkc8uKt83LAuQWzntlSUPFa9mA5s5EIbPmz4B47Bi6zUWxBfL/eWuxGxLfcq5dHORwCxPR+nou6F2CaQRGwT4DG1MAJFiK2nE6y+8m57pLa/85l3BFu/+7lHB0O5ryBPEqm6NwkIo5YdJU+1GK19p0BFBMd3zHpjrdi8XuPgHZu4vPPYydtS/+byJMHVz4oSZnm3WXpDEFtJ7U8hHWH/Fxur8cDBbzY+/N1LUJV3iyJac85KM4gbxpR+oKYJ+tChrmD6AOJr4fWFVcO2Y/V6WI9aLVsXrZOb7aoT7zlfynnW5Zyb6vId4bI18qITvhHtyBb6OUtHiI0etIFPkVqtzXD/Zz963dyhSozt+mYypZIgtudcTu52ZQQQ23LRI7YJvBHbBHhMLYxAstiuvvLuWr0Riv0rKrh+9wtbv/elrd/90rpbj7OaqbEZgEp81VyiGrU1q9cltBIpVf0KUnVury2MRDjR6QIGC4nT4sjmC7P5Ymn6fRmP2Vfhigbqq+6Tx6cryZ2O93Mb1c4pc+/7umLJtFrNy261ene88oE3TVh/aN3tj0Kr2+2Prb1+3zu4Nby5guoNt63ZOF6XhiQ3J7Zan6u6xWi7x3qPgtTO53Fd9PPC5t48Q9Uvpr6ZTBFb/9DhYqtIuvJtQ0MITxfxdYm3I/+Q1Wg0VqPf79sXX3xh//jHP3x89dVX9vDhQ2u326v71JXj/c60mauixuPeBgKIbbmriNgm8EZsE+AxtTACRYhtaMCgQv/K51z3qKCE1sX23pfWVcS22XKBcolqtqzVqFmrubYaElxJlCK5Et4rcYUYsc25p+RpOl/aZHZk09nSx3xxZLP5MhPepedyujTFNrHKud39KRtPfDNTps2e2vB6XLio5czKoSkCnq+C4Bv57ob8WkVstz5ywe0ox7bdsUazac1m0xqNprWbNWu1tDY1azXCemj/WIykX8m6uMyGxckOzn4yW9pkmh1nC5vNZjafTcNxPrXx/q/hw4ZH01WxQuv0e6iUMPjd86Bjm16dH7Et6jrkPEUSQGyLpPnucyG272b0xnsgtgnwmFoYgXSxrfnGpFCQP+Rzdrc/to27X1rfxfaP1t185PLk0TBJVKNh3XbNOu1aOLbWrNlYM0UIFcn1SOEVRAdjjm0+13Y6O7LRZGGjydLHeBrkdibhzY4qK+VRwMELFyZFCQevvrfBy+9tuPuD59sGI9NGqcsU22yzl+cuN3w9OurK5p3ZHvimMX3o0OhsfmRdVaxot6zZbPhotRrWbWld6qv1aXrU1vtnZGkjZ1x67wpCv2Mt3zU9RNJzebZHZmFdljYcL2zoa7Ow6XTuUjudzmw2n3sqyHEU/ZmXYgsfQn618eFvXuvWS375uSW2RsS2sHcWTlQUAcS2KJLnOw9iez5OZ94LsU2Ax9TCCKSKrTYZeS6nivy3VTZq03rbn3iktn/3S9u490frbD60ZrOeSUPNmo269bs1W+/U/NjrhAhhlNtGQxuXrsJss6zcWHnKzCbTpQ3GCxsMF3Y4kkgpehsE16OF86VvEpt7QwDlbr70SO3hi299DF5+5/VUY+et465XhS3h8YlyZde0iU/5tR3l1aqGsNIQNh9bR5UqXGw/tM76XWu3FaWtW6ulUbN+R2sTh6K2kmTzyK1HbU+vy3msNHUpM6n1zwbZz/pQcTBa2OFwaQfDuQ1GC5tMFzadzf04m809v9nznbOqCKFCwrPs357ZZPgqV9d46ekvpCJcwnXJKZMIILZJ+C48GbG9MLLjCYhtAjymFkagCLH1XfcSW2/IsH1CbEPE9qHnbmpIWpWCsN6t20avZuu9ILn6CjzcJ0Rvr0Zs9cX08VfegiyBPRwu7EBiqzFe2jiL3o4m4Wtw1a31Vq7jPe92NZLYPv/aDp9/Y4cvvvEobmixG0pbnVUvt5AFdbENtWfVvEJr0tl4aF0v76UyX6EEW6iK8HgltoqctxWpbdV8XdZ7DT9KcNutuJksyG0sa7t6vgWI7TtPkSXW5vNrp9Mj2x8ubH8wt/2B1mZu48nCxjNFbvWhY2FjdYNTdPbgF5tkgquqFaqUoJxoRdKPWx+HZg2IbSFXIicpkABiWyDMc5wKsT0HpDfdBbFNgMfUwggUJbZhg1LYqKSNSX3fPPZHj9p2Nx9kEdkgrxLbjZ7EVhJVt3WJbSsT3/rVie2qjm2uOoIiti60Hh2cr6K2w8mRR28lvqFm7b7Nx/srsT34/V9Bbl98a5PBbyWLbT0T2y0X2u6GIrV5sX3s9YU76zvW7bSOU0LaZ4htUzKbpSN4tYRTl947rfS48dibLtrznCJEvLOMjiN9oDjySK2kNoqt0hFcbjVcbJ/b+PAXz631mra+wS+K7VPEtrB3EU50mQQQ28uk+/q5EdsE3ohtAjymFkagELHtbHg3MTVmUBOA/vYnXupLUivB7W1IbOvW1GaxTGw3+3XT2OhnYtusWV0RXVVKUK7tFaQinNWgQeKqNASP2I70lbdSE7IxCnm3ocXuQYjajnY9YiuxPXj+ryC2h1FsY2vec6ncxdc417CiVmtas7cdIrNZQ4YguPpdkVtFbHes12l5Pq3SQXRc7zasr4itR9Lr1m7kxDZLR7j4E0ubESK1WSQ9+1kRWxfbLGqrDx7D0TzkQ49Dzq1a6Xq0VmXXsjQElWOLcjsZvsh94FCLZSK2aSvF7MsggNheBtU3nxOxTeCN2CbAY2phBNLFtm6Nzoa1e3e9pFSrv2O9rSC26ztfWO/u55nYKt1AVRAUnV1zqd3sN2xz/Thi6xvHakFs1SSg7NvrdW+VY7vw/M2QjhDEVrm2q+N4kRX9P/CuV0FsfzwW2+ff5MQ2ayV7uqZYUS80L7beQjeIbcitjUIbIrf6vbt+x8VWUqvcWj/2GrYhuc1SEbRevnnMKy2EY9m3VXqIHtgbOmjzWMit9YitIulDrdM8bCbzXOgotmGzWIjaPrPhniK2WZWEQRRbfeBAbMteVx7vfAQQ2/NxKupeiG0CScQ2AR5TCyNQhNg2FbHt3fWSUq3+3SC2O595LVuJbXfjvm9QyovtlqK163XzYy9sXGrUshqqVyS2Z5Xh0lfaEluP2mYR24Oh0hOC4CpSOBuH1rlqxBDFdv/3r+3w9396nq124B/nckqiLiNiG7qNhVa4MRXhzkpqQ+Q2n5LwyLr6ENJtWk95tVFsu01fjzPFNqszXNjFd84T5XnFnz1FZBTFdmEHg7kNxnMbaq0ysR0fPs9KfAWxHR08yxppPPEaw9rUFzbzhda+Wn9ybM+5KNytNAKIbWmo/YEQ2wTeiG0CPKYWRqA4sQ21Utv9HetufeIdx/o7n4eIrXJsGyFiq01iHrFdP47Yutg2szQEr2N7RVURXus7FqoiSF5D1FY5tqE6wsHgWGznmdjOXGz3QsT2+b88aqs8W09F8I1jQaBcpgq/nRbbfMRWG8ayKG2WluClv5SK0G2GSgheDUFVKsLGMU9F6Ch9JBexvSKxDYHa8GEgHkPENkRrFbWNlRFCxDasl6ciZNFarYFybIeK1sbWxx6xXZgtEdvCL0dOWBgBxLYwlOc6EWJ7Lkxn3wmxTYDH1MIIILZ5lK9HUhFbxJbOY4W93XCi9yCA2L4HtIQpiG0CPMQ2AR5TCyOA2CK2RGyJ2Bb2hsKJCieA2BaO9K0nRGwTeCO2CfCYWhiB8sQ2S0NQOkKrlqUi1P14nIoQNo9d71SEkJpwvVMRGlY7tXmsu/VBqI7wplQEbRbLNo95KkK2ecxTEZSCcIWbx/IpCDE9ebV5jFSEwt4LONH1JIDYlrsuiG0Cb8Q2AR5TCyNwNWL7phxbxPb9FzafYxvEVs0yvPqBuo15ju0j66zHDWSncmxdZN+QY3ttxVY5tjNybN//omHmDSCA2Ja7SIhtAm/ENgEeUwsjgNheNBXh5kRsEVs2jxX2RsGJrowAYlsuesQ2gTdimwCPqYURQGwR21ARgYgt5b4Ke1vhRAUSQGwLhHmOUyG254D0prsgtgnwmFoYAcQWsUVs2TxW2BsKJyqcAGJbONK3nhCxTeCN2CbAY2phBCS2BwcHpuPu7q49ffrUvv32W/vuu+986PfBYGCHh4d+nEwmtvRi9uG2tla30KDhXXVs85vHyLEtbAGPVyLXoKFKObZn1bFVh7i0OrbNZtP6/b598cUXdrrcV6vVWjVyqNfrtnYF3diKv34443UlgNiWuzKIbQJvxDYBHlMLI4DYErG92RFbxLawNwNOdC0JILblLgtim8AbsU2Ax9TCCCC2iC1i+3oqAhHbwt5iOFEiAcQ2EeAFpyO2FwSWvztimwCPqYURQGwRW8QWsS3sDYUTFU4AsS0c6VtPiNgm8EZsE+AxtTACUWyVZ3s6x1a5tuTYhvJeytk8HM7tcES5r8Iuvguc6CjrzHCyQYPq2BafiqBobYzYfvnll55j+3//93/21Vdf2cOHDy3m2Cq/ttFoXOBVcFcIXJwAYntxZikzENsEeohtAjymFkZAQhvH3t7eic1jUWy1cSxuHhuPx2weuyGdx6pRx7Z4sZW4SmzX19dNYiupjRvIJLb6m4RWQ3LLDQKXSQCxvUy6r58bsU3gjdgmwGNqYQQkrFFsFb2NVREktafFVvdFbInYFnbxXeBEZUVsJa0SWw2JbayKILnVQGwvsGjctRACiG0hGM99EsT23KhevyNimwCPqYURiNFYHaPYfvPNN6uSX0+ePPForeQXsSUVoXZFpa3KFNt2u+1iu7Gx4WIbpTYvtjENgYhtYW9FnOgNBBDbci8NxDaBN2KbAI+phRFQbVpJq44S22fPnrnUSm5Vx1ZiGyO6EtvRaEQqAqkIhV1/5z1RGWIrZ1fEVmKrsbm5uRLbv//97y64Dx48OJGGgNiedwW53/sSQGzfl9z7zUNs34+bz0JsE+AxtTACEto4JLBniW2+cgJiSypCYRffBU5UlthKaDudjnW73ZXY/u1vfzOJrY5RbCW0cVzgZXBXCFyYAGJ7YWRJExDbBHyIbQI8phZGYDgcutjqqIjs6RxbRWzzbXd1PzqPLexgIMENkjsfH9h8cmCz6YHNRns22v3RDp7/yw5+/5cdPv/aJoe/2dFyaUdHoazU0dFx57bCFtLW6Dw2WthwvLDh6P06jyliK6nt9XoutltbWx6xldD+9a9/9ZEX21qtxuax4i5gzvQGAohtuZcGYpvAG7FNgMfUwggoAitZjWIbI7Zx85jEVtUSJLc66n56o403WuoitoVdjG85URkR21ptzcVWrXQ1tre3XWz/93//16VWx/v373sqQpRaHblB4DIJILaXSff1cyO2CbwR2wR4TC2MgMRWlQ50VOQ2RmyVX6s82yi2qnErsdV9EFsitoVdgOc8UVliq2itqiFo49idO3fs888/t//5n/9ZjXv37q3KfElqEdtzLiB3e28CiO17o3uviYjte2ELkxDbBHhMLYyApDYORWPzEVuJ7c8//+xCK7HViGIbRYOILRHbwi7GaxCxjVKrjWM7Ozsutv/93//tYvtf//Vfdvfu3VXEFrEtY+V5DMS23GsAsU3gjdgmwGNqYQQmk4lpxKjtL7/84pHamIrw008/udC+evXKj8rD1RstYkuObWEX4TlOVEbEtl6vebRWubVKQ5DEfvbZZy60cejftGksSu3aFZU/Owcy7nJLCCC25S4kYpvAG7FNgMfUwghIaqfTqQ+lI0hso9TqKLGV1L58+dIHYktVhMIuvgucqCyxVaRWUqs0BKUdKGL7l7/8xf785z/7UVFcia2EVnKL2F5gEbnrexFAbN8L23tPQmzfGx2pCAnomFogAQntbDZzsVXU9tdff12JrSK3EtsotTqqJNh8PvdnINlQKkKjs2Ht3l1r9+9aq3fXetsfW//u57a+84X17n5uvY0H1mquWbtZC8fWmm3167ax3vDjeq/mf2vUtctcx7UrFIajE3Qn06UNRguvfqAxGC7tQD/7MfxtllVF8MoI491QFeH3r+3g93/a4YtvsqoIinIv7Wh5HO0ucBnNXquK0LRm9451Nx/76GTH9sYj62zo3x5Zt3/Het2W9To1W+/V/djvNmyj17B+t+5D66WmDDUvurCmR7mSWxTbcN2ZTWdHdjic295wYQfDuR0MFjYYzbOqCAsbjBc2OXxu44NfbXL4qx/HB89stPfERvtP/TgZvPBKFZZVq9C1p2itorISWFVAUMT2T3/6kw/JrYQ3iq2kFrG9ksuhUg+K2Ja73IhtAm8itgnwmFoYAUmtRFVHRW+j2GrzWIzYPn/+3F68eOFD1RF0f4nG2WK7Y73tT1xs+ztf+DGKbaspgZXgrtnmet02+w3bXK/ZRk8ClYltbc0FVzvUy7+dlFo9vsQ2Sq1EajAKQiuxVbmvvNjOJLajILaHsdzXi3y5r7LEtm61esua3e1MbD9wsfWx/igcNx5Zdz2Ibd+Ftm69bs3Wuw1b7+rDRt36nbo1mzWXWsntWi0cr+KWj9gGsdUaLOz/Z+881OM4rnVbyJkBzBQlUdlZju//Avfec3zsY1siKVIUcxADcr7fXz0/WGwNSJAbKAzYa+z+eoiZ6q5e1YDW7Nm164WkVnK71JT4crkv7bPY9qRWJddWX95Pyy/vptUX99LKy0Js84eN7TQ6OpKjtap8oE3L5169ejV9/fXX6Ztvvsl7vY7YHsUd0N1zIrZ1xx6xDfBGbAPwaHpgBCSp2vTHU2L76NGjvOKYN0VsJbaPHz/Om8RWEmyxle2MTpQRW4mtIrZfpJn5z/O+LbaKAp6cHUlzEtuZUmwbqR0ZaaKErz9qCFV/sXXEdkH1UbPQKnrbyO3S6vZuxHZwxVYi2xPbvO9FbXti20Rqm4htFtvpkSy3TcT2dbE9qphtP7GV0L7MYtuL2K42EduVnuC+LrYPe2J7L632oravIrbNB46xsdEcrVWkVlJ76dKl9Omnn6Yvv/xyd5PYOgWBiO2B/RniQG8ggNjWvT0Q2wBvxDYAj6YHRkB/NL1JWCW2N2/ezJvkVmKrn0lqtdcEMottXqhhV2zne6kIpdgqYttfbB2xnZPY9gRKKQja9JXwLyO2lcS25bavpyJs5iiho7baHw+xbUS2idR6fzFNzs43EduJ4TQtke2lIrxRbI86Yttb20IR20ZsN9LLpSYdIUdr31Fsk9JDlIqws5XGx8ZyXu3ly5ez1GovsVWerTfl4LrEF2J7YH+GOBBim/76lz+mv/3p23TlyuX87clRPRDbAHnENgCPpgdGQHIqsdVekVsJ7K1bt/ImuZXYKj1Bk8q010SyUmx30lAvYvseYjs9miS2Eqkmx1ZSu1cqQgWx1XfcrccvUxF60dqchvABie3kG1IReikIctqjSRFp8rmT/t/s0vr6K7FVfq2i6cu9SO1KT3D3E7Fti60itVeuXEkfffRR3ktstSklQXuJbSm05Nge2J8iDrQHASK2dW8NxDbAG7ENwKPpgRGQ0HqT2GqC2I8//phu376d9xJb1bb1JrHVRDPL8PZOSqPjs2li+nQaz1sZsf0yzZ79Ik3Nnk/j4yNpfHQ4jfUmkc1q8th0k4YwO6VJZW8TW13yIcttP7HdkMA2kdpFCVMv/UCR2uWV7bS8tpM2Vl+kjbWXaXP1ZVrv5dguPLmWl9Ndeno9rS4+biYp9ZbTLSdCHdhAZjzDaWhYpahG0tCwJo8px1bR2otpSpFaR2tzvu3lNDUzn6amxtL05EianHiViqDo7eykUhGG09iooudNbq0nkB1on/d1MOVzN1Jruc0R25XexDGNjSK2a1tpVRHbta0kuRX3NU0ay3m2D3IqgiaOrWry2Mv7aX35ae+ACgPvpImJ8XTp4sX0ySefZIn9+OOPX9skuioHVi7KgNjuawB5U4AAYhuA9x5NEdv3gOYmiG0AHk0PjICk1vmyEluJqxZlKDetPuZN+bbKxXVebiO2M2l86lQWKe1zju28pPbLnIowNXchjY2PZEkaG23yNpsJSsrtHM6TlJR3+3rEtn2Jhyy1Op0mxPVO6/36umbYb+evuBWhzV91r+6klfXtvF9d384TxiS36ysv0sbK07T8/Ke0+OR6roiw9PSHtLb0JE9OaqKDDe9DefTEdmhIMjqWxiZP9vJpL6TJ2QuvJpBJarPYnkmTU+NpcrwR28mJZiymp0ab/aTGS2Wtjlhs80TFJlJrwc2Tx3ZznZuJY6sS2/XNtLbee57F9kFaWbif1l72qiK8vJ9WFyS399P6yrP8UUmR6KGhnTQ5MZk++uhyroSgTVFaRW6dmqD0BC21W8osYnsodzIHLQggtnVvB8Q2wBuxDcCj6YERsNRqrz+gyqHVsrpKPdBeQquorTfl2aosmKspbG/vpOGx6TQ+eSKL1NjkiV5VhEZsZ89+lSZ3xVZy22yKCuZJS5PDaWpiOI2P9tIQRhvBPYrZ91k3C7nVP9fXd3Ik0HK7srad1tZ38ra6vpNn568vP0sbK8/S+vLPOQq4/OJOWnx6Iy39/ENa+vlmFtt83J7YNqHHw3goYqvaqsNpaGQ0jU2cTJNz59OEpHbufJbcqRMf5S1HbGfPpvGJ8Sy1E2MjaXxiJE0pUjsxnPfNuOiYEttXcnsYPX/TMRuhfRW1Fb6NzZ0ssxoXV0NYXd9K6+ubzbahiG1TCUFiu/riQVpdfJDW8r8f5AjuxuqzXiRa8j6UpqencoT2iy++yJPFLLaaTOZtamoKsa19A3T8fIht3RsAsQ3wRmwD8Gh6YAR2qxuklMVWVQ+USyuB1V5yq5QEbcq71c+0kINr325tbafh0ck0NjGXRiW3E3M5YpujtWe/SnNnv06TJy6k0dGxPOtckwJGRyRQjdBqmxxvIoOvJo81UcKjePxiIYDNnbSSI7bbSVK7urad1jd30sbGTrPf3EnrS0/T2vLTLLXry0/S8vM7Pam9lZaf/ZjrpeZorf6XI7eHJbaqqyoLVcR2JI1NnEgTs+fSxOz5NDl7Pk30xHb65JU0efKjNDVzLoutxmVcYjveyKxE12MzpprCFlvVsa0QOO837qXY6lsCcc9jIrFd1bhspfUNCe1m2ljfTBubW2l14VGTerCgurX309piI7S5tu3Cw7S59iKNDOteG8kTFmdmpnMKgsp6aZPgKkqrmraubTs5OYnYHsUvZofPidjWHXzENsAbsQ3Ao+mBEXglcjs511Yri7lurSaSKbfWVRIktvr30tJSzrPNq5ZtbKbhkYk0OjGTc23HxmfT1KkrafaMxPbLNKeI7YlLaWxsLI2OjqfRsbE0MjqWv/bWQg2TWrShJ7Yjw6mRWwlUW2xrCFX+uvv1SUoSKMmsorNKP9Bkss3NnbS5uZ3lSs/Xlh6l9cUnaW35cV6MQcX/JbRLz2/ntARFdJvkUKchHKbY5pUUcq6tPmSMz5xNE7Nn08TM2SbXVhHbU1fS1IkraVIR2/HJNDo2msdHgtuMy3CaHBvJ47MrttmXB0Bst1Oy2Dbjog8ciqBvpQ1J7cZG2thYz6kyklgJ7YpSDyS2Cw/yWCmSu7b4OG2uvczXnK99dDTNzc3mFATXrFXU9uLFi7tL7GrxhomJCRZlOLC/PhxoPwQQ2/1QOrj3ILYBlohtAB5ND4xAKbZ6vry8nPNsvSlCW9a1ldhq9TG9T5HbtfX1PFFpZGw6jY5NpdHx6Zy/Od2rYTt75ov8FXgWqHG9LpGabCKEY5pM1kwok8xKnBRB03ZUZWx3xbZHeHOrl26g9IMNyazEVttW2txQqbTN5ivuBQmTIoEP8sSkvMKVFgJYuJ82Vl40Ypsjtr0ZUAc2gq0DSWr1v+GR/GFjbGo+TUzPp7Hp0zlq+7rYKmKrMZlIY+MTaXRsorc6XDMuSkNQlYpcDSFXROglpB5W399wXEdsPXlM46LxUHWEvN/YSht5Fb3VtLm+ljY31tKKJo7lyWJ30/KLe/lDRxNV1/Zz2t5YSlOTk0lR2MnJiSywSj+w2Cpiq4Ua5ubmcjUE7SXB5NUewQ3Q4VMitnUHH7EN8EZsA/BoemAEXl+qdCfLqsRVKQnaKyVBK5Bpk+BqUtmLFy9y1Fab3r+TRtPI6EROSdBeIjt9+mqanr+aZuc/TROzl9LY5Gwan5hNYxOzTXR3dLiXlqD9cCOzvUlKI71Vrg7sIvd5oCZD4NUEMv1ra6tJN9jc2k6SqUZqN9PWxnra2tzIWzPbXpOS7jcilWfhW3QfJy3c0DwOWWrzOfJMqGap47GpNDZ1Mk/qU/6z0hKy2CoNQXm2s+fSmOR3YjqNatMHj9HhNK5ljXsrweUo7e4EKx26Ruj89QErx8WfC7a2mzHRB42N/IFjK22ur6SN9eW0ubaSn+dcWn3AyKkId9P60pM80U+VKzZXX6SdrdU0OzuTKx1oUpiWy1XE9quvvsqbnquu7fT0dH6P9ojtPn+ZeNuBEUBsDwzlvg6E2O4LU/83IbYBeDQ9MAJtsVWKgaKxFlelJUhqr1+/nvcSW5UEs/zqfVvbKS/h6k3CNHXqkzR9+pM0c/KTLLqNYJ1M41Mnc91bLUuqbVj7POFJYttEBxt5OnyB+uUZmglK5SNPqtveSdtbzT4vZrEpqV3L++2NtTxZbMWblmpdfJzWl35Oa3ky2bO0tbFUHPKw0hB8iuaqcmWEsV7uc/5AMZfGZ8/mSWPTefKYxPZ8Gpucyx82mg8cs73FMZqcU5W1ct3aPC7NgX9x773titot3vb+fjf3a5UkcukvjcV22sp1mLfTllbQW19KG2uLaVPb+uIrse0toasorUqyba4t5PcMpY28RK4itdoksYrYeqUx5dsqv1YRXU0a0zY6Onpgv3scCAL7IYDY7ofSwb0HsQ2wRGwD8Gh6KAQkCzk3cXU1589qL4lHg9X1AAAgAElEQVSV1HpTfVvJrqK2SleQ4Cqqqa++0/BojhQqnzOXk1Iu50nlc0ps59P49Jk0PjOfxiZP5ffnbch7J9VazA5fbHvxzV2Wr8dqmx83CwP0XtF+W9Ha1bS9uZq2tG2spOXnt9OK8mmf3c6Cq8liZW1bSXD1h+rOKvd5bDqNjM+kkfHpnJIwefJympq7nKO2WWzzBw1Vs5jL+6ERj0mvukJLZNtL6u5HUuNi+8uz5AoTrgusDx7b62lrfTFtrEhcX6aNtRdp9aVybJUScjdPIttY+TmP19b6ctraXEmjwztZXD05TIszSGy1ypjSECS2Et7x8fGcW6u9PozxgEBNAohtTdopIbYB3ohtAB5ND4WAS34pautN5b/KlcgUsVXereRWk8vygg0bWymlnICZt7Gp081M/F6pKYmuhHY8y+18/mp8eGQs5+YOS4YlU2pviVL0tkLEdl9imyRQPbnd0WIWEtvltLW+kiOxeq5cWqUg5DzOBdVHfZ6jh1vrS2lzfTltb60fyni9+aASW+U+TzYpIkpLUF3b2XO5pu3E3IU8sWx88mQaVZm2LLgn0ojGQx84LLitWXzvI7a/5Pw+OF6XW4nt9vZW2tG2s5W2N9dzJFYLZehDhSKzq0uPmvq1ebLYg/z6zvZ6ShqP7c2c412W8tJEMZX7ktBqkQbVsFVubTOxrtkQ2/cZO9pECCC2EXrv3haxfXdmuy0Q2wA8mh4aAUVsy025tl6sQbVsVf6rrHMruVV0d1uz1Xsz1hUhlMB6JTJFaiWzihjqZ2OTp5u0hdGxXvrCWJ7J3+SHNmkJNR79zvKLqK0jgz2J2t7aSJsbElaJ62KW11wvNefUPkrrS4/TxupCjuZubzRRXUV56z+U2jH6GuecjpDH4Eya0JhopbipU1loJb2jUyeyDGtxh/yBI2+vIukHlYqQI+HvCuS1HJFeTeCtzfxBI2+ba43Yrr7MebSK2uYSbEvNZDFF0Xe2ltNQ2kkjQ9tpeGgnTU2O53Je3rQQgxdk0F6iq9xbpR94K1cde9dL4P0QeB8CiO37UHv/Nojt+7NLiG0AHk0PjYBKfnm5XAmu8m1VCUELNnhZ3XLBBv1seXklT+Rp8k+305ByO8dV17aXv6mIYJYoRW21Qtnp3mSz8bwfGhnvpSU0Ed9ci7WS3L4Oss9X3hbavJdAKTKoPE7laS7kXM7VpSe9xRl+zl93b26spJ2tjSQJ1j7Xrj2KR16BTBFxRcc1mWw617ZtJpNprxSE5nkW3EmJbfOBQ2MiwW3E1nFajc2759iGL/21RTOaMcqRWjHe3kjbm9pWd6O1OWK70lsJbvV5Wu/9O+2sp7ERcWhWwJudmU5aJldRWu21KR1BmyK5yrlVXq3zwXNO+FEVWA5D5ADHlQBiW3fkENsAb8Q2AI+mh0ZA6QheZld75dkqKuvUAwmu8mxd21bRXNW+XV9X/dCNvM+RwrHm62+V9sr1baea6KD2Eiq9Njw6kUZG9VX5RBawRmolTvWitm8T2+br7s207ehgFqiFYhLSy2Yp3dXetraQo4fK/0xKYzjUBRnedhs4Aq4SYJpMNpHLsWk8NFFMW7NaXLNiXE4RGVUe6auJgDl3+g1i+86R17d1uc/rry9B/Epst7bWc5qHeCs6vrHepCE0qQgv8geQjXV9CFnK28iwls0dy/mykxMT6cSJuZx2oE25tRJblffyYgyqkqD3NpPomnsSsX2PAaRJiABiG8L3zo0R23dG9qoBYhuAR9NDI1CuRKbnSjNQnq3r2kpyLbbKvVX09vnzF2llZTlHblX+S06nKKGif3mfZ+e/WnJ3dHyul/tpsR3Pk8hymarddIRDu8S3HLiVy7nd5NVKbBvBLSO2zez7DYmTBCqnJiznKGJTXqHJzT3aR1P+S3Kq8VDObd5Gm5rDqlChLa8cNzGXxbapbtEbv19EbH95NTWusC23+uCQpTZHxVWlYnU3kr6xrg8eSgdZaaRX6SCbq2lsbCSvLjY7M7Nb3ku5tJZbpR9oIpkmjKlagurWasKYhTZX7jiSbxKO9g7i7EdLALGtyx+xDfBGbAPwaHpoBMoFG3QSTSJT5QNFZbVXlQRFaSW32vT86dOnuUrCixcv835jc1OZjE2lBFU9GBlvJGpMq5PN5MUcskAVEmWx3c2zPbQrfNuB95qkJLHVJKWNtL2xnNMN8iSyvDXVEXKVhJxTq8l0zQpm75FN+rYOvuPrTh1oFm3I9YZzuoHSQCZztQRtTfWE6V6ObZO+kNMY9IEjP3r1cVtnryG1+ZR9cmz1geNVOsJ6HgtN1tvMk/uWU8ofMDbT0M5mSjtbaWpqvJHWXnkvRWaVhuBNObUSWtWsdW3bsm4tYvuOtx5vPxACiO2BYNz3QRDbfaP65RsR2wA8mh4agbbYKs9WUVhtSkuQuCqvVkLryWRaxEGR3MePn+SUhVVNJsteN9T4yFAjVF7E4VVEsC1Qr6KLgxIYyyWlytn3SknYamrYZonN0cImcqhIrURLS+c2j2ra95b74VVtW5Vkk7AOD6uG8FiTBrKbEqK8Wo1J8548eaxdU/goBqbPB4SmKkIvip4FtzcuGxqb1RzNHU7bebU0LdWsldO0GIPyZvN25kxOO1CU1pvyaiW0rlmr+rXKqy2Flojtof3p4cB7EEBs694aiG2AN2IbgEfTQyPw+le+qnSgZUu1VGmTQ6sFGVTuy9URtJfoeq/nS0vLaWtby802E8qy2w41E5jyRKYhSVVTVkqC1URrXRWhl9F5FALVj2quiqA82yZfNkdtc0qCJHYz7exs7L4moW0mig2K0LYvqPdVeq/yRFND2CKr8SnGJOeUelyK4xzJuDj6XfRDYrvTK/e1+8GjJ7g94R0d0SSx0TQ6NprGxkZzpFZRWU0O814VEfRcm1cZU/qBtn7lvRDbQ/vTw4ER2/S3P32brly5nFelPKoHYhsgj9gG4NG0GoGySoIkVZFbpR4oSivB1Xb37t28KYqrvUqESYbXVA93bS1tSm53GqlSFDerq8QpS22zEEAjtno4z7baJb75RJqRb2G13O4KlUS2l3YwIN19t240FSi8UEYutdYTWq0C98vSa3XKsPW/hl8sCdcbF3/o0Ovbu7nNQzvbaWJiPE1OTqXJyYm8epjyZ1XSy+W9JLOK2mpTtNaTxSjv9W53Ee8+XAJEbA+X7y8+/u+0wzuHeH6d6tbtO+m776+n767dSNeu30h37z1MCzn3bynn/62sHsEKP+95zYjte4KjWVUCZYUEV0mQuGoymfJttTli6yiuVyRTdFe/l0pN0CIH27nigrovCWlKellqX4+EOSWh6qX2PdluVYO8AplEVqIrUW+Et0k7GNQI7dv49fJmiw8XLrX2at+W2aOQ2z58C/659vDOTm+S11BOOxgeGsoTxJRaMDenbS5HZMsIrSK3klnl1WqvxRi8uphLfBGhfds9xOuHTQCxPWzCrx+fiG2AN2IbgEfTagRcJcGCq3QE1bb1ZDJJrqK3rnGrvfJss/T25FfvzTVue6kJOpZXKfOM/UEViCa981WFg+az/KuVyJqBOK5im3NEXlv17VUNYdcUrnarvfuJWpUnRkaG81eYjZQOZ2G1tCpaq8is0w4ktfq3hLeR37k0PT2dF2JweS+X+Hr3jtECAgdHALE9OJb7ORJiux9Ke7wHsQ3Ao2k1Au3JZPojqxJg3iS5Sk1QfVulJWi/+7z37xfPnzc5ulrVbGMzbW5plrouoYj+HUnu5j4w7s7G79VPtcgORMWDffR/v2/p8X+1ZG5vbAZ+XJoL1Acj5dG+Wv52NEdoy1QDL77g/FrJriaKKU1Be0VrLbOeMDaoH7j2O6y87/gTQGzrjiFiG+CN2Abg0bQagXa2kf5dLrmrXFqlHngBB1VHkNg6LUERXImvRFhVFbSpzasUB32l30RBj7zka1+qxzgaeyB3yVGkHry94/LtRj61eMJQjtJqMQUJal6AYXIy582WE8X0XLLrVcWUfvBKhMdytLZd0guxfftY8I7DJYDYHi7f9tER2wBvxDYAj6ZHRkAS2qQVqDrAdo7EKo9Wizh4IQfJraO32ktsnbqgvFttaidB9t6iWzFt/8gYcuL3J2DRVGTVk7wkp4q2Kqe2TC2QxHp5XEVu9W+nJngBBh9jr5xaxPb9x4qWB0MAsT0Yjvs9CmK7X1J93ofYBuDR9MgItJfcdZ1byarkVXvl1yqC601i65XLtJcAO3qrvaK5uSxYsZzvkV0gJx5YAmU0VULqyKz2yo8t82kVjdUCDJJZ77U4gxdfcL1aCe2bcmoR24G9HTrTMcS27lAjtgHeiG0AHk2PjIAnkzmyqj+6irrm8l693FtXTZDASnIltoriapKZF3Nw5FZ75elKkF1arFzW98gulBMPHIEy/1VRWsmsorSO1Jb5tEo3UA6tNkmuNsmsUhQkwtq8qliZT9sWWcR24G6DznUIsa075IhtgDdiG4BH0yMlUKYLOMrq9AQJqkRVcqvNy/B6UplybiW3fl17ya2jtmWagy6ylNz2ef36kcLg5O9NwNLYTx7bk7fKqKqeS1BdzUDpB4rWOp/WlQ/0M0VpvamNIr2K0nrf7jwi+97DScNDIoDYHhLYPQ6L2AZ4I7YBeDQdGAJlOTDnySq9QHLrqKzktVlyt9mUoqCleSW9ll9PKvMqZ2UEtx3JLfNx/byUXPJ0B+b2eK0jbZFtVyDwv0uJde6r9uVEL00Sk9BqU/1ZSaxSDhy1LUt5uZ6tqx6Uxx9MUvQKAq8IILZ17wbENsAbsQ3Ao+nAEChTE/y8TEuw5HpymYRWzy20klttkmC9VyubWXK9jK+rMDiaW0Z1y5XR2qXJENzBuE3K3Fg/7yev+plFVhFViaz3ktKyNJfSECy13isyW0Zp9X63cepBKdN6zgMCg04Asa07QohtgDdiG4BH04EhUMqkn0tE9cfYVQ8kus6ldSTXQuu9Jp5503sluGW9XB3DgutKCmX6gyef7ZW6MDDAOtqRtlCWkdgyPcBVCiSiklnnw0pkPfGrXf3AlRCcbyuZ1XNHeC3HlmkNQbusV0eHhcs+BgQQ27qDhNgGeCO2AXg0HRgC/aKizcpir/JjXRbMaQYuESaplcyW+baK6DrvVhIswXUU15PUynSFsmxYmaLABLSBuUV6S90O78qkc1zLcl0u2eW9F03Q3tHZMl9W6Qdljq3eIxHW5khvKdOi0Y7Qkk87OPcIPdmbAGJb9+5AbAO8EdsAPJoONIG27DpdwJHc/Ie6Vw3BEVxHay27+nmZmqDorVMTSrEtF4toR237LS4x0OA+gM7tNRGsHbG1fLbl1mLrUl4SW22O0jqvVlIrmXVlBL1HbV2+y/sSKSL7AdxgHbwExLbuoCO2Ad6IbQAeTQeaQD+hLHNh9dx1bMsVyRyddYRWrzlft8y37ZeK4Mlm7ZzfgQbVkc5JKNsTw9qpCKXoOoWgXzqCZbYs2+X3taWW0l0ducE+8MtEbOsOMGIb4I3YBuDRdKAJ9BPbUjidmmBBlZRKYB2JdT7tXjJbTiYrhZmI7dHfFvuN2HrlsPaEMUdwy0iunjvNoNy331sKdL8cWiK2R39/0IN3J4DYvjuzSAvENkAPsQ3Ao+lAE9hPCkB7pbF2RNf/9tK9ZRqDf9Zu069Cg0C1qyUMNLzj2rmhodzz3ZJexXW0F0CwgJarfnkCWSm6jur6Z+1atmUUeD8ii9ge15ur2/1GbOuOP2Ib4I3YBuDR9IMj0E9KvfiDJ4VZaEuxLZfhbVdEoPxX5dtkD7ndq9yXBbctrBbe8vWyBu6bFnaofMWcDgKHTgCxPXTEr50AsQ3wRmwD8Gj6wRHoJ6EW2rft++XVUhXhiG6RntyWZ1csty2mZRS3HXm16JY1b9syS/T1iMaX01YngNjWRY7YBngjtgF4NP3gCOwVXd0rkkt0doBvgT3k1j1+k+S20xac3oDYDvB407VDJYDYHireXxwcsQ3wRmwD8Gj6wRF4U17uflMK9pPb+8GBG8QLaoltk3376rFXtHUved1rQtogXjp9gsBBE0BsD5rom4+H2AZ4I7YBeDSFAAQgAAEIdIAAYlt3kBHbAG/ENgCPphCAAAQgAIEOEEBs6w4yYhvgjdgG4NEUAhCAAAQg0AECiG3dQUZsA7wR2wA8mkIAAhCAAAQ6QACxrTvIiG2AN2IbgEdTCEAAAhCAQAcIILZ1BxmxDfBGbAPwaAoBCEAAAhDoAAHEtu4gI7YB3ohtAB5NIQABCEAAAh0ggNjWHWTENsAbsQ3AoykEIAABCECgAwQQ27qDjNgGeCO2AXg0/aAItBdW2OviWEb1gxr2fV8M98e+UfHGD5AAYlt3UBHbAG/ENgCPpseeQL9VwtorjOki26tR+WeHIbl7CdReP9+rD28TsXa7fsd52zHe9wbox7g8VtmXWit+9bvWd11Fbq/75H050Q4Cg0IAsa07EohtgDdiG4BH02NPoN8yudvb20k/174ttRKX4eHh/HPtD1tsS7HaS7jVh7Ifb1v61+8/KrFV/8zXz0vO5YeGd+lr9GZ8E+t+TP2zso+l2PaT3GgfaQ+BoyKA2NYlj9gGeCO2AXg0PfYESmGxbElovelnpbhIZi20fn7QEPoJrAWwLYIWbUtU+Xr7eVsYLejuf62IrTnrP5T+ENEWW7M16/1IeHQc9hLbNvvy3+532d+Sc/u6on2kPQSOigBiW5c8YhvgjdgG4NH02BNoi63+eJebXm+LbCkxIyMjB85gL7FtR5L7CXZbZt3Gx3yTlNcSW/XJjP0Boi2DZiy+/SLjtSLl/aLL5QcfR+7Vz7KvZRT9MPp64DcdB4TAWwggtnVvEcQ2wBuxDcCj6bEnUEbfJCwbGxtpfX09ra2t5b1el7CMjo6+th8bG9v9dxtCVGRKmbKYbm5uZhnUXpveoz5oGx8fz/tSfC1fbqe2euh9uhb3v9/X6OX1lMdsR1pLKe13I/jY7Q8Caqd+ibU29a18r56rj+Xm6PKb2JYS3051eFuaQfmBoDxOm6ne50izXlO/xHJiYmJ3HCy4ZXT/2P+icAGdJ4DY1r0FENsAb8Q2AI+mx55AW1xWVlbS4uJi3paXl7MsWlokkO3nkpqD/prc8mSJ1V6Svbq6moVbe71namoqzc7OppmZmTQ9Pf1apNni6DZqr4fe503XU8pXO1dX728LtURUfbD4+7jljVBGhf2hQOfypveqX+6bjqk2ZdRTnMtNr+2Vs2opbfe1X/S9X1pBO/WkHU22yJZC6zaSb/HXOGgTW12nPzxoH/2gc+x/ybiAD4IAYlt3GBHbAG/ENgCPpseeQCk1EqOFhYX0/Pnz9OzZs7zX6xLI9iaB0c8kX20hjIqM5MuRY0ePS+FeWlrK/Tp58mQ6ffp0mp+fT6dOncptLMF6rjZ6rzZJuvp14sSJ3E6brkHi1c5nLQdV57fM6nn7mDquH85HtqQ64ipGlm+dU+9TO314UN8kyRLXMpqs95VtSkFs83V0Vv0ro+2OCJeR4XZqQVt+/e/yQ0UZKW9HsHVtYq8xOHPmTOaq+6IU+XYu87H/peECOkkAsa077IhtgDdiG4BH02NPoIzCSYoks48ePcrbkydPsig6GtdvL4lp54AehNhaIiWSimxauF+8eJGlW4J17ty5dOHChbydP3/+NalTG4mj3q9N7dWvs2fPZgHTXpLrlARHS9t9d4RY/bDUipE2H7cttqWkSvAkqRZq7SWX6o/av3z5Mh9X4lrKoN43Nze3u+m1fhUSLKoaR12z+1lGhC27GstSTEthtcj6w0EpxWXaRFtsdW1if+nSpbyJq4R8cnIyC672iO2x/zPBBaSUvxFaWl7Jv7sLi4tpYWEx3fzxp/TddzfSf67dSN9fu56e/vw8/34fx8fnVz9Jf/3zt+mvf/lj+tufvk1XrlxOo6MHP4div2wQ2/2S6vM+xDYAj6YDTaD9B7Y9UUydLyN2kriff/453b9/P28PHz7MYivJ8ibZKqVLYuMJZO1ST3tNIHrbJC3102LqiKuFVkKpPuo9Fy9eTB999FHeLl++vJumYKlTG71Xm9rpYRHWXpHG8mvz8ut+D6yYOLKqvkhEnz59untcnaO8zna0VuIs0XNkWXv1XcdxZFzR2zJPVVFQRT7VP2163k6bKG88p27oOI5Oa2/J9YcDi205ec3S6si0/92O2Jb3SSnyujaPg8ZAXPUBqIzwI7YD/WeCzu2TAGK7T1AH9DbENgASsQ3Ao+lAE2hXCPBX1hYbT2JybqYkTtImqX3w4EGO2uq1UmbbkUSJbTti67xSS15Zsmqv2reldKtfkjRHWx3ZzJGS3ibwihBKaq9cuZKfO/dVe8mcIruKOj9+/HhXhh3dtdgqouhcVsllW8J0HJ/TMipGOq72+ll7olcp7jqe5E9f1fvrevVd7dQ/bY7Yqi/OY26LrfroqLInZ5U3n/6j6/SGMkfaoqvXPOmunJDnaK7Z6Zjl5LGynFo5jpZ5jb8i54raatM16mfmSsR2oP9E0Ll3IIDYvgOsA3grYhuAiNgG4NF0oAm0Jwq56oH+QJdfOTs6p0inopuSWkVrJYR6n8VWkTh/Pe7n/cTWE4dcraCdx9ovgldKuPojOZM4OjoquSy/ZtcxJbOKEpYRWwuaxVbXoU0iquuWhFnEFD2VdDq62E/CJIYWbEdYxUX90l6C6q/cLaZl1QM9FyN9Re80CEmhjunjWWzLyWLOA9ZeHyZ0DleBsEiXEfL8H92lpczNIu5/W3Qttr5pnTtsrmJXlhmTQFu0S/kvJ7mpX44si6f6qveW1SqI2A70nwk6t08CiO0+QR3Q2xDbAEjENgCPpgNNoF22SX+YPcGo3Duf0mKrSK1l0BFbCe1+c2wtQY7alXmsltw2uFLCdU6Jn/uhveSs/Hpc59BX4BbbMmLr/FzJpyS9TKuQ1FoyJWLldUnS2nV5JYmOrDqtQf2R1EqW1c9S9nUM9VMRUgmj+qKf6ZyWaomeI7aS23Yqgrg59cNi62oDzsN1dNkiqrG11OrY2soIt/6tfpUy7H46qqvx94cRC63Ev319ZcUDjYMnunmyW3u8oznXA/1LRuc6QwCxrTvUiG2AN2IbgEfTgSbQLuMkgS0nFZWlsDxJShInaXNUspw8JsGRvLi8kysjtNMLJGaOhJblnxxp7LeoQ1l3Ved0ru/du3fTvXv3siSWVQckixZbT1wqS3Dp/RJbtdcmuZVkeuKY9hJbi6NEUuLe7ptzah09FheLrfZ6XcfRpsilrlv9kFTqNUmr5M9f1Wuvc5Q5tuqrI5wup1aKrbnrNbF1ZLhMTdBY+5xO3Sj3eu5avpZhR8YtxOpHmRursdM1iZVTKcSolOtShJ2vXC7UsFfqyUD/4tA5CPQhgNjWvS0Q2wBvxDYAj6YDTaBdf1Ri58lY3ltunZfqyVkSOT3XMdoROdeBdbkvQSglWnJXCqP+XX6lLYkrH2XdWkeVnesrqZWUqn+eYOXyWYqCWhj1vJy974lwbq8ItMStTKuQPFpIHb119QELWSm2itBqc9UIpyL4q3jtxcZiK9EUZx3TaQiSREUwXeVBjNUvV1KwKDr66b2j5Y4wtyO44ukc23ak1v92xNb5sfqgU8qw2lucLbgaR0utUzdcwaFcIKOs6GCx3avSxED/0tA5COxBALGte2sgtgHeiG0AHk0HmkA5k11SI+GSqJWTsSQzLhOl5y5DJeHSe50jWkbyLD/ae8WvsjyUZEgiJyFyWS21dxRXYlo+nPvr9AiJXlmdQWJrwbbYeXKVxVRSWc72d+myMl/YkmkJ86QuyaY2V0koI6Hi4WhtW2wdsXVfXBu3HbEVI0d1tdfDEVunIngFr1IWHb3VXtctnj6O68VqDFyZoqwkUVZyKHNsy5JhYlT2Q+8rz6kxK+Xf4l6uQld+2HAkuVyVjgUaBvpPBJ17BwKI7TvAOoC3IrYBiIhtAB5NB5pAWafUs+bLfFE9l8yWmyXIYiRZLEW2vfKYJLCcWS+5kiQqTUCb0gQkY55s5lJQbbF1ioT26k9ZnUFyqocXAvCCDGV+rCS1zNPV9Urgy9QBXZMefp+uS331ZDI918/KHNK9xFYR4FJsXadWMigeZSqCjteuY9tPbMuli9tRT4msKzooSq2+ltcvWZdQO7fX5b5cAkwfFpyKYPZ6vyP0/iBTphmIhc5hcfcktnLymCPxvkfKpXW94ASTxwb6zwSd2ycBxHafoA7obYhtACRiG4BH04Em4OoHroAg2fFsfufQWmDLGqiWI+e1lrP1y0oHTikoI746h8Tr448/zptKcUkcSzmS3JYP9dMri3kmv6KjkkdHXCWHOo5kWYJnCXXeqVdA03ElUhJyXZuv06W5nEusvY6piLIFXM+dXuFIZD+xtdRqL3l22oX2EjyLrVMR1B9LqPbqWym2umaX1bI0lqXZLPUubaa9GLhygoRf16+ovMfCHxRcw7af2LpyhKLj4qNrsdQ751cfGHR8l3nT9bmvui69vx3NLz/8uP7uQP+i0DkI7IMAYrsPSAf4FsQ2ABOxDcCj6UATaJf1sthabiU0ltgy0mfJlRzpUa4i1Y7I6fVyhS/JkaSzXDhBQlp+jd5PbL34QZkKUS6EINGSzFlsFQX2JCiLlr/G91fhug6vEuaVwizy2qud+uU8XfXb6RK+Zr3P1RBcv/ZtYuvcVYutI7aeEOaJXl62WIKpvlhq9f4yX1jjqLYlU3Eoc3sll15GuL0wg9NN2uW+NL7qg6+vXZPXi0tYajVu5RLK6rNXViuXAC5rA+v97YgtVRIG+s8GnduDAGJb99ZAbAO8EdsAPJoONAGnIjhi69xVpyNI9srJY3pe1j51JFFC40oIjmhacBVZ1HFc/kpfzyuS6K/3XV7Leaz+Ct3gJDkSLk+mUt+8VK3TItQPyVI5WUyRT0800/XpuVbMOgYAACAASURBVPpmwXLk1DP+tXd+sSVXguncVac3uDqCJ2vp3OblXFuLra5VfS3TDHR+RWzLSgPtHFtdc9kXiacnj/nre5csc6UH9cfpHdpLxkux9fU6rcSTA8tIvDiVD6ciuJ5uP7HV9ZiFJwGWebq6D9oT28q6vl5yuTwvYjvQfzboHGLLkrrXrt9Id+897K2dvJT/A7WyunZsfjkQ22MzVHT0HQlYbL2X2PorcMujJ31JLl01wZPLHNUsv2ovI5qSKYmtpNZlubTXz11KS3uX2HIdVx2vFFv1Qed0RNSrcVnI1TcJliejOWXA6QvqpwROgmnZc1TYX8V7Ypy/dtfeNWbL5YLLr/d1LH9dX8ptWV9XPEs+pdiqX2ov+Svr5yqCaZHXdXuBhrKygH7m+rIuwyWZLfOB1T9PntM5+n0w0Xn8AcFi61XedP1lSTC9r4waO83AJd5ciaEttuWSy3ruqhneE7F9x19c3j6QBIjY1h0WIrYB3ohtAB5NB5pAW2wVoWuvTFWW6Sojp55M5K/rnUpgcXF0VJKkklo3b95Mt27dypvkyFFeVx4o67hKyPRwSS0JlsTR9WEluJKwckleHUcS534osikp89fo6q8XQXBFBvXDcuy813IymevHuh5veQ7XbpUsepUwnUN96ye2FmKLraRUUqn2rrnrNAr1yykXFltJbbkMbbnYgqsVlFFvR5gttmqvc5XL/5bPvUBDucJbmQus19XncjlkMXbVBTNyOTTLrYS6XP7XEe+y1nG7NjAR24H+s0HniNgSsSViy98BCBw9AUfhyp643JdX7HIZKkuTopj9lmV1dFLSJSlxDVbtJTGurSrZkRjfuXMnXbt2LV2/fj1vepSSJpGV2HpWv/5dSqv6Z7HV1/ySVR23nLTmFbCc76n27Ylw7a/qJWEuAebFCLz4hFcz03EcKXWk2SuTaS9m5ZK66tvbxFYy7VxeyaY4eflf7SWMZcRW79G1lpOwylQFvVfR07KerIXWQq32Gk+vONZeeUzH6BexdYqGXndKhCsyWGz9IcbL+pYRW6+S5kh5O5VDH3D8Aaa8147+N4YeQODdCBCxfTde0XcTsQ0QJGIbgEfTgSHQT2ydXiChcc6ml1uVrJVfPUtmdAxFMS1yFiqLnqsbOHon0ZE4/vTTT7tiK8G1lLoUlPJYnYbgerHlRC+dt1wIQZFRPUrRs+RaQvUfGclwmb5geXTVALUpF6mQuElMPWFK/9a5de2eCCVRdLRWe39dbyZq386xddUA7T2Jy7nKEmOLrVdIs9g6Eqz3eLKaUz3KqgnOfS0j1jpXmQIhLk63KEuNlaXcxKIdsfX9oL3vB68Q51SEMrVAffdkPTNzdNYl3fxvr5jmWrZtwR2YXx46AoF9EEBs9wHpAN+C2AZgIrYBeDQdGAL9xNZL6LrElWRLMuXZ+JKZUjAlHuXX2ZIivW4pleBa3ixi+mMvsf3++++z3FpsLUcSLolOuSyrjvGq7ulkjuipb00Fg2dZsCRNZW6njqeHr1P9dA1Wyaauy+WwVGJMEqlzlGKrNhY5RyidimHBlYxZIBUhbS9qUYqtBNc5tmUqgri3xdYlxbQX07KShOTZX/n7mj1OnkzXjtiKofrqTcfUhxKnH+j47SWTda3mp72l3ZPp/EHG6Qg6pkRdwupJee1UBEd1fT/4faXkekGHcqndgfnFoSMQ2CcBxHafoA7obYhtACRiG4BH04Eh0E9sLbQu5SVxcZTTMlh+3S8BaX+NLpEpKxyUK145Inr79u1dsZXg6j8ATjXQMSU75QphJ0406Qze9J5SqFdWmioBZe1XgS5r0L4SYcnw8yx0EtpPPvkkb5cvX86y2F6NrCxvpnOWK6bpHBIyT8pSny22FuK3ia1E0GkP6qMjtkrDkGxLbHW9TgHQcT2JzTzUB1cq0Pn0vC22GoeyGoFeL8VW59Zxy9XnxKL8cOCqCE49aVdFcCmvsipCWS9YHz7Kureu/eu0EbcrVyJzibaB+cWhIxDYJwHEdp+gDuhtiG0AJGIbgEfTgSHQT2y9ipdLPnmxAS1+4IL87eVxJWWWP4mPRKac+OVFCCzEEsMff/wxR2oltdp0jDJKJ7Eto4tzcyfSiROKNmp/Ik1OTqT19Y0kodW5vXhCuVqZ/qPir9idP1qukqZ2ElsvDCGxtXg7x9gS66V7naLhvZcPdvRVfXuT2LrcV5kWoGvtl2MrsfXmiK2jq+qPGfmaPVFN46TnEv0yx9a5zv7aX6+3xdZ1a8v0g/K5rs1SW0aGS1ltpxW0xdYfYMoor8XWH0wkyH5dx2YlsoH5s0FH3oEAYvsOsA7grYhtACJiG4BH04EhUH7F7E65/JNrmkoIyyV1JVbOWZWwSDq8CpijmRJfRWw98UtCVS7SIIlTJQSL7XfffZdP7/xaC7Brm2rv1ayaCUen08zMdNra2k7r62tpbW09i/HIyHCanJxKU1OTOfJqCXOOrPruiKTer36XX/dLxiVTaudNfS2X3XUagqOa6rf752ijS6Q5H9aTx1xdQUwttmLjqggusyXhVv9dqkssJbb6uSeYqf9iUpbN0jjpA4g2PS/FVoLrc/mrf8miJ4+5wkEptmWk1vdKGbF1FYwyv1b9fFsdW0dtXSZM42459/U43cXHRmwH5s8GHXkHAojtO8A6gLcitgGIiG0AHk0HhkBbbPVvyWkZ1XTE05Km18ronOREf7xLEZTYtCO2khdLiuRSEVtHayW2Ok65EpXk1uKjvUTvVemqs2nuxFzOqd3a3NrNibUwjY6O5LaSc0meqxroWspFDdSnshyW0ggkrpZ67RthHnktmuwZ/v6K3NUJnDPaTnkoxVb9sdg61ULX7UoKFkz3zdUlnHohaZaMqp+SQUeKtXeVCJ1D57TYOlfZKSGuWKDr8OptklSN7V5i65vWYut83vbksTLH1mkSuhY9ysoIZXRe/BSpbU9s88IT2iO2A/Nng468AwHE9h1gHcBbEdsARMQ2AI+mA0OgFFs/9wIGjh76q2/vXbfU0inh8DK8ElYvjOBSXYraKgrnnElHRBWxLcVW8lNGH112yxFStd+NYJ4/n06fOp1Gx0bTUKNMaWiomSRWbpKvBw8epPv37+e9JMxRTkmUZKo8p14rJ0e5jqvLkEkIHa1Wf/S8nEjn5zpPGeWWZHqVNaUJiKWkthRbT2zzIhgSP79Hex27zBfWVXvSmstmOZdX59J5SrGV3DolxJFwiab66iWE+9WtbX/4aVd8KMXWHxrak8dcFaEs3eUPOWpjsfUCHbqeNtt2XduB+SWiIxB4AwHEtu7tgdgGeCO2AXg0HRgCbxPbcgUqfw0u8S2jb3ou+XROqp5LEMsatBIw50lKhHUMRWwVqZXcau9VwpwTKhkq81rVzvmm5y9cyLmjOao7rOjscI7oNakJ62ljQ9tGjlpKar3Cma5B7cqKDWV5MMmUlxCWGEpOdZxy0prLlnkv6fW1eQa/uJWrlbm8mJfXlQyWk810LJ3Xk7/UXtdTRmN1jrIUmySxPIauS8eXwHvRCvWnjEi7soQjzDqGa+M6reBtqQjtlcfaVRHaK4+JXVtsy0mCbbF1iob6WH5oQGwH5s8GHXkHAojtO8A6gLcitgGIiG0AHk0HhkA/sS1zbJ3P6YlkitZKwJyf6rJY5SQ0yZK+Ii+rIrQL7ut4ZcRWclu2kRRLbCy22kuGzp47tyuljuo1YtvUlNX7mhqsS3kvMXVeq2RPEU99te/cX52njMBKypy+4K/zPUnLdVnLSU5lzVWnJagfrq/rfNdSbCW84lquvCW5bkdsdbyygoEkT5zNXH0VA4urxFbX6ui0rldcyoUjLLaO2LZzbMtUBN+k7QmGzlu2hLerIrRzbHUNZbkvHbdcaMNpLXpfGT0vc2xJRRiYPxl05B0JILbvCCz4dsQ2ABCxDcCj6cAQ6Dd5TOIieS23MudUwigJ8ybxk8w5H1ISI+ErF2iQFOo9ThPoJ7YSPZW2Ul1ZTehSGwm0l7eVDDlCeer06XyO3cL/Q8OqVlssFPEyvXz5Itep9Wpceq5oskSwzP8tUyr81XwppF4IwRPanNfqNAGnWZRiq3OVq5U5Uqu9xbaUOE90cz6zeOtRLnIgruViBeqP+mDOui7JrJYq1qZ6uRZbfcjQ+/T+8ph63VUw/KHFCzLsJbZ6f3k9LitWjn8pqRon9bWM8nuxBke4nZdb5liX5b78voH5xaEjENgnAcR2n6AO6G2IbQAkYhuAR9OBIdBPbF3GypPBHMFVNM/pCF5eV3sJsISr/Ipe0lZ+Ba4IoR6uJCCJcsTWlREUcVTZLdWTVQkuCZHeL7mVkEqGdst/nTiRzzcyLKFtJiXpPS5NZvHSv0sJ91fzFlvJXvnwamal2Or6yq/EFbFVX9VWwihZtHRabiV7EkuvNubobym2LmslCZTY6gNCGSFXX8olhp1z6ginrl+M3Q/1RWkIWqpYqReK3Op6y8oK6qvO59QKXZfG27m76kO5IIPYtCO2ugccBddeol7ycb5suVyurqOcOFauQubobVkbuZw46Nednzswvzx0BAL7IIDY7gPSAb4FsQ3ARGwD8Gg6MAT6ia0ngjlnVtJj4fLKWGUdU1dJcARSwiapkfx5NS4veuBjSjhd7stiKzH77LPPdjcdT/2zaElw2svlllFgHdtCKcGTVKq/pahJDksR1HMvxqC9JE8RXldSkIhK5Cys2ksK1VcvnKBjWGwdWfQkLsml5dZL8movZu0KEDq3Kx5or2tvC2NZP9hRcad8SGAVqZXYalU3PXdesuVWY1KmN0ggy/xopzm0b9Cyjq2Y6prEWJtYlekc6qPGzrnSXnWuLbblv8uc27JaQinAiO3A/NmgI+9AALF9B1gH8FbENgARsQ3Ao+nAEOi3QIO//vfCBOWSsl5Jy4sdSFAlYRIkR+hcsqlcXEGyomigJFl7tVdUURPIJLjalH7w+eefpy+++CLLrY5TPiQ2roXriF4pZTq2J4tJKLVJSsvSXP763sKtvWXOYltWNJAo6/rLY7iUmcRWCzpIbCXcTmnQtaofrsagfrjElyseqF8SZMut+iXuXs5W16J++eFUD4u968RaHrVX9NYT5SS3ei4xFldveo/FVnunCJQM/EGg3Pt19bEttpJ/T0bTXn3zBxudT4zV735i62i7XvOHgvJDRLvNwPzi0BEI7JMAYrtPUAf0NsQ2ABKxDcCj6cAQ6Ce2/mraE7ckMmXpKsleuYCB/nB7+VuXr/KEIYuozuNopKROQqyvsR1ZVQRQ8iWptdhKjsqHhKeMYHqymI7rdAlJlnNMtddrpTQ5/1cRRYt3W+C8TK+j084hdn5rKbaSW0VM9TP3Teew2KoPEkz9u5nU1mw6ZrkUriOn5WS5ctleCaUj1u1JbGWurjiWObY6rnKWvUnCy1QEi20/ibXMOjXFfdPYKZfXkWhdWynpOr7uA9fOlXQ7x7oUVUut9+Zb5ir7/eV7B+aXh45AYB8EENt9QDrAtyC2AZiIbQAeTQeGQD+xlcCUeakSmXKRA4lM+dW0RKT86lkio6+jy4fzR10L15FfSbIXfpB8SWoVtdUmOSrrnlpQHRlVH5zz60lX5eQpRYSd/+s2nqRUpjSUDPTckWXnneo/THtFbC22ErsyR1QfBBw1lmjqOsvSZTqmI6dq6xzkcrJcubSxrlMPcbVEluXGfD3lhwWNmX6unGUvGayUhHak2PnJTvtwXnOZilJOJCxTNZxj6w8KlmxHkCXSbxLbMiL9poguYjswfzLoyDsSQGzfEVjw7YhtACBiG4BH04Eh0E9sXRVBMiWhaS9yIGHy4gSKTkq2lDagyKWjdPq50w6017EssJI+yZHl2dFfTRhzxLYU21IqBc6RPf0HQ0Jb5vsqiiih9QQqi217ydeylFQ7iuiSWp7opn+X0URHbL0Ur65bklrKcpkSIbHV9ZZRUZ3TS8haNJ0v7PSKkpnEWD/30r0+lysR+PoUsXYNW0dSr169mlM7Pv30091qE476SsbLPGVda5mKIhn3gh1ejU7jWE6uE39H6l21wpPaLLa6xrelFbRzaN/274H5JaIjEHgDAcS27u2B2AZ4I7YBeDQdGAJvE1vLlScKaS95KiVO0iKxtdRKclwf1WXCJKAWW0ma/u2yUo7+Kl9VAiYRk4RJktoTjEpwnuhVpklI6sqVxiRl5XK4npjkyUrO6/Qkpf0MjK5d1+pJW/56v6wKoWv1V/WexFZGJ3Ve58m6nfpk+c3/MSxSQHSNEk59iLCUtmvD6viuLesPD5JnsRRTRW5Vv9fL/noVtVIgNRZOgXDkWv3w+Ll0WjkRTq+VEwWdhuCqGG/Lsd0Pc94DgeNKALGtO3KIbYA3YhuAR9OBIbBXKoLzVv1VvyN02kueJEVlPdRyaVo918NpBy4NVk48KyOpjjrqa3JPyNJeUvamKJ8nMvm4kkkJl0t9qa+Ss1Js+01QKnM69dwPsykjrXouoZTIewKanpuFpVEyWEqmotN6lNHnssKBjqmHlw/WtYm9rs3pGj6324mbKzo4uuzx0vl1TjF0fq2YSsLLlAmJ/pvE1ikk7sdekwfLyXhl9FYfTpSeUJb7ctR9YH4J6AgEDpEAYnuIcPscGrEN8EZsA/BoOjAE9po85tn5npRV5sJKVP2VeCm3Zc6n/pg7uucKCp6Mpb2igpI5R34V9bUcOT/TM+lLISzB6RyekFZGhkv5kiCW1QrKGfdlekEZudU5yjJoZeUFT+LStXrymVMJLJzqt9IrykUtPAGtFHXXpfVCBE6BcCqAJ7E5BUD9cAqI5FT913udytEsJbyxm0rgPN5yMQpJuM7rWrhesa2U+TJia7F1tN1VHZxz64lwGrOyxFtZEcMTCctxpHTXwPwJoCOHTACxPWTArcMjtgHeiG0AHk0HhsBeYuuJTs6DtaRJsvQzl6nyxCeJlvNWJUuSLcmwNy/koLaSIkuXBKgsD1bmnTqKaVhtGZLo+evyskyWpUs/03vaaQftclJt2W2Lrfpa5guLmfqma3aE1lFQy61Lh1kSvcBEO7WiPLcna5ULZJSVFHQMC6lY6+H8ZQt+GRHWsV2hwGXB9G9LfL/VvNqpCOLrNARFwyW2GktLtPqqfnkVNu8t+2UusMW23A/MLwIdgcAhEUBsDwnsHodFbAO8EdsAPJoODIE31bG1vLg6gCODkpmy5JTkxV9pW6wkWu1FHMpSVgKgr6jLKK1X2XKxfx3zTY/2RCeLoffO4W2nHzif1n1tv16Krb/qL6tE6LiSRk/YKifSWXD7RSTbFR7KayuFst/Kb5Z0p1Xo3K4KUUbC9fOy1q8Es4yevqmerK+7X3kvCa03fzApF3MoxVYfVJy/6760x5KI7cD8CaAjh0wAsT1kwERsDw4wYntwLDnS0RHoJ7btck/tr6Yljo5WWkb9lbZlURJc5tgq8lh+Ta73+et8l4hqLxmrY75NbN1X55i2965oUKYdtPN223VTfU6z0TFLKde/nd7gaHBZX1fP30ds+3Evz6v+6LhluTNXsHBOdBnR1fOyPJhk01UQHDU1i/Ka1Y9yrDR2pTxbsl0eTG29PLD3ZQRfPMrcZSK2R/f7zpnrE0Bs6zInYhvgjdgG4NF0YAj0E9tyiVmLYhkN1c/KxQhcaaAUFr3fsqW9BK2UTr3Xq1X56+pyKVU9b8tQG1pZd9WTrsq9qy20I7Sl1Om5z9PvfD5Hef1OK7AQWzTLXN69IpJl1LYdse3H3YKp85eSrnM7ylvKryPJjuyWObmWzfb1tyePOafYEVlH7B21Vp/M1rJd5hf7POWkPcR2YH7l6UhlAohtXeCIbYA3YhuAR9OBIbCX2FpcyvJTljz9rJQ5R0NLQbIclWJWVhcQgDK66KieJdTHfBsoH9N9K4VLbS1eb5K5st/9hLS8bp+vHfHst2rWm/rePk/Z73YVhrIsWhlt1vHLDx5qp0eZWuHnTpsoBbOfZLfH3bLtCW0+Xzm5Tud0ZQvv38aDVIS33dm8/qEQQGzrjiRiG+CN2Abg0XRgCPQTWwuhO1m+p3xefo39JlFrS5D/bYndSzr3Iz/tY0fB7iW273rct/X9TefZi1fZB7dvi3w/lntFif3e8rh7jXX5AaLfPeN7od8HkjelZbwrV94PgeNGALGtO2KIbYA3YhuAR9NjRWAv+e0nWv1keL8X+zYZ3O9xPpT37Yf72671IJi+Tz8O4rxvuzZeh8BxIIDY1h0lxDbAG7ENwKPpsSKwH7HpF7F914tEhl4nth/ub2N8EEzfpx8Hcd63XRuvQ+A4EEBs644SYhvgjdgG4NH0WBHYj9ggtgc/pPvh/razHoRgvk8/DuK8b7s2XofAcSCA2NYdJcQ2wBuxDcCj6bEi8DaxqZWXeqygHUBn38Z9P6c4CMF8n34cxHn3c328BwKDTgCxrTtCiG2AN2IbgEdTCEAAAhCAQAcIILZ1BxmxDfBGbAPwaAoBCEAAAhDoAAHEtu4gI7YB3ohtAB5NIQABCEAAAh0ggNjWHWTENsAbsQ3AoykEIAABCECgAwQQ27qDjNgGeCO2AXg0hQAEIAABCHSAAGJbd5AR2wBvxDYAj6YQgAAEIACBDhBAbOsOMmIb4I3YBuDRFAIQgAAEINABAoht3UFGbAO8EdsAPJpCAAIQgAAEOkAAsa07yIhtgDdiG4BHUwhAAAIQgEAHCCC2dQcZsQ3wRmwD8GgKAQhAAAIQ6AABxLbuICO2Ad6IbQAeTSEAAQhAAAIdIIDY1h1kxDbAG7ENwKMpBCAAAQhAoAMEENu6g4zYBngjtgF4NIUABCAAAQh0gABiW3eQEdsAb8Q2AI+mEIAABCAAgQ4QQGzrDjJiG+CN2Abg0RQCEIAABCDQAQKIbd1BRmwDvBHbADyaQgACEIAABDpAALGtO8iIbYA3YhuAR1MIQAACEIBABwggtnUHGbEN8EZsA/BoCgEIQAACEOgAAcS27iAjtgHeiG0AHk0hAAEIQAACHSCA2NYdZMQ2wBuxDcCjKQQgAAEIQKADBBDbuoOM2AZ4I7YBeDSFAAQgAAEIdIAAYlt3kBHbAG/ENgCPphCAAAQgAIEOEEBs6w4yYhvgjdgG4NEUAhCAAAQg0AECiG3dQUZsA7wR2wA8mkIAAhCAAAQ6QACxrTvIiG2AN2IbgEdTCEAAAhCAQAcIILZ1BxmxDfBGbAPwaAoBCEAAAhDoAAHEtu4gI7YB3ohtAB5NIQABCEAAAh0ggNjWHWTENsAbsQ3AoykEIAABCECgAwQQ27qDjNgGeCO2AXg0hQAEIAABCHSAAGJbd5AR2wBvxDYAj6YQgAAEIACBDhBAbOsOMmIb4I3YBuDRFAIQgAAEINABAoht3UFGbAO8EdsAPJpCAAIQgAAEOkAAsa07yIhtgDdiG4BHUwhAAAIQgEAHCCC2dQcZsQ3wRmwD8GgKAQhAAAIQ6AABxLbuICO2Ad6IbQAeTSEAAQhAAAIdIIDY1h1kxDbAG7ENwKMpBCAAAQhAoAMEENu6g4zYBngjtgF4NIUABCAAAQh0gABiW3eQEdsAb8Q2AI+mEIAABCAAgQ4QQGzrDjJiG+CN2Abg0RQCEIAABCDQAQKIbd1BRmwDvBHbADyaQgACEIAABDpAALGtO8iIbYA3YhuAR1MIQAACEIBABwggtnUHGbEN8EZsA/BoCgEIQAACEOgAAcS27iAjtgHeiG0AHk0hAAEIQAACHSCA2NYdZMQ2wBuxDcCjKQQgAAEIQKADBBDbuoOM2AZ4I7YBeDSFAAQgAAEIdIAAYlt3kBHbAG/ENgCPphCAAAQgAIEOEEBs6w4yYhvgjdgG4NEUAhCAAAQg0AECiG3dQUZsA7wR2wA8mkIAAhCAAAQ6QACxrTvIiG2AN2IbgEdTCEAAAhCAQAcIILZ1BxmxDfBGbAPwaAoBCEAAAhDoAAHEtu4gI7YB3ohtAB5NIQABCEAAAh0ggNjWHWTENsAbsQ3AoykEIAABCECgAwQQ27qDjNgGeCO2AXg0hQAEIAABCHSAAGJbd5AR2wBvxDYAj6YQgAAEIACBDhBAbOsOMmIb4I3YBuDRFAIQgAAEINABAoht3UFGbAO8EdsAPJpCAAIQgAAEOkAAsa07yIhtgDdiG4BHUwhAAAIQgEAHCCC2dQcZsQ3wRmwD8GgKAQhAAAIQ6AABxLbuICO2Ad6IbQAeTSEAAQhAAAIdIIDY1h1kxDbAG7ENwKMpBCAAAQhAoAMEENu6g4zYBngjtgF4NIUABCAAAQh0gABiW3eQEdsAb8Q2AI+mEIAABCAAgQ4QQGzrDjJiG+CN2Abg0RQCEIAABCDQAQKIbd1BRmwDvBHbADyaQgACEIAABDpAALGtO8iIbYA3YhuAR1MIQAACEIBABwggtnUHGbEN8EZsA/BoCgEIQAACEOgAAcS27iAjtgHeiG0AHk0hAAEIQAACHSCA2NYdZMQ2wBuxDcCjKQQgAAEIQKADBBDbuoOM2AZ4I7YBeDSFAAQgAAEIdIAAYlt3kBHbAG/ENgCPphCAAAQgAIEOEEBs6w4yYhvgjdgG4NEUAhCAAAQg0AECiG3dQUZsA7wR2wA8mkIAAhCAAAQ6QACxrTvIiG2AN2IbgEdTCEAAAhCAQAcIILZ1BxmxDfBGbAPwaAoBCEAAAhDoAAHEtu4gI7YB3ohtAB5NIQABCEAAAh0ggNjWHWTENsAbsQ3AoykEIAABCECgAwQQ27qDjNgGeCO2AXg0hQAEIAABCHSAAGJbd5AR2wBvxDYAj6YQgAAEIACBDhBAbOsOMmIb4I3YBuDRFAIQgAAEINABAoht3UFGbAO8EdsAPJpCAAIQgAAEOkAAsa07yIhtgDdiG4BHUwhAAAIQgEAHCCC2dQcZsQ3wRmwD8GgKAQhAAAIQ6AABxLbuICO2Ad6IbQAeTSEAAQhAAAIdIIDY1h1kv2+KnwAAIABJREFUxDbAG7ENwKMpBCAAAQhAoAMEENu6g4zYBngjtgF4NIUABCAAAQh0gABiW3eQEdsAb8Q2AI+mEIAABCAAgQ4QQGzrDjJiG+CN2Abg0RQCEIAABCDQAQKIbd1BRmwDvBHbADyaQgACEIAABDpAALGtO8iIbYA3YhuAR1MIQAACEIBABwggtnUHGbEN8EZsA/BoCgEIQAACEOgAAcS27iAjtgHeiG0AHk0hAAEIQAACHSCA2NYdZMQ2wBuxDcCjKQQgAAEIQKADBBDbuoOM2AZ4I7YBeDSFAAQgAAEIdIAAYlt3kBHbAG/ENgCPphCAAAQgAIEOEEBs6w4yYhvgjdgG4NEUAhCAAAQg0AECiG3dQUZsA7wR2wA8mkIAAhCAAAQ6QACxrTvIiG2AN2IbgEdTCEAAAhCAQAcIILZ1BxmxDfBGbAPwaAoBCEAAAhDoAAHEtu4gI7YB3ohtAB5NIQABCEAAAh0ggNjWHWTENsAbsQ3AoykEIAABCECgAwQQ27qDjNgGeCO2AXg0hQAEIAABCHSAAGJbd5AR2wBvxDYAj6YQgAAEIACBDhBAbOsOMmIb4I3YBuDRFAIQgAAEINABAoht3UFGbAO8EdsAPJpCAAIQgAAEOkAAsa07yIhtgDdiG4BHUwhAAAIQgEAHCCC2dQcZsQ3wRmwD8GgKAQhAAAIQ6AABxLbuICO2Ad6IbQAeTSEAAQhAAAIdIIDY1h1kxDbAG7ENwKMpBCAAAQhAoAMEENu6g4zYBngjtgF4NIUABCAAAQh0gABiW3eQEdsAb8Q2AI+mEIAABCAAgQ4QQGzrDjJiG+CN2Abg0RQCEIAABCDQAQKIbd1BRmwDvBHbADyaQgACEIAABDpAALGtO8iIbYA3YhuAR1MIQAACEIBABwggtnUHGbEN8EZsA/BoCgEIQAACEOgAAcS27iAjtgHeiG0AHk0hAAEIQAACHSCA2NYdZMQ2wBuxDcCjKQQgAAEIQKADBBDbuoOM2AZ4I7YBeDSFAAQgAAEIdIAAYlt3kBHbAG/ENgCPphCAAAQgAIEOEEBs6w4yYhvgjdgG4NEUAhCAAAQg0AECiG3dQUZsA7wR2wA8mkIAAhCAAAQ6QACxrTvIiG2AN2IbgEdTCEAAAhCAQAcIILZ1BxmxDfBGbAPwaAoBCEAAAhDoAAHEtu4gI7YB3ohtAB5NIQABCEAAAh0ggNjWHWTENsAbsQ3AoykEIAABCECgAwQQ27qDjNgGeCO2AXg0hQAEIAABCHSAAGJbd5AR2wBvxDYAj6YQgAAEIACBDhBAbOsOMmIb4I3YBuDRFAIQgAAEINABAoht3UFGbAO8EdsAPJpCAAIQgAAEOkAAsa07yIhtgDdiG4BHUwhAAAIQgEAHCCC2dQcZsQ3wRmwD8GgKAQhAAAIQ6AABxLbuICO2Ad6IbQAeTSEAAQhAAAIdIIDY1h1kxDbAG7ENwKMpBCAAAQhAoAMEENu6g4zYBngjtgF4NIUABCAAAQh0gABiW3eQEdsAb8Q2AI+mEIAABCAAgQ4QQGzrDjJiG+CN2Abg0RQCEIAABCDQAQKIbd1BRmwDvBHbADyaQgACEIAABDpAALGtO8iIbYA3YhuAR1MIQAACEIBABwggtnUHGbEN8EZsA/BoCgEIQAACEOgAAcS27iAjtgHeiG0AHk0hAAEIQAACHSCA2NYdZMQ2wBuxDcCjKQQgAAEIQKADBBDbuoOM2AZ4I7YBeDSFAAQgAAEIdIAAYlt3kBHbAG/ENgCPphCAAAQgAIEOEEBs6w4yYhvgjdgG4NEUAhCAAAQg0AECiG3dQUZsA7wR2wA8mkIAAhCAAAQ6QACxrTvIiG2AN2IbgEdTCEAAAhCAQAcIILZ1BxmxDfBGbAPwaAoBCEAAAhDoAAHEtu4gI7YB3ohtAB5NIQABCEAAAh0ggNjWHWTENsAbsQ3AoykEIAABCECgAwQQ27qDjNgGeCO2AXg0hQAEIAABCHSAAGJbd5AR2wBvxDYAj6YQgAAEIACBDhBAbOsOMmIb4I3YBuDRFAIQgAAEINABAoht3UFGbAO8EdsAPJpCAAIQgAAEOkAAsa07yIhtgDdiG4BHUwhAAAIQgEAHCCC2dQcZsQ3wRmwD8GgKAQhAAAIQ6AABxLbuICO2Ad6IbQAeTSEAAQhAAAIdIIDY1h1kxDbAG7ENwKMpBCAAAQhAoAMEENu6g4zYBngjtgF4NIUABCAAAQh0gABiW3eQEdsAb8Q2AI+mEIAABCAAgQ4QQGzrDjJiG+CN2Abg0RQCEIAABCDQAQKIbd1BRmwDvBHbADyaQgACEIAABDpAALGtO8iIbYA3YhuAR1MIQAACEIBABwggtnUHGbEN8EZsA/BoCgEIQAACEOgAAcS27iAjtgHeiG0AHk0hAAEIQAACHSCA2NYdZMQ2wBuxDcCjKQQgAAEIQKADBBDbuoOM2AZ4I7YBeDSFAAQgAAEIdIAAYlt3kBHbAG/ENgCPphCAAAQgAIEOEEBs6w4yYhvgjdgG4NEUAhCAAAQg0AECiG3dQUZsA7wR2wA8mkIAAhCAAAQ6QACxrTvIiG2AN2IbgEdTCEAAAhCAQAcIILZ1BxmxDfBGbAPwaAoBCEAAAhDoAAHEtu4gI7YB3ohtAB5NIQABCEAAAh0ggNjWHWTENsAbsQ3AoykEIAABCECgAwQQ27qDjNgGeCO2AXg0hQAEIAABCHSAAGJbd5AR2wBvxDYAj6YQgAAEIACBDhBAbOsOMmIb4I3YBuDRFAIQgAAEINABAoht3UFGbAO8EdsAPJpCAAIQgAAEOkAAsa07yIhtgDdiG4BHUwhAAAIQgEAHCCC2dQcZsQ3wRmwD8GgKAQhAAAIQ6AABxLbuICO2Ad6IbQAeTSEAAQhAAAIdIIDY1h1kxDbAG7ENwKMpBCAAAQhAoAMEENu6g4zYBngjtgF4NIUABCAAAQh0gABiW3eQEdsAb8Q2AI+mEIAABCAAgQ4QQGzrDjJiG+CN2Abg0RQCEIAABCDQAQKIbd1BRmwDvBHbADyaQgACEIAABDpAALGtO8iIbYA3YhuAR1MIQAACEIBABwggtnUHGbEN8EZsA/BoCgEIQAACEOgAAcS27iAjtgHeiG0AHk0hAAEIQAACHSCA2NYdZMQ2wBuxDcCjKQQgAAEIQKADBBDbuoOM2AZ4I7YBeDSFAAQgAAEIdIAAYlt3kBHbAG/ENgCPphCAAAQgAIEOEEBs6w4yYhvgjdgG4NEUAhCAAAQg0AECiG3dQUZsA7wR2wA8mkIAAhCAAAQ6QACxrTvIiG2AN2IbgEdTCEAAAhCAQAcIILZ1BxmxDfBGbAPwaAoBCEAAAhDoAAHEtu4gI7YB3ohtAB5NIQABCEAAAh0ggNjWHWTENsAbsQ3AoykEIAABCECgAwQQ27qDjNgGeCO2AXg0hQAEIAABCHSAAGJbd5AR2wBvxDYAj6YQgAAEIACBDhBAbOsOMmIb4I3YBuDRFAIQgAAEINABAoht3UFGbAO8EdsAPJpCAAIQgAAEOkAAsa07yIhtgDdiG4BHUwhAAAIQgEAHCCC2dQcZsQ3wRmwD8GgKAQhAAAIQ6AABxLbuICO2Ad6IbQAeTSEAAQhAAAIdIIDY1h1kxDbAG7ENwKMpBCAAAQhAoAMEENu6g4zYBngjtgF4NIUABCAAAQh0gABiW3eQEdsAb8Q2AI+mEIAABCAAgQ4QQGzrDjJiG+CN2Abg0RQCEIAABCDQAQKIbd1BRmwDvBHbADyaQgACEIAABDpAALGtO8iIbYA3YhuAR1MIQAACEIBABwggtnUHGbEN8EZsA/BoCgEIQAACEOgAAcS27iAjtgHeiG0AHk0hAAEIQAACHSCA2NYdZMQ2wBuxDcCjKQQgAAEIQKADBBDbuoOM2AZ4I7YBeDSFAAQgAAEIdIAAYlt3kBHbAG/ENgCPphCAAAQgAIEOEEBs6w4yYhvgjdgG4NEUAhCAAAQg0AECiG3dQUZsA7wR2wA8mkIAAhCAAAQ6QACxrTvIiG2AN2IbgEdTCEAAAhCAQAcIILZ1BxmxDfBGbAPwaAoBCEAAAhDoAAHEtu4gI7YB3ohtAB5NIQABCEAAAh0ggNjWHWTENsAbsQ3AoykEIAABCECgAwQQ27qDjNgGeCO2AXg0hQAEIAABCHSAAGJbd5AR2wBvxDYAj6YQgAAEIACBDhBAbOsOMmIb4I3YBuDRFAIQgAAEINABAoht3UFGbAO8EdsAPJpCAAIQgAAEOkAAsa07yIhtgDdiG4BHUwhAAAIQgEAHCCC2dQcZsQ3wRmwD8GgKAQhAAAIQ6AABxLbuICO2Ad6IbQAeTSEAAQhAAAIdIIDY1h1kxDbAG7ENwKMpBCAAAQhAoAMEENu6g4zYBngjtgF4NIUABCAAAQh0gABiW3eQEdsAb8Q2AI+mEIAABCAAgQ4QQGzrDjJiG+CN2Abg0RQCEIAABCDQAQKIbd1BRmwDvBHbADyaQgACEIAABDpAALGtO8iIbYA3YhuAR1MIQAACEIBABwggtnUHGbEN8EZsA/BoCgEIQAACEOgAAcS27iAjtgHeiG0AHk0hAAEIQAACHSCA2NYdZMQ2wBuxDcCjKQQgAAEIQKADBBDbuoOM2AZ4I7YBeDSFAAQgAAEIdIAAYlt3kBHbAG/ENgCPphCAAAQgAIEOEEBs6w4yYhvgjdgG4NEUAhCAAAQg0AECiG3dQUZsA7wR2wA8mkIAAhCAAAQ6QACxrTvIiG2AN2IbgEdTCEAAAhCAQAcIILZ1BxmxDfBGbAPwaAoBCEAAAhDoAAHEtu4gI7YB3ohtAB5NIQABCEAAAh0ggNjWHWTENsAbsQ3AoykEIAABCECgAwQQ27qDjNgGeCO2AXg0hQAEIAABCHSAAGJbd5AR2wBvxDYAj6YQgAAEIACBDhBAbOsOMmIb4D0/fzpdvnghXdJ26fzu8/yzS+fTmfn5NDw8FDgDTSEAAQhAAAIQOM4ENre20/LyclpcXEoLi4tpYWEx/Xj7Tvru2g/p++s30vfXfkg/P3uednZ2juVlfn71k/TXP3+b/vqXP6a//enbdOXK5TQ6OnJk14LYBtCfOnUyXTx/Ll24cC5dOHc2nT9/Np07e6a3zadTJ0+moSHENoCYphCAAAQgAIFjTWBrezutrq6mpaWVLLhLyyvp7r376YdbP6Yfbt5ON2/dTs9fvERsD2iUEdsAyBNzc+ns2fl07sx8OnN2Ps2fPpVOnphLJ0+cSCdOzKXZmSnENsCXphCAAAQgAIHjTmB7ezutr2+ktbX1tLq2ltZW19LDx0/S3XsP0p2799Ode/dzNJeI7cGMNGIb4Dg7M5NOnz6ZhVbR2xNzs2lyciJNTU6mycnJND4+htgG+NIUAhCAAAQgcNwJSFi3NrfS5uZm3jY2N9Oz5y/S48dP0yNtT56klZVVxPaABhqxDYCcnppKJ07M5ujs3Oxsmp6eSsPDw3kbGR5OQ8NDSf/jAQEIQAACEIBANwnspJ0srTvbzX57ZyctLS2lFy8W0vOXL9OLFy/T+vp6OqYptokcWyVMf389fXftRrp2/Ua6e+9hL5l6KS0sLKSV1bVjc+dPTEyk2ZnpNKNteiqNj4+nJqUWmT02g0hHIQABCEAAAhUJSG5zzq3ybZeabX1js2IPDvZUiO0HJLZjY2O91IOJJMnVv3lAAAIQgAAEIACBvQhIbJuc29W0urqeVlZXk0qCHdcHYvsBie3IyHCW2dHR0TQ+NppGRo6uvMVx/YWg3xCAAAQgAIEuEVBRr81ezu3Gxkba2NhMmmB2XB+I7Qcktirlpa3Jpx1Ow5T2Oq6/l/QbAhCAAAQgUIVAzrft5drubG8nlQM7zg/E9gMS2+N8I9J3CEAAAhCAAAQgECWA2CK20XuI9hCAAAQgAAEIQGAgCCC2iO1A3Ih0AgIQgAAEIAABCEQJILaIbfQeoj0EIAABCEAAAhAYCAKILWI7EDcinYAABCAAAQhAAAJRAogtYhu9h2gPAQhAAAIQgAAEBoIAYovYDsSNSCcgAAEIQAACEIBAlABii9hG7yHaQwACEIAABCAAgYEggNgitgNxI9IJCEAAAhCAAAQgECWA2CK20XuI9hCAAAQgAAEIQGAgCCC2iO1A3Ih0AgIQgAAEIAABCEQJILaIbfQeoj0EIAABCEAAAhAYCAKILWI7EDcinYAABCAAAQhAAAJRAogtYhu9h2gPAQhAAAIQgAAEBoIAYovYDsSNSCcgAAEIQAACEIBAlABii9hG7yHaQwACEIAABCAAgYEggNgitgNxI9IJCEAAAhCAAAQgECWA2CK20XuI9hCAAAQgAAEIQGAgCCC2iO1A3Ih0AgIQgAAEIAABCEQJILaIbfQeoj0EIAABCEAAAhAYCAKILWI7EDcinYAABCAAAQhAAAJRAogtYhu9h2gPAQhAAAIQgAAEBoIAYovYDsSNSCcgAAEIQAACEIBAlABii9hG7yHaQwACEIAABCAAgYEggNgitgNxI9IJCEAAAhCAAAQgECWA2CK20XuI9hCAAAQgAAEIQGAgCCC2iO1A3Ih0AgIQgAAEIAABCEQJILaIbfQeoj0EIAABCEAAAhAYCAKILWI7EDcinYAABCAAAQhAAAJRAogtYhu9h2gPAQhAAAIQgAAEBoIAYovYDsSNSCcgAAEIQAACEIBAlABii9hG7yHaQwACEIAABCAAgYEggNgitgNxI9IJCEAAAhCAAAQgECWA2CK20XuI9hCAAAQgAAEIQGAgCCC2iO1A3Ih0AgIQgAAEIAABCEQJILaIbfQeoj0EIAABCEAAAhAYCAKILWI7EDcinYAABCAAAQhAAAJRAogtYhu9h2gPAQhAAAIQgAAEBoIAYovYDsSNSCcgAAEIQAACEIBAlABii9hG7yHaQwACEIAABCAAgYEggNgitgNxI9IJCEAAAhCAAAQgECWA2CK20XuI9hCAAAQgAAEIQGAgCCC2HRDboaGh3ZutfD4QdyCdgAAEIAABCEDgyAjs7Ozsnrt8fmQdCp4Ysf2AxVYSOzw8nEaGh9PwyHAaHhpO6ZXjBm8dmkMAAhCAAAQgcOwJ7KS0vbOdtre209b2dtre3k7HWXAR2w9YbCW1Y2NjaVzb+GgaHR1NmO2x/xPEBUAAAhCAAAQOkMBO2tzcSusbG2ljfSPvJbfH9YHYfsBiOzo6kiYnJ9Pk5ESampxMExPjiO1x/U2l3xCAAAQgAIFDIbCT1tY20urqalpZXU2rq2tpc3PzUM5U46CI7QcstmNjo2l2ZibNzEyn2dmZLLfk2Nb4teIcEIAABCAAgeNBQGkHktrFpeW0uLSUFheX08bGxvHofJ9eIrYfkNgq9UBR2tGRkTQyOpqmJifSiRMn0skTc+nkybk0MzOTinlkx/ampeMQgAAEIAABCLwnAeXU5lzanSa3dns7LS4spWcvXqTnz1+kZ89epLX19WObZ4vYfkBiOzE+nqamJ9PU1FSanppMc7OzaX7+VJo/3Wxzc7PNBDIeEIAABCAAAQh0koBkVjm1GxubaXNTObWb6dnPz9PDx4/To8dP0sOHT9Lyygpie0B3x9BOxal4OtWtD0hslXKg6OypUyfzfv706XTu3Jl07uyZdP7sfDp18kQaGkZsD+he5TAQgAAEIACBY0dA1Q/W19fTytpaWltdy3m1Dx89Tj/dvZ/u3LmffrpzLy0sLiK2BzSyiG0ApMT1/LmzuzJ74fy5dPGCtvPp0sXzWXSHh6n3FUBMUwhAAAIQgMCxJrC1tZVldmlpOS0traSlpaX009176cYPP6YbN5tNKQkV44wHypNUhA8oYqt0g8uXL2aJvXzxQrp06UL66NLFdPnShXT50sV09sw8k8cO9NeHg0EAAhCAAASOF4Gtre20vLyco7ILi0tpYWEx3frxp/Td9zfSd9dupO+v3UhPnz1HbA9oWInYBkCemT+dZdYiq30jthez8J5DbAN0aQoBCEAAAhA4/gQUsV1aXkkLCwuN3C4sppsS2+9upP9ksb2env6M2B7USCO2AZKIbQAeTSEAAQhAAAIdIIDY1h1kxDbAG7ENwKMpBCAAAQhAoAMEENu6g4zYBngjtgF4NIUABCAAAQh0gABiW3eQEdsAb8Q2AI+mEIAABCAAgQ4QQGzrDjJiG+CN2Abg0RQCEIAABCDQAQKIbd1BRmwDvBHbADyaQgACEIAABDpAALGtO8iIbYA3YhuAR1MIQAACEIBABwggtnUHGbEN8EZsA/BoCgEIQAACEOgAAcS27iAjtgHeiG0AHk0hAAEIQAACHSCA2NYdZMQ2wBuxDcCjKQQgAAEIQKADBBDbuoOM2AZ4I7YBeDSFAAQgAAEIdIAAYlt3kBHbAG/ENgCPphCAAAQgAIEOEEBs6w4yYhvgjdgG4NEUAhCAAAQg0AECiG3dQUZsA7wR2wA8mkIAAhCAAAQ6QACxrTvIiG2AN2IbgEdTCEAAAhCAQAcIILZ1BxmxDfBGbAPwaAoBCEAAAhDoAAHEtu4gI7YB3ohtAB5NIQABCEAAAh0ggNjWHWTENsAbsQ3AoykEIAABCECgAwQQ27qDjNgGeCO2AXg0hQAEIAABCHSAAGJbd5AR2wBvxDYAj6YQgAAEIACBDhBAbOsOMmIb4I3YBuDRFAIQgAAEINABAoht3UFGbAO8EdsAPJpCAAIQgAAEOkAAsa07yIhtgDdiG4BHUwhAAAIQgEAHCCC2dQcZsQ3wRmwD8GgKAQhAAAIQ6AABxLbuICO2Ad6IbQAeTSEAAQhAAAIdIIDY1h1kxDbAG7ENwKMpBCAAAQhAoAMEENu6g4zYBngjtgF4NIUABCAAAQh0gABiW3eQEdsAb8Q2AI+mEIAABCAAgQ4QQGzrDjJiG+CN2Abg0RQCEIAABCDQAQKIbd1BRmwDvBHbADyaQgACEIAABDpAALGtO8iIbYA3YhuAR1MIQAACEIBABwggtnUH+ejF9v7DtLCwmBYWltLCwkJaWV2rSyBwtvn50+nypQu97WLef3RJ+4vp8uUL6dyZM2loaChwBppCAAIQgAAEIHCcCSC2dUevutj++NOd9P21G+m7azfStes30737D9LLhcX08uVC3q+srNYlEDjb6dOn0qUL59PFi+fTxQvnstBe+ehSunL5Ut6fO3s2DQ8jtgHENIUABCAAAQgcawKIbd3hqy62P929l27cuJWu37yVfrj5YxbbZ89fpGfPmm1pebkugcDZ5mZn0/z8qTR/+lTK0duL59Nnn32avrj6afr8s09zBHd4eDhwBppCAAIQgAAEIHCcCSC2dUevutjeu/8w3frxdrr540/p1u076d69B+nJ0593N6UlHJfH1OREmpmdSbMzs2lubiZHbX/99ZfpV998lX71zZfp04+vILbHZTDpJwQgAAEIQOAQCCC2hwD1DYesLrYPHz1Ot3+6m27fuZd+unM3SXT1s4ePnqRHjx6nFy9fpp2duhDe92yjo6NpfHwsjY+NpYmJiXThwrn07e9+nf7w+9+kP/zuN+nLz68itu8Ll3YQgAAEIACBD4AAYlt3EKuL7eMnT9Pde/fT3XsPmu3+g3T/wcN0//7DdO/Bw/T8ucT2eJitJ4Ypj3Z4eCRdOH82/eVPf9jdvvnqizQyMlJ3RDkbBCAAAQhAAAIDQ2BzcystLS2llwsL6YXmE71cSLdu/5S+v/ZDs13/If387PmxcZ822M+vfpL++udv01//8sf0tz99m65cuZxGR4/OfY5IbCWxD3J+bd7uPew9f5jzbY+L2JaDOzw0lM6dO5v++pdv0996A/wrxHZg/rDQEQhAAAIQgMBRENjY2MzfRj99+nN6+vOznHp5+87ddPPWT+nWrdvph1u3s/AeR/cRT8Q2R2wR26P45eKcEIAABCAAAQjUJbC+vp5lVqmX+oZaewX1dr+5vnc/LS4tI7YHNCxEbA8IJBHbAwLJYSAAAQhAAAIfEIHV1bX04OGjdKs3aV77h48epceaOP/4ad6r1CkR24MZdMT2YDimXbFVGsKf/5DzTZxj61xcFms4INgcBgIQgAAEIHBMCEhaVer02vUf0vUbN9P312+mJ0+epucvX6YXL16m5y9epvW19XQ8Zhe9gm6n2U1FyP7zbbryETm2H06O7dkz6U9//H36859+n/78x9+nr7/8Io2NjqbhkeE0MjycKyQgt8fkLxHdhAAEIAABCBwAgeWVlVwN6rvvr6fvvtcCVdfTk6fP8qqrLxcX0+LCYlpb3ziAM9U5hAJ58hm5jfafXf0kO89f/viHvP/o8iUmj30Ik8ckrGfPzOdSX3/8/W/St7//Tfryi8/T5MR4GuuVBBsdHWMlsjq/d5wFAhCAAAQgMBAEPiSxleuo2tP42GgaGxvLJU+vfvpxz31+m779/W/TpUsX0ugRVoQiFeGAbnsN9pn5U+m3v/5V+t1vvkm/++036YvPrqbp6ak0NTmZJqcm08T4RBoZYSWyA0LOYSAAAQhAAAIDT+BDEltFaxWsy14zOZGmpibTp59cadznt9+k3/3mV+nShfNHWuoUsT2gXwmJ7elTJ9Ovv/kq/fqbL9Ovf/VV+uzTT9Lc3GyanZnOK5RNTU0d6aeYA7pUDgMBCEAAAhCAwD4JfFBiOzychXZmZrpxm5mZ9OnHH2X3+dWvvkq//vqrXNP/KGv4Vxdb1XG7/+BRuv/wUa/sxYN0567KXtzL++NapFhie+rkifTVl5+nr7/8PO+vfnol/+zkiRPp5Mm5NDszk7RaGQ8IQAACEIAABLpBYHl5JS/I8O/vru1uT58+S0tLy7nMl/YbG8cjx1Y5tdNTk2l2djbNzc2kE3Oz6eMrH6Vvvv4y/errL/J27mzHxPbZ8+fpkZbPffw0PXz8JNdyU1L1j7fv5L1qvR3HkhcS25Nzc+nzzz9Nn3/2afris0/TJx9/lM7Mn07CYwwSAAAgAElEQVTzp0+l+fnT6cTcXBobQ2y78aeMq4QABCAAAQiktLS8nG7evJ3+8a//pH/+6z/pf//1XQ7ira6uppXVtVzqS8vuHoeHxVbfRs9luZ3NrqMqUN9ksf0ynTt7pjsRWw3a8xcv0s8/P99dfUOFin+49WMedK2+8ejxk2MrthrkTz+9kq5+ciXnnHx85XIe4LydO5NOnzyVE615QAACEIAABCDQDQKKyF67cTP9/R//m/7+j3/l/fPnL5NWJFOkdn1jI21vbx8LGIhtn2F6ubCYXrx4kWu3afncu/cfpOvXb6ZrN27lgVcR4+MasVW+ieq3aZ3kKx9dSlcuX0oXL5xPFy+cy3tFbycmxo/FzUsnIQABCEAAAhCIE1hcXErfXbuR/t9//2N30xK6ktntra20vbNzbLwHse1zPygkr0FeWFxKL1++THfvP0z/UW23767nvSK4x1VslXdy8cKFdPFiI7KXLp5PH0t0JbkfXU7nz53NSdc8IAABCEAAAhD4MAnIYTY3t9LW9lZOMZDEfn/th/Tff/9n+q+//zP99//8b1pYXMwXf9x8J4vt9FQ6cWIunZybzfuPP/4o1+3/5qtmjlHnUhGUU6IZgivLq2lxeTndu/cg/e+/v0v/++/v07/+/V366e79YzfQujmHhlKamJhI86dP57JfZ06fTufOn0mfX/00b5999kmO4Ko0Bg8IQAACEIAABD5MApubm83EsOXltLS4lJ7+/DynXP5Hk8f+0wTxFOQ7jg9VO9C306dPn0ynT53K1aD0LfWXn11NX3xxNX35+dV0Zn7+SEubVq2KoEFcX1/P+SRaPm5ldTVHbP/xz3+l//nnv/OmSWTH7ROMb04VK56dncnVD+ZmZ9KZM6fT1199kct/KaH66icf5xIZPCAAAQhAAAIQ+DAJrK2t5ZXFHj95mpfOffjocbp95172m1s//pR+/OlOWl1dO5YXPzo6kifCy2+0KJU2fSut8qZXr36cPvvkkzQ/fyqvSHZUj+piq7D85pbC89tpbX093b//IIfm/+u//5n+63/+mW7eun1sxVYDOTE+nieISXJPnTqZfv/bX6U//K5ZieyrLz7L4ssDAhCAAAQgAIEPk8DS8kq6c/d+un3nTvrpp7vpzt176f7Dx01FKG1PnqT1Y7SEbjlKKll6+tSJdOH8uXT+/Llcs/bKpUt5srxSEj65cjm7T6fE1oAUlZXkavLY//m/f0//5/81242bPx5bsdW1qeyXHyqD8ac//C795c/fpr/+6Q950QbVfPN7yvd+mL/eXBUEIAABCEDgwybgb5m9X1hYTNd/uJW+v3YjfX/9hxywe/rzs6TJ83pNmwJ8x/GhkqVKubx86WK6fOlCsV1MH13Wzy6mkyfmuim2GlCJrRZr+C/NFPz7P3Lk9oebPyblpyiiq9eP02zB9k06Mz2d0xB++5tfpd/++uv05eef5Xq2yrP1dpTrKR/HXyr6DAEIQAACEBgkAnIWRWBzquX6eq74JJm99sOtdP3GzVyj//mLl0kLNeQ5Risr2XGO42N8bCydPTvfRGivfJQ+vnIpXbp4IUdwLyqCe+F8TsXsZMTWYvvg0eP0j3/8O/39n/+/vTPxTuPMsvgTIPYdBNp3J+nudJ+e+f//hJmeTjuO49jaN8S+rwLNue+rQlheItkCAbrfOXUKSVDAr8rJ5XHffW/UY3t0fCbwp8CmgAsFF8ysem69Xq9OH9vd3rQGNqxr2d40mMUkFosy/msW/2XzNZMACZAACZCAlWoArVJrNKRer0ut3hRMWD05PVNxiw3fTKNK2+l0LW3TlcHgdib5ud1u1THbW/DTbugekaaJBDL74yp6MWbXMfLt9aTf6MQ9tqNvEBVZTCB78/Z3+fXtO/ntt3c6dg7+FEziwIYLZlaCi++fPHht0ykT+2W2tJbqYbTGfm1lRWMzuEiABEiABEiABGaPAApvqMAi+aBQKukAKgyaOju/0EotNuTzN5ttuenfmBiwfn9mC3boI4KW2dvdkr3dbd2jWotCXTwa0b3f5/vIljnps/rMwnYg+UJB3v7xXn5Hju27D3J6di61WmP46afV6syssIXJGl6TSCQs0WhYuwcxkQyWhP29ba3iorvQXvTcTvry5/ORAAmQAAmQwLcRQM31djDQbP6r66xaKyFirzLXcnGZkcurjO5z+aJ+Ew0RPKvfQNuEkMW/troiP+7vyqtXO5pfiwoutAwybdFHhG+rn1PPPK+wHQzUUP3+w6G8PziU9x/uvCiYTIZQY2TBzcoM5fv/NOwgY0R8Bfw+iUYiOlP5FS6IvR39tIMMuEWXS1yLLt3jMc95QXzbP28+igRIgARIgAReBgH4YwcD0wMEu2SlUtPkA+TwYw9Ba9IPCpLLFaRcqej43Fld0CVOh0P1CfqDMHjqxx/2zPZqXy0IRuf4dQ+7wnPqmGcVtrAYFEsmuBhNY4dHp3J2fqlit2iV9Ge5e9CO/8InHK/HLUhJwCcde2DDztaGJBL2BeHTiwIxYc95QczqPzy+bhIgARIgARKYBAGIVOTx3/R60u50Va9oRu3puXprMUEVDWRaoKtUpT7DBTroEXz7bGJMXZrTv7kBYbsvP74y4hYDqVTneL06qApFuufUMc8ubPFJ5uT0Qi8KbOeXl/oJ5+6TTlU/Ec3isi8IXBQ40fDTLi+nZGtjTS0JqN5izC6qtmaL6qeh57wgZpEzXzMJkAAJkAAJTILA7a0ZNIUBU+1WWxqtlg5iMMW5E40svbq6VjHbapt+ITSNzWqvkBboPG7xeb0qXmGvhHZRYfvDvvz0ak9za6FxUJiD3sF0smfsHZNnF7bVak3OLzNavr+4uNLuQfhU4FfJZLJa0e31epO4XsfyHBCpuDAcjgX9JLOUiMva2sqwgWwlbWIyUqmk7jGqbjQmgyJ3LKeFByUBEiABEiCBBxMYzaqFWG0gBaHRkGqtIdfZrFop3x8cabwXKrZofLcHUkHUzqq3FiLV7/Nq0oGO0o1GtDBnhK2xIti5tdArTufz2ymfWdje6oVxfZ2TTDarY+eurrJqRzi7uNA9TNf4dDQPC2X8WCQi6bQRssh8Q3ehBh1rSkJaDdj41IOLAxcUNi4SIAESIAESIIHJE7CHSfUHA+lrosGNVmPRA4TCXLlckcx1Tg6OjtVOiYptNpeb2Zza+4ShQSBoYaXElohHZXtz4yMrwmgT/OTP0KfP+KzC1sRktKVUKkuxXJZSqaLiFhfGweGxXiiXV1ntJpyHhRnL8KfgE08U0RixiFZpV5chbNMqbDUqw+/XT0g+r0+/AmDVdh7OPt8DCZAACZDArBGwdUqzjQhSM1yhXKlJsVhSzQJ/LWJLkYSA7TKTVbE7q9YDCtvvvEJxwaBc32g2Nf0AWy6fl7fvPsjbd+/l7e/vNQMOXpZ5WLAYeL1uFa5oFAsGA2pNsCu2GE+3lExINBKWSCQi0XBI70NhOw9nn++BBEiABEhg1ghAoKI6W6lWdXoYmsEKhZL6arHlC0VteIeYxd/RNIYJY7NqPaCwfYIrFB4UdBj2bnq6LxSL8svr38z2nzdavcVFMg/L9p9oM9niomA0HUbsQtCuWXOXl9MpbShbWkpIKpnQCi6F7Tycfb4HEiABEiCBWSMAYQsBi6osCm/Ywz55jT6gbE6us3mN89KpYtbU1FmO9qKwfYIrdNSQjdv4tPPvX36Vf/37V/nXL6813xbhxxg/pwZsbE/wvM95CAhVe8PwBojZlfSS7pGagClly+m0/g5DHeBxcTgd4lgwTWj6WOTdigyP85zvh89NAiRAAiRAAvNAADoEWsNojr6mMqGZHQ1hSDu4zFzrEIZMBqLWCNtavT4cvjAvlVr7XKIQFwoFJBIOSzQS0ojSrY11k8e/vys/7O2o93aa1rN6bD8HAmX+X397J6/fvJXXb35Xry3K+/pJyJqzPC/eFQhUmLJRtY3Ho5oFhznLmpKwlNQtGUc+nFc8Xrd43MiJMxlxTpdTXE6XwLc7mqIwTRcXXwsJkAAJkAAJzBIBfIsMvYF82k6nLc1W20wSu8rIpU4Ty0quUJBiAXn7ZSmWKuq7ndeFb5cTsagkkwkdxJBKLcnG2opsb21oExn2GMowTWvqhC0GMvzx4VDe/XEg794fyPHJmfpX8IkIHYhIUcCs5XlZEKqhYEC9tNgwnSwRj2mlFvt4LDocUxcKBnVcnQdC172o8WFoLmNywrxcDXwfJEACJEACz0kAfT916I0aNnhra1qpVWGrW1atB/gmWbdGQ3uF5nVBY+DbZPQCra1aKU6WdXLVSnVC/v40rakTtmggOz49k6PjMzk6MZPIUO6HuC0UilIslnXix7wse6KHZ9Etbs+iNpVFo2ENPEYTGYY2JBMxLf8n43FJJGKarIBhD36fT3w+n04D4SIBEiABEiABEvg+Au12WyuxiBpFY1g+X1D7gYraSyQfZIdiFlGk0COo8s7rwmCGjfVV2dlGdXZTB0whstQU3+K6h/idpjV1wrbZasmFDmwwM5fNwIZrHdaACyqby6slYV6W7bWFnQC3cYGggquZccGgwIObTiUknUpJemlJb4c1LQF/D2hoMkbdOWzfLQZCfGHkx6i3d1748X2QAAmQAAmQwJcIwPM63HAn/Gzv9W8ig1szQOF2cCvNVtM0iME/qxn7uaH+gBbB79udjt53MHLseToDdsM6+niQ4rS7syk/wE+7vys725tqS4iEkWsb0uEMsCtM05o6YYtoL5i04WXR0n8GpX/zM/YIQp6XXNvPXQio4KIS6/d7xe/zSzDk10otvLf2HmHIEL5h2BdCQR1153a7VeAiaQHH+GgtiDgdGPZwN/SBSQvT9M+Qr4UESIAESOCpCZjhCgMdqmD2GLDQl/4Ae/w80EQmWAl063WlUW9IoViWfAEpCFbVFpVbrd4i2quoCU7zuuxpqWZAlEMLaHu7O/ITpoz9sCe721tqkcS3y/rNsd+vvT7TtChsp+lsiKhfFiLV64FQNfOZIWLxqSgchsfWiFrbbxsMBfQ27AnBoF/3Xo/nY13rWNBPVB5L/OI2G86m7MTz5ZAACZAACTwpASQb9HoQrV3pwDagAtbYB3Tf7emQKPhkbb+s6ecx/lrs4bGtqde2rnt4b+fZegBtYBfJoEEikZDs724PR+jubG2qVdLrdlt9Ph4VwNO0KGyn6WyIqI3A6TJpB0g9gH8WQhVNZmbzapNZGFYEa8QdvLhIVcCnKCQr3O9QNIMhPDrJzOfHRDMvhe2UnXe+HBIgARIggaclgAQleGaRbGCmhmHfFkwRa+N2u61N6QVNNyhLqViSSq2u9223kYzQMfvh7bZaIeclmelztFFcQzMYdAK+OYaI3d/bkZ9e7WvFFikIKLSZVCaXuBZdX7Q/Pu3ZfPjRKGwfzmpi9xx6YZFT64Bn1mH2DuTYOrQqG9ZKbUhCkaBGgmkGrpWHi7y50YVoMHxlgMehugvhyySFiZ1OPhEJkAAJkMAzEEBltdFsacqBSTGoS02TDJr6M26jMV1zaeGnvUbiQVWza42HFnm2JtP2Vm+bjNt5XiimmW+AzYZ0JhW2P1jCdnNDY0pHe3amzdo4dcIWn5ByOUz5wISPvBq1TUei8dniwsMkst7NjV58N70bNXC/lIULCJ+mdCxvANYDv8RiEUklrWllS0mt5n4kbK1PYPDE4DEQucjCNWLZKU5r6MNLYcj3SQIkQAIkMPsE8P9+FZ79gWkAu6c54aVF9RVpS41mU/cQtRC79s8YCpVTvWFG5CJydN7F65fOPPQFbAhIY4rHIjr5NLWU0Iaxvd1t2dvZlo21VdUQ07ymTtjC+1KpVKRcrkqpUpUiPk1lsxqzoZM/MtfqeYG4beJCbbZU4L6kpR5c2BI8sBd4hvm3SFCALeH+RYcqL/y1yL21H7eojWZmtC82p8MhOsqMiwRIgARIgARmgAD+39/r9dVHi4YuNImNLlRYzbCFUTuB9bP+rq2VWwyGQqW2XKmpEJ636WEPPZVaOPN6dEhUWr8FTsrKclrW11Y08mtjzUR9waYwzWvqhC2+OlDR2oJwbamBG5Vbk5JghG2hUFLRWyqXpVyuqAH8JV2I8LUswoPrgih1Gf8skhQ019YkJIwu49t1GiFrPcZjCWN4dr0+r7jU/E1lO83/WPnaSIAESIAE7ghA0EKcwgPbandU4I4u6AJ8q4vkAwhf3azbKopvbqTT7gw9uPDi4hgvSU+M8oKwxbe6mxCx62uyubEma2vLsoy4UYjdVFInpaJQNs1r6oStXoiwGPQxo7kvrXZLrQkIR4awxd6ez5y15jTDDP6SLkQ7juMuluMuxsvldIrD+Wn0BsStnXWLDkYIYPhocBFjgzVBvpB/O80XMF8bCZAACZDAyySAaqxaC7DVm9Lpdu4JW1FbwS3sCrZtQfNqbd8s4sBMBBg0B/Yv1YYAcNAUmG6KFIS9vW3db26sSyIe1SYyWBSQzDTtQ6GmTtjaV6UtVBHJgUw5iFkEJV9fZ3WAw9n5hZydX8nZxaV+lfCShO39/4TdN25/WZ+aiqz9dQOM4QE0lQUDn2bfvsz/TvJdkwAJkAAJzAgBJBQY36xpCPv68CYzjOFL66VqCOgBk1mLb4GdEo1ErGEMO/Jqf1cnjcHmaAphZurptOXWfqKJbqf8bOKrA9gRSojjKFekWCzK6dmlHBwdy8HhiRwcnag/ZsrfxlT9Z8I2iKNqCysC/DJqRWDFdqrOE18MCZAACZDAlwnANgD7gFoRLBsBeT2OAHpshvFePp8kElHZ3UGj2Jbs7W7J+uqKfqsLuyP8t+jVmfZUpamt2NqnBl8NmABlfN3QkGq9Iccnp/L29/dme/de0NX4kr8+eNxlbO4N64HdOKYjedE8xkUCJEACJEACM0IAdkXjmTUbfuZ6HAGIWjSdw2KA/dJSUra31mV7c0Mza1eWU1oAw1RTNJ1DO0y7Xph6YQvBenfx3qhR/ODwWH55/Zv8+/Ub+eU/v+moOwrbx13M9tcPuEDhuZ22HLrHvRvemwRIgARI4KURMBmzZsN4XH5z+/grIBwOyVIyLkvJhKSSCc3DX9cEBDSQrUpqKameWo0GdZos/WnXC1MvbO+fJhi8P3w4kv/5v1/kf//1H91ns3k1fosg0+7lZNo+/hLmI0iABEiABEiABEjAEMDE0rXVFVlfW5bV1WVZW1nWiC9sq8tpnWo67daD++dy5oQtrAlHJ2fy+te38p83b+X1m7dyfZ1TuwKy6tBsBl8uFwmQAAmQAAmQAAmQwJcJoCKLAQy7O5uyvbWpnlpMG0skYpJMxNSiMO3Wg7kQtueXV/L7HwfyDtv7DzqNrFqpSbWGcXmY89zmdUwCJEACJEACJEACJPAVAmury/Ljqz35ESNzX+2p/SAUDEooFNC9z+/TqNBZWjNZsUX01+HJmRwfn8rR8ZlcZjJSKBQlXyip3xYj8bhIgARIgARIgARIgAS+TAA5tf/4+Sf5x89/lZ//9pMOZTCTSt3icXvUXzvtntqZr9jCJF4oluTi8krzbC+uMnKlE8mycnV9LZmrrBRKZctEbnLraCjnP2sSIAESIAESIIGXTgAi1Qx3wt4hu9ub8t///Lv81z//Lv/8x99ke3Nd/24PgAIvCtsxXzVoDqtUq5LPFySXL0quUJDMdU6urjJyaU0mw++7iP/odqWrY/Q+HrM35pfIw5MACZAACZAACZDA1BFAJXY0wx7RXj//9S/y819/lL/95QdtJJv1NXNWBFRfG82mVKs1qVRrus/mC3KVuZbLS3vkbl4zb+1pJM1mi1XbWb9S+fpJgARIgARIgAS+mQAqr5giFo9FJB6NaiICPLU6kGF3S5vI0Ew262smhW2329M8W6QgYI+RuxC2sCZcXmW0glsslaSIaWWlsk4mYwzYrF+qfP0kQAIkQAIkQALfSgDpBulUUtAwtrayovvVFRPttaL7lI7UnfU1c8IWwE0Yc1/6VihzuVKRTCZrrAiZjPpt8TOazJCYAGsCHkOv7axfrnz9JEACJEACJEACDyVg+2PNUCaHNoft7WzLLkbm7mxJOr0ksUhEYrGIxKIR8fv9Dz301N5vJoXtfZqI+MrmCpLN5XWDmD0/v5TziyvdIHQxds9MKEFDGUTu1J4TvjASIAESIAESIAES+C4C9oRRl8spLpdLUw52ttbl1f6u7O/vyqu9HVlKxCQQ8EvAH5BAwCcej+e7nnMaHjwXwrbZaqndoFyuSqlS0eivk9MzOT690D3ELWwLGNxg5knf0JowDVcfXwMJkAAJkAAJkMBYCGBimM/r0Sqs3++TYDAgWxtrWq3d3d7SoQyo0nq9HvF6vLpfXFwcy2uZ5EHnQthi2hiGMkDgYiuXK3JweCKHxydyeHgix2fn0mg0pd2GJ7cjnW5H50pzkQAJkAAJkAAJkMA8EoBIDYeDajWIRiPaNLa+virbG+uytbkum5vrEg4GVcwirxZVXWyzvuZC2Krftt+XG+xv+jp97P2HQ/nD2g6PTqVaq6m4rTeaKoJRteUiARIgARIgARIggXkkAFsBxuIi6QBNY6nUkjaMbayt6ujctbUVCWCymMOh22h27SzzmAthixMw2hiGOLAPB0fy4eBY3h8cydHxqaYklC27AkbvMtt2li9bvnYSIAESIAESIIFRAnaDmNPhFIfTqaIVgnZlZVlWl9OagIBmseXUkrVPqf0Aa9aGMHztzM+NsB19k6jInp6dywm20ws5O7+Q66xpLMvlClIoldSSwEUCJEACJEACJEAC80AATWJer1d9tdhHwiFZTqdU0K5C3K6kJR6PaYYtUhCQY+t2u+fhrX/0HuZS2HY6Xc21RTqCjtrVjNsrOb/MaCMZfo+hDVwkQAIkQAIkQAIkMA8EMFUsHAqpoA1HQpKIx2QFwlbzapf1digUlGAACQh+CQb8c+GpvX/u5lLYwmZQKJakgAENxZKO3z0+OZfDIzSUnWoFt1ZvzMN1zPdAAiRAAiRAAiRAAuL3+SSZjMtSMqFbKpU0FoQRYWuSD1zaMOZeXFRv7bytuRS2N2ggq9WkVqtLtV7XlAQIWvXdHh6ryK1WzTQyk21rNkTbwqvLQQ7zdpnz/ZAACZAACZDAfBGwm70cCwsqUFGNta0HmCK2jIli2KdTWq2F0F1E6sHCgnpqdZsvJPpu5lLYIiGh2WpLq2niv1CdRZX2+ORMt7PzS8G0MlgWkG+LfbfXM8kKNyZhAUKXiwRIgARIgARIgASmjYA9fMHr8QgsCB63WyO9jJ/WeGrRKLaUiEsCG7y1sZhOH5v3NZfCFqK00+1Kt9PVzNpWq6O+WjNy13hvi6WyqejW6rqHAFaB2+3qHuKWldt5v/z5/kiABEiABEhg9ghA2MJWEAoGtVIbDgVVwK4upzTSC0kIqaWE+m31PsGgDmiYR+vB/bM3l8IWghQ5tRjC0O/fSLfbUyGbLxStraTTyfLFohQKJSkUi1Kp1qTZNEMeWq2WPobCdvb+sfMVkwAJkAAJkMC8E4BARQNYMh4zFdlETNJLSa3UQtiiapuIx8Xv84rbg8libk1AmKdYry+d47kUtnizo6IUArder6t4xaCGSqUmuXxBrq6zkslc6x4CF4MdUL3FBosCPLhcJEACJEACJEACJDAtBGwbQiQSkhX10RovrZ1Va6K9ljXSC57aoZ92YR4dtZ+elbkVtqNvFSIX8V4Y3IB9vdHQhrIcqrb5guTyqNwWpVC0UhRKJanXGzrEwUw1M81lXCRAAiRAAiRAAiQwaQIQp6i4IqPW5/WK3++TWDTy0cAFTBhDGkLSSkWAPcHpdE76pT77870YYQvfbKfT0Upsu93W8bqVWk2qqOJWa5Ivlkz2bSarPtxSqazeXDSVwZYAawOtCc9+vfIFkAAJkAAJkMCLI+B0OCQcDpnBCtGoDlpAQ5iJ94IVISHxWEQi4fAwyxbi9yV4au9fDC9G2EKYIvEA+97NjRG57fZQ6MKKcHx2ISenZ3Jyeq6TylC1bbXbKnBxfwrbF/ffEr5hEiABEiABEnh2Ai6XS5aWErIOmwE8tMtpWVpKqtCNYZJYNCKhYEB8Pu9w+thL8dS+SGGLNw1RCs+snVM7ml/bHwzUY/v+4FD+QNbth0OdUFapVKXWaEij3tD4MNoRnv3fNl8ACZAACZAACbw4AhiosLG+Kvu727K/tyM725uSTiUlEgppJRfpBxijiwotNsR6vcRqLS6MF1Gxfci/gFK5IkfHp7odHp9oNFixVNJGMwhcxILBkqBZt/0b6fVuHnJY3ocESIAESIAESIAEvkrA4VgQp9MlLqdTJ4PBG4sqLZq/XC6n+mrX1lZU0GLb3FhTC0IA43H9ZjwuKrRcFLbDawBDHK6RkqBbTrK5vMaAmbG8ZYHwrTfQfGYa0BAJhqYyLhIgARIgARIgARL4HgKoyMJGEPD7tDHM5/OpYMVt/C4YCAiawzB0AZPEEO0VDge1Squbx4zK5aKwHV4D7XZHKtWqNpIhFqxULmskWBapCbmC5PNF/V2pXNVEhXKlqn5dLhIgARIgARIgARL4HgKoyIYjIYlG4JkN6xQx+GajEet2JCKI94LlIIwGsWBQvMioXVxUQQth/BITED7HnFYEiwosBrAa6Nbr6hheVG21gpvJSiabk2w2J9c5CN28/g33tRcby77nnzQfSwIkQAIkQAIvj4Amyy4s6LCFFGK6UJVNYb+kVVlUaVOppCQTcbUjQMi63RCzRsjaXlrEgb1UT+39q4bC9gv/jmA1QL6tbU3AXuPAsL/KytX1taYlDAZ9bSqzs26HzWm3HO7w8v4TxXdMAiRAAiRAAn9OwAEh6nSI0+FUQYpKLAYtrK6mdbgCJoelU8Z2gC2ZiKmY5fpzAhS2X2CE3Ntytap5thjHWyiVJJ8rSFY3U7Gt15vSarek1TbRYePpD90AAAtQSURBVHiMiRUz0WKoAnORAAmQAAmQAAmQwCgBVF1RgYU/1ufzSDwWlZVlRHkZYQsxG4cdIRbVvyGfFk1kXH9OgML2C4yQdWtPKcMwB1gTIHILxZJuxWJJfbbw5SI5AaN6IXSRd2sGQXR1chkXCZAACZAACZAACYwSQFMYqrQ6UCESklQiLit2Rq1VrQ36/WpRQOOYz+8TDGng+nMCFLZfYAR7ASK9IE4xfQzVWDSWoYpbsZrH8sWi5HNFbTLLFwraWNZs3Y3uRUMaFwmQAAmQAAmQAAmMEoCoxfhbDF1IJhKynF5S+8GaDl9YVq+te9ElLnhqrQYx+Gi5/pwAhe1XGNl+WTPcYaBjeFG5rdXrUqs1VMwiGgy+W0wqQyXX/K2uU8sgcvG428GtDG4HwwERIhgUYYZGcJEACZAACZAACcwXAfhmTUPXgjgWHLKA/fB3DrUXQMwup1LDCK+V5ZRgW06n1VMrsoC+Mj0OFoXtw64RCtuHcVKB2u50hhm2EK2I/crDllAoad4tsm4ham3hC3Gr1oRuVyu+3W5Xejc96WO0bx8e3AHF7QP5824kQAIkQAIkMAsEIGDhofV4POLxuMXjdt/d9rg1czYSCUsyHpNEIiYJ7OPx4W0kIMCiwPVtBChsH8gN1VUI0w7iwDrYd6TRbGrlVoUsKrkjolZvWz9jahluNxoNaXU61uMhdHsc0/tA/rwbCZAACZAACcwCAUwMCwb9EgoGJRQK6j6MvbUhgzaovw9IKBQw99P74mdzG8MZuL6NAIXtA7lB2CLlQEfqWhVXI3RNJRYV2WazLbV6bShy0VRmms2KUiiUpFguq0Wh1Wqbym+7zeSEB/Ln3UiABEiABEhgFghgtG08FvmkCgt7QSIRl2Q8Lj6/11RytZprKrp4nKnw4jajvb71XFPYPoLcqOfW+G6Nd1Y9tIOBilxUb+tWFRepCYgFu8Zgh2xem8zQgFZvNHQ8Lzy7iAYzVlvjuzV7c+zR59O/0JP7iLPFu5IACZAACZDAtxEY9bUai6vxu368/9zvRLxejzaGIYcWI3DTqaQsI5PW8tPi97AjqO92wWF8uA7s4cu9+/nbXjkfRWH7hNcAEhQazZY0m0a0wp6QLxQlV8BI3oIUi2Wpoqms2dSKLfbd7o30BwMZoBo8GKjQ1SQGnYDW05/tSjHELrNxn/CE8VAkQAIkQAIkcI8AJnpBZGKql5nuZf/s1MgtHaxg/R4/62379w6H+Hw+9c0uJeOSTCYkmYyr0MVkMfyM20g64BoPAQrbJ+SKhrAOhjVYWbawHKBCW6nVdI9qbrNlBjnYebfq2e32pGeN8sU0M3hx7Ypus9U0vl40nmn8WNeq7D7hC+ehSIAESIAESIAEVNAuulxqC1h0m6gt2ALsMbbuRffw5+Fte8ytdX8IW3hlEekV1qxaex+2smtDAh8u13gIUNg+IVdUXPtacTXTx1BxRZYtppLpvtPRaqxWZeHTvblRgQsBrFu7rU1mOu2sjIlnFSlXKsO/4T44Di0JT3jSeCgSIAESIAESsAig+gorAaaC+XyYDObRvf6sv/MNp4X5vD79m9+6r97fuq99DEwWGx7P67Ee61UBzTUeAhS2T8j1vgfXNJwNTIYt9si0vbU8tFY2Liq88NzCtoDGMozvhScX+bjX11nJ5gv6e/Xl6r5JYfuE54yHIgESIAESIAGbACqpZtqXX4LBgE79QsKB7vV2wPwdiQbWz/bv7ftC8MLGAMuCemixh2XB8tHaebakPh4CFLbj4fqgo0LkwpZwZz1oSKlSkVyuINe5guRyOckXSipqG42W+nYRMQafLUSybmbSw0fPZw+UMPcxQnp03aJBzWp461t7NK1xkQAJkAAJkMC0EhhtrNJmq2+YxDUcmmA3a1l7pw5TcMji4qL4A36N24K4DQR8+rM93haiFn/TTf8+el8jerUx7Bte27Ryn7XXRWH7jGcMghO2BWNVMDaDWqMhlUpVShWM7q1KtVZTi4KxNHSk02lrwxm8tj3L9gABO7r6g77c9G6kazWioWo8Kn6hc40dojccG6wCmYsESIAESIAEppSAy+lU4bm46JJF16JWRR+3FvQxw2PgOHq8RXG7rL17Ua0DaiHwYG9t1m3PZ34Pi8LwMV6P+nIpbB93Zp7y3hS2T0nzkceys3HhuzWNYT0rD7el43ixtdrGlzt6H+PXvfPtfpSUANHa71ueXnMfPHa0agsRi2a0oVhGnu49cfzIt8K7kwAJkAAJkMBYCaChSwWkB0LS/egGLIhNiFhzDFuwWr5Y/dmrObJ34vlO+Box7RLXiBjG74wgtu9n9vDpUtiO9VL46sEpbJ+P/Z3f1rIMoPI6HALRRwOaGQgxtB0MRAaDvkaFGVtCQ+PFUH21F2wGEMn6d8u60G4jSeGuqgt7AqrA9t+xx/OwKe0ZLwY+NQmQAAmQwFcJoDnLtgjAHvDYyCyITQhXeGE/ayPwGxuB0+WQBbU6wB9rZc1a+bLD3yN7FjFgloXB5NAaOwOeh8L2+S5mCtvnY38nRj/jkcUfP/HGWgMcIGbRSAZvLuLAIGTvhK0Mha3x5jY1jQFidnif24EmLcCv26gb3y5ENBcJkAAJkAAJTCsBn88jAVuU+v1aHX3MgvCEcLWbw3TvD0jAag7Dsb0etw5J+NQiaw9juHvGz4lXCtrHnJHx3JfCdjxcx3ZU03DW0Txcjf/qtKV/T5SiggsLgx0hBivCqIf2FlPSOt2hd7fVapnEhrG9ah6YBEiABEiABL6PgBcjZ0eit2ALeMxakAVxu11ix3T5YEmwj4e9z0d/7GOATul9KWyn9MR87WXBH4uMXB3a0L3ROLG7aqwZ76tDH6wJZvDcflwUNnaFbq87vN/9BrQZxMKXTAIkQAIkMMcEhl5Wt1sFqNPhfNS7RRUW/leP+65RDMdZxPF0CINb0KDGquujsE7dnSlsp+6U/PkLsn24mpFrZeOOPurOk2s8u6M2BNwPlVnbzwvPLhrHGIrw59x5DxIgARIggecjACuBPb4WovZbBKh9DOOJHRmNa2fNOh8nlp+PBp/5SwQobOf42mAz2ByfXL41EiABEiCBbybwLaL4m5+MD5woAQrbieLmk5EACZAACZAACZAACYyLAIXtuMjyuCRAAiRAAiRAAiRAAhMlQGE7Udx8MhIgARIgARIgARIggXERoLAdF1kelwRIgARIgARIgARIYKIEKGwniptPRgIkQAIkQAIkQAIkMC4CFLbjIsvjkgAJkAAJkAAJkAAJTJQAhe1EcfPJSIAESIAESIAESIAExkWAwnZcZHlcEiABEiABEiABEiCBiRKgsJ0obj4ZCZAACZAACZAACZDAuAhQ2I6LLI9LAiRAAiRAAiRAAiQwUQIUthPFzScjARIgARIgARIgARIYFwEK23GR5XFJgARIgARIgARIgAQmSoDCdqK4+WQkQAIkQAIkQAIkQALjIkBhOy6yPC4JkAAJkAAJkAAJkMBECVDYThQ3n4wESIAESIAESIAESGBcBChsx0WWxyUBEiABEiABEiABEpgoAQrbieLmk5EACZAACZAACZAACYyLAIXtuMjyuCRAAiRAAiRAAiRAAhMlQGE7Udx8MhIgARIgARIgARIggXERoLAdF1kelwRIgARIgARIgARIYKIEKGwniptPRgIkQAIkQAIkQAIkMC4CFLbjIsvjkgAJkAAJkAAJkAAJTJQAhe1EcfPJSIAESIAESIAESIAExkWAwnZcZHlcEiABEiABEiABEiCBiRKgsJ0obj4ZCZAACZAACZAACZDAuAhQ2I6LLI9LAiRAAiRAAiRAAiQwUQIUthPFzScjARIgARIgARIgARIYF4H/B9TxE5rLfsAHAAAAAElFTkSuQmCC;" vertex="1" parent="1">
          <mxGeometry x="117.91999999999999" y="160" width="55.93" height="96.7" as="geometry" />
        </mxCell>
        <mxCell id="HT3ukdf5lwB25Wx5WFX2-2" value="" style="shape=image;verticalLabelPosition=bottom;labelBackgroundColor=default;verticalAlign=top;aspect=fixed;imageAspect=0;image=data:image/png,iVBORw0KGgoAAAANSUhEUgAAAHoAAACICAYAAAAoA//2AAAMPmlDQ1BJQ0MgUHJvZmlsZQAASImVVwdYU8kWnluSkEBooUsJvQnSCSAlhBZ6bzZCEiCUGANBxV4WFVy7qIANXRVRsAJiQRE7i2LviwUVZV0s2JU3KaDrvvK9+b65899/zvznzJm5ZQBQO84RifJRdQAKhEXi+NBAempaOp30FJCBDqAAT+DM4RaKmLGxkQCWofbv5d11gEjbKw5SrX/2/9eiweMXcgFAYiHO5BVyCyA+AABezRWJiwAgSnnzyUUiKYYVaIlhgBAvlOJsOa6W4kw53iOzSYxnQdwOgJIKhyPOBkD1EuTpxdxsqKHaD7GTkCcQAqBGh9ivoGAiD+IMiG2gjQhiqT4j8wed7L9pZg5rcjjZw1g+F1lRChIUivI5U//PdPzvUpAvGfJhBatKjjgsXjpnmLebeRMjpFgF4j5hZnQMxJoQfxDwZPYQo5QcSViS3B415BayYM7gSgPUiccJioDYEOIQYX50pILPzBKEsCGGOwSdIihiJ0KsB/FCfmFwgsJmk3hivMIX2pglZjEV/FmOWOZX6uu+JC+JqdB/ncNnK/Qx1ZKcxBSIKRBbFAuSoyFWhdixMC8hQmEzuiSHFT1kI5bES+O3gDieLwwNlOtjxVnikHiFfVlB4dB8sU05Ana0Au8rykkMk+cHa+dyZPHDuWCX+EJm0pAOvzA1cmguPH5QsHzu2DO+MClBofNBVBQYLx+LU0T5sQp73IyfHyrlzSB2KyxOUIzFk4vghpTr41miothEeZx4SS4nPFYeD74MRAIWCAJ0IIE1E0wEuUDQ2dfUB+/kPSGAA8QgG/CBg4IZGpEi6xHCawIoAX9CxAeFw+MCZb18UAz5r8Os/OoAsmS9xbIReeAJxAUgAuTDe4lslHDYWzJ4DBnBP7xzYOXCePNhlfb/e36I/c4wIROpYCRDHulqQ5bEYGIQMYwYQrTFDXA/3AePhNcAWF1wBu41NI/v9oQnhC7CQ8I1Qjfh1gTBXPFPUUaBbqgfoshF5o+5wK2gpjseiPtCdaiM6+AGwAF3g36YuD/07A5ZliJuaVboP2n/bQY/rIbCjuxERsm65ACyzc8jVe1U3YdVpLn+MT/yWDOH880a7vnZP+uH7PNgG/GzJbYQ24+dwU5g57AjWBOgY61YM9aBHZXi4d31WLa7hrzFy+LJgzqCf/gbWllpJgud6px6nb7I+4r4U6TvaMCaKJoqFmTnFNGZ8IvAp7OFXMeRdBcnF1cApN8X+evrTZzsu4HodHzn5v0BgG/r4ODg4e9ceCsAez3h43/oO2fDgJ8OZQDOHuJKxMVyDpdeCPAtoQafNH1gDMyBDZyPC/AAPiAABINwEAMSQRoYD6PPgftcDCaD6WAOKAXlYBlYDSrBRrAF7AC7wT7QBI6AE+A0uAAugWvgDtw9PeAF6AfvwGcEQUgIFaEh+ogJYonYIy4IA/FDgpFIJB5JQzKQbESISJDpyDykHFmBVCKbkVpkL3IIOYGcQ7qQW8gDpBd5jXxCMVQF1UKNUCt0FMpAmWgEmoiOQ7PRSWgJOh9dgq5Fa9BdaCN6Ar2AXkO70RfoAAYwZUwHM8UcMAbGwmKwdCwLE2MzsTKsAqvB6rEWuM5XsG6sD/uIE3EaTscd4A4Ow5NwLj4Jn4kvxivxHXgj3o5fwR/g/fg3ApVgSLAneBPYhFRCNmEyoZRQQdhGOEg4BZ+lHsI7IpGoQ7QmesJnMY2YS5xGXExcT2wgHid2ER8RB0gkkj7JnuRLiiFxSEWkUtI60i5SK+kyqYf0QUlZyUTJRSlEKV1JqDRXqUJpp9IxpctKT5U+k9XJlmRvcgyZR55KXkreSm4hXyT3kD9TNCjWFF9KIiWXMoeyllJPOUW5S3mjrKxspuylHKcsUJ6tvFZ5j/JZ5QfKH1U0VexUWCpjVSQqS1S2qxxXuaXyhkqlWlEDqOnUIuoSai31JPU+9YMqTdVRla3KU52lWqXaqHpZ9aUaWc1Sjak2Xq1ErUJtv9pFtT51srqVOkudoz5TvUr9kPoN9QENmoazRoxGgcZijZ0a5zSeaZI0rTSDNXma8zW3aJ7UfETDaOY0Fo1Lm0fbSjtF69EiallrsbVytcq1dmt1avVra2q7aSdrT9Gu0j6q3a2D6VjpsHXydZbq7NO5rvNJ10iXqcvXXaRbr3tZ973eCL0APb5emV6D3jW9T/p0/WD9PP3l+k369wxwAzuDOIPJBhsMThn0jdAa4TOCO6JsxL4Rtw1RQzvDeMNphlsMOwwHjIyNQo1ERuuMThr1GesYBxjnGq8yPmbca0Iz8TMRmKwyaTV5TtemM+n59LX0dnq/qaFpmKnEdLNpp+lnM2uzJLO5Zg1m98wp5gzzLPNV5m3m/RYmFlEW0y3qLG5bki0ZljmWayzPWL63srZKsVpg1WT1zFrPmm1dYl1nfdeGauNvM8mmxuaqLdGWYZtnu972kh1q526XY1dld9EetfewF9ivt+8aSRjpNVI4smbkDQcVB6ZDsUOdwwNHHcdIx7mOTY4vR1mMSh+1fNSZUd+c3J3ynbY63XHWdA53nuvc4vzaxc6F61LlctWV6hriOsu12fWVm70b322D2013mnuU+wL3NvevHp4eYo96j15PC88Mz2rPGwwtRixjMeOsF8Er0GuW1xGvj94e3kXe+7z/8nHwyfPZ6fNstPVo/uitox/5mvlyfDf7dvvR/TL8Nvl1+5v6c/xr/B8GmAfwArYFPGXaMnOZu5gvA50CxYEHA9+zvFkzWMeDsKDQoLKgzmDN4KTgyuD7IWYh2SF1If2h7qHTQo+HEcIiwpaH3WAbsbnsWnZ/uGf4jPD2CJWIhIjKiIeRdpHiyJYoNCo8amXU3WjLaGF0UwyIYcesjLkXax07KfZwHDEuNq4q7km8c/z0+DMJtIQJCTsT3iUGJi5NvJNkkyRJaktWSx6bXJv8PiUoZUVKd+qo1BmpF9IM0gRpzemk9OT0bekDY4LHrB7TM9Z9bOnY6+Osx00Zd268wfj88UcnqE3gTNifQchIydiZ8YUTw6nhDGSyM6sz+7ks7hruC14AbxWvl+/LX8F/muWbtSLrWbZv9srs3hz/nIqcPgFLUCl4lRuWuzH3fV5M3va8wfyU/IYCpYKMgkNCTWGesH2i8cQpE7tE9qJSUfck70mrJ/WLI8TbCpHCcYXNRVrwR75DYiP5RfKg2K+4qvjD5OTJ+6doTBFO6ZhqN3XR1KclISW/TcOncae1TTedPmf6gxnMGZtnIjMzZ7bNMp81f1bP7NDZO+ZQ5uTN+X2u09wVc9/OS5nXMt9o/uz5j34J/aWuVLVUXHpjgc+CjQvxhYKFnYtcF61b9K2MV3a+3Km8ovzLYu7i8786/7r218ElWUs6l3os3bCMuEy47Ppy/+U7VmisKFnxaGXUysZV9FVlq96unrD6XIVbxcY1lDWSNd1rI9c2r7NYt2zdl8qcymtVgVUN1YbVi6rfr+etv7whYEP9RqON5Rs/bRJsurk5dHNjjVVNxRbiluItT7Ymbz3zG+O32m0G28q3fd0u3N69I35He61nbe1Ow51L69A6SV3vrrG7Lu0O2t1c71C/uUGnoXwP2CPZ83xvxt7r+yL2te1n7K8/YHmg+iDtYFkj0ji1sb8pp6m7Oa2561D4obYWn5aDhx0Pbz9ieqTqqPbRpccox+YfG2wtaR04LjredyL7xKO2CW13TqaevNoe1955KuLU2dMhp0+eYZ5pPet79sg573OHzjPON13wuNDY4d5x8Hf33w92enQ2XvS82HzJ61JL1+iuY5f9L5+4EnTl9FX21QvXoq91XU+6fvPG2BvdN3k3n93Kv/XqdvHtz3dm3yXcLbunfq/ivuH9mj9s/2jo9ug++iDoQcfDhId3HnEfvXhc+PhLz/wn1CcVT02e1j5zeXakN6T30vMxz3teiF587iv9U+PP6pc2Lw/8FfBXR39qf88r8avB14vf6L/Z/tbtbdtA7MD9dwXvPr8v+6D/YcdHxsczn1I+Pf08+Qvpy9qvtl9bvkV8uztYMDgo4og5sl8BDFY0KwuA19sBoKYBQIPnM8oY+flPVhD5mVWGwH/C8jOirHgAUA//3+P64N/NDQD2bIXHL6ivNhaAWCoAiV4AdXUdrkNnNdm5UlqI8BywKe5rZkEm+DdFfub8Ie6fWyBVdQM/t/8CTdV8nBiZAmYAAACKZVhJZk1NACoAAAAIAAQBGgAFAAAAAQAAAD4BGwAFAAAAAQAAAEYBKAADAAAAAQACAACHaQAEAAAAAQAAAE4AAAAAAAAAkAAAAAEAAACQAAAAAQADkoYABwAAABIAAAB4oAIABAAAAAEAAAB6oAMABAAAAAEAAACIAAAAAEFTQ0lJAAAAU2NyZWVuc2hvdGzd+pAAAAAJcEhZcwAAFiUAABYlAUlSJPAAAAHWaVRYdFhNTDpjb20uYWRvYmUueG1wAAAAAAA8eDp4bXBtZXRhIHhtbG5zOng9ImFkb2JlOm5zOm1ldGEvIiB4OnhtcHRrPSJYTVAgQ29yZSA2LjAuMCI+CiAgIDxyZGY6UkRGIHhtbG5zOnJkZj0iaHR0cDovL3d3dy53My5vcmcvMTk5OS8wMi8yMi1yZGYtc3ludGF4LW5zIyI+CiAgICAgIDxyZGY6RGVzY3JpcHRpb24gcmRmOmFib3V0PSIiCiAgICAgICAgICAgIHhtbG5zOmV4aWY9Imh0dHA6Ly9ucy5hZG9iZS5jb20vZXhpZi8xLjAvIj4KICAgICAgICAgPGV4aWY6UGl4ZWxZRGltZW5zaW9uPjEzNjwvZXhpZjpQaXhlbFlEaW1lbnNpb24+CiAgICAgICAgIDxleGlmOlBpeGVsWERpbWVuc2lvbj4xMjI8L2V4aWY6UGl4ZWxYRGltZW5zaW9uPgogICAgICAgICA8ZXhpZjpVc2VyQ29tbWVudD5TY3JlZW5zaG90PC9leGlmOlVzZXJDb21tZW50PgogICAgICA8L3JkZjpEZXNjcmlwdGlvbj4KICAgPC9yZGY6UkRGPgo8L3g6eG1wbWV0YT4KVF9ZHgAAABxpRE9UAAAAAgAAAAAAAABEAAAAKAAAAEQAAABEAAAKtA2txrMAAAqASURBVHgB7J3ZU1NbFsYXCWGeBQREGZznq5Z2OT/og93V/+6t+9JvbVs+NG05oVwF1HuZZxJIyORdv002HWKAJCYkIXtVbc4+Q5Jz9ne+tfY5a6Dqu4o4OfIjUOWAPvIYmwt0QFcGzuKAdkBXyAiUyWVmOpWqqqpKe0WO0WmHpfQ2AnQs/l2iOnWO6pI+mFbTPFXi1RWPLh3QJYJdpsxMPV0+FwjHZHUrLiuhmKxtxaTWWyVtdV5pq/VKq7baao8DOnXgirVumRkzDBWJp5wI+5Wsylht9BP749pfCcZkfjMqs9rmNiLS5PNKX5NPTrb4ZEBbY41XPE51p4zoT67mysyIoggz15WZq8rKjUjcqGN7OqjkTd0GY9nvD8cVcBF+L6SdjQgtblqbAtvXVC3Xuuvkb70N0tlQ7YC2A5mvpWFmEuO0q2D8yFD7ezASEIPRuCwHlZUbsDIqi6qGFcsdicb1BlDmwtp53b+g/eT9Owdqp0PVda8C/bC/Qf453KJ9n3jVTqcTNxlLNyoZbIuqbjWMZHakwgRpXRm4qesAniohBRi1O6Mqd1XBtawM6vFJOJubgWM3tG0qwvqRXfuTvzevQHPnprbkHyuHPjPR1JbuvM116g6AAitYaPt2aT+3pUDMKmjLobg5dkuBx26yrphvi5LLoz3MZkBBG1vekt9XwhJQ1ZsPyTvQkUhE/H6/BAIB00KhUD7O81C+o7a2VpqamqS5udksa2pq9pyZAnRYAVtXG+pXG7qm4MBSPzZV+2xTTWoEBmNrsZsI6xuRmKrm7ZtEJ8TSqM8+zbUeaVFbymHjq+HSA9qyOK42Y3NzU2ZnZ2V+fl4WFhZkfX3dXFw5/AHkzs5O6e7ulp6eHgO2x+MRr9f7w+lzzUyEZgJRmQ6E5Y/EEls6l7CZKwo2ksrw1PUaRbqzftuG9jb6xKe2c3KtRIEOBoMG4KmpKZmYmBCWgF5OjIbBgA3Ig4ODcurUKQN6S0vLnkBPK8DjKyEZmQ/Kx6Ut8Sv4AWVrIMzM94ePpd0A0F0KNLPikgTaMjkajcrKyoq8f//etI8fP8q3b9+MvU57ZSW8Efvc29srFy5ckMuXL8uVK1fMurXb9tQto6cU6NHFkPw26ZeR2aCZDGVrVcsCaJg8NzdngH379q2MjY2Z9bW1NTsmZbfERh8/ftyAfffuXRkeHpbGxkbBhltJBvq9Av3rhF/+Oxe0u7NaljzQ2GSY/OHDB8Pkd+/eyZcvXwSGs69cBfZWV1fL2bNn5cmTJ4bZ2G5uACsVCfSbN2+EBtCo7KMip0+flqdPn8q1a9cMwx3QDujKUN2O0RViox3QDuiyNtfORifgs7Nux2jHaMfoDEagbJ6js2E0z6i8P6bRL4agiWj2zd5e5+BUd2JkslHdgMq75Pr6emltbTVvmgC7GLKxsSG8ueOtHu/iATydOKATo5IN0HiA2tvbzYsHBrCvr8+8fUo3wIXeNj09LePj48YJs7y8LLhW00kmQOPUGF3Sd936CvR/87m5ZNUzue29akw4NdTJgffqk/qjCQfKh7SrC7RHv/++Rpj8YyjLCJNsgPb5fAZkPEI3b96Uc+fOCduKIZ8+fZKRkRH5+vWrAXsvD9tBQIfUH72oLsnJtYj8588NGdVggVyEMFwiM7ddlT4TsfmnP2LAJgolH9Lk80iHRoH+0l0vj/obpUtBzzg4MBegh4aG5N69e8YrhCovhvCq9vnz54bVOGS2ttIDdBDQ23Fd32UpFJUxdVHiycpFmKnA6uYaj3Rr0F69grJIrFggJluJYIVcvjf5MxrdqzeQyEBrjVzoqJMWXSko0AMDA3Lnzh3jGSoW0HjZABoHDE6ZXFU3QMPqJQ0l+V3ZjBrPRQDap+raAt0A0KopCArMF9BeA3SVnNJQ3/MdtQp0ARnd1dVlbDOsxueLh6gY8vnzZ3n16pUsLi6aCdle53AQo4kFW9iMyYTa03+jupXVuQhsQ3V3NXilRxlNcP2O6s6TjW5SbdFR55GbxxuM6u4ulOq2kzEmZB0dHTthOrkMzM9+ZmZmxkTBEAGznxwENKFEqOuK8Udn8hzN4xWTL5z3NPrFeo4GYIIX8ZvvJw7oxOhkMxnbb0BLdZ8D2gFtXrI41V2qFM3yvByjHaMdo13MWJZqQw8/kt6r7IeheJ9wqjsx9m7W7Z6ji0fDPP6yY7RjtJuMuclY9irFTcayH7O8fuIg1R3Ud92kyJJF+a9vAXm9QLQKabJamkKb+jxMrrNNTjLbdcWu25N1QNuRKNLyIKAj6ism8Z0SFG8UZAIQAJNE9zXNjSYxfl1vBhs8YEpa6PEkwCeLAzp5NIrQPwhoylnQCPeZCiRKV+h6WIFeUKYvaVtUX/WagouE9cZYStT90hTqHWar+1mOaX40QQc0nzqAvqyH5bNWPchXKFGrhhLx3ff6GuTvQ83ZFaup5Mcre9/BYFsmSgNNthmt26hDQjkLapDsKnFBkryynVJRpliNfpHGHEg9pS1qqkw9MIKHpvXG+UPDiUJ5CiWq0x9pVJ/0DQ0lenyySQrmj7YDU07L/RhtrwOgt5n9/xIW27ZY7bQepOQ2dpvj9VBju6llQlkp6p6wHwFsqkFRvpEbZ0n30/SQvIgqDQ2xFhluq5Ffuuqlvb5AESZ5OdtD/pJMgM7llLDV/q2o2mqtZJTmC7aL2SjjVRvkKWRs51cIEKTGWKPai73iAX6oM+ZU9874ZdVBAwAmDE8nsNyUfNQD9jgk3ccy2latGoO6oBSTc0AnhqxQjM4IkSIeVHRGE3dGQKFthc70GBwclIcPH8qlS5eEwEYqFlWCFBVowKUM1LFjx0wtsLa2NpPiU8iB57fOnz8vJ06cMPVL6urqCvlzJfPdRQMakKkf0t/fL2fOnDFVgug3NDQUdHAIYITF5IuhTWiVIEUBmiB/1ObJkycNwJSCok95KABwkv8ROHSgscGoaGzk9evXhcB/QIfJsNxJZiPA7Dq5MXZ2Pd03HCrQqEmrrm/cuCE0MjCxk6S7kvZK+it5U7ygcJJ+BDA/jJnNR6cwHkkUxNaXxOMVapnMy4sXL8rVq1dNcTcmY+Fw2NQZJW+KwrIUlT0oED/9EFTGVgusTZggFYpCeYylBT8V8ENlNMnyqOvbt2+bE6NyH4CS/UjaK/VG6ZNxEYtlWF21MrDddZWYOUC16hqQb926ZQrbsg/NWVSgscWPHz82DZWNeiZnilqjo6OjBmzUN+A71b0L210rAGnZDKAUsn3w4IGZ2EIe1HpRgWZW/ezZM1OikfrZqGhYTBYkVYSJZMFWO8luBDCF9+/fN2nLvBDi8bGkgF5dXZXXr1/Ly5cvDZuxz8kJ7NbecNmpJ57dUJT/0Wi45JZ8RTyeMrGlPDWgYyIZu2Q5VBudymgS1ilH8eLFC1OpgNojTMw4SWbnpOJic5hNpp548kVUQh9nE9qOf3lhG9sQChEAMhNcitkyA08dr5IEGhvDBIOJG68qee7GJlWyACrzGRL++W8IFOaxdVrKFmgeH1BFjx49Mq9HmWDA6koWnkImJydNaW3KeJC/ztMJ4oA+QneGA/oIgbnfpfws0H8BAAD//+xd+dMAAAjrSURBVO2d128UPRDAJ5TQE1og1DRET+g1BIIUBV7ydyZ55pUHnhCiCEiooYMIvQcIJeHjZ32D9m7L5fZ8d76VLa32tpzXnp9nPB779ur+/E0SSNPT0/LhwwcZGRkx240bN+Tp06eBO9J/XL16tZw+fVr6+vpk1apV5jlXrlyR8+fPy4MHD+T9+/fy8+dPWbRokezZs0eOHz8umzZtkpUrV8q8efPSPzgD35yampJHjx4ZJqOjo2Y/MTFhatbS0iI7d+6Uzs5O6erqkmXLlsmsWbNyal3nQefIw9kDD9pZNHYL5kHblaezuXnQzqKxWzAP2q48nc3Ng3YWjd2CedB25elsbh60s2jsFsyDtitPZ3PzoJ1FY7dgHrRdeTqbmwftLBq7BfOg7crT2dw8aGfR2C2YB21Xns7m5kE7i8ZuwTxou/J0NjcP2lk0dgvmFOi6ujphi0ssJerv7/dLieIElHDeCdCsT5o/f75Z15W/VilY9qamJunt7ZWenh6zDoy1aX7NWFBC8Z+dAD137lyz2K+xsVFmz54dW9rly5fLwYMHZd++fWYBmwcdK6rQhaqCxkwvWLBAli5dKlu2bJGNGzfKnDlzQoXUE6zubGtrE1Yt8tmDVskU3lcVNFBXrFhhwHV3d5vlpvX19bGlVhOPmUfzPehYUYUuVBU0JhsHq6OjQ06ePCl79+4tav21Bx3iGXvCg44VTbYuVBU05rehoUGam5vNLwXof9HyuMSvLbgXK4D59hodJ6nw+aqCpjj00/TLixcvloULF4Z+ChIsMv350aNH5fDhw4IH7kEHpZP8ueqgtXiFgiXc5wMmKq3i986AnknRAe1/ZDcTSYXv8aDDMsnkGQ86k1jDlfKgwzLJ5BkPOpNYw5VyAjShTYZWjI0LzV7xFoNjx4752aswy8QzToAmEMKEBl510uwVs1u8eoGNz34cncg252LVQRMJY/YKeLxvJCkyxkzXhg0bzIYFiAPNfdu2bZMDBw6Ye8k/Kd8ciWT0gHfLjI+Py/3792VsbEzu3LkjX79+NbUt+ztMNAS6fv16E/HihSlJs1fcTwSNDXBxoMlj7dq10t7ebhoRFiPJUmSUbU61AA3YT58+GeC8QGhycrIyoAl/smqEGDerRngrThJoomdcBzLg4kBrAyJMyv0zibrlSCWjB8BmA/a7d+/k169flQENMPplTAerRrZu3ZpoYgHIggO2JI2m9FzXeeuMcktdrR8/fhht1jeHld10o9FoHTNSmzdvFkw4gOISJpiGwUY/jCniPWYXL16Uu3fvysuXL4VKaPKarJLI3QOYjREODOjidu/eLdu3bzcrfZhRzB/9lPSeMUAADMcK4EuWLEnsS+mbWXJEgXihHN/Hwbh586Zcu3bNOBhfvnzJrZU/ipUAskfmOMJHjhyR1tZWs+IHS4hsg6kk0GSkWkcLKuQw6fAKM4+Hzhvuvn37Js+ePZPr16+bt+Hx9kCGEuVO9HW/f/82/RxvK+S4lET9ETBWK1+bSsk36bvIEx9p165dZuqXz2i4Mgl+t2TQwcwKfaZvptXt2LHDmBqWIGHqP3/+bMw22o2DhkkvN2w8VqwHTs2LFy9MGQqVP+k6Vg0TyvAxySFNyqPYa4CmG6TLZEO++ZqseVYUNFDRYrx0xsi875P3fKIB9Dn0z3iUHz9+NNqmhSzHHshv374179fET6CRlZKoFxE/6gT0SiTMNlqMJUG2UZqs5agoaIBi2uifGXMjFKADm8KixWja9+/fSzalWsG4PS9MffXqlXECL1y4YIDH3TuT8wj81KlTwmpYfJFKJGRJo1JznfTMioLWgmBiAKxeIsMDPEUKTNJhg95vc0+r5zk0qDdv3sitW7fk7NmzBnja5+CbEOAZGBiQEydOGAcpbV7Ffk+1OM5ka35VAY2gCWui2brR11Tidc00MoaDaANajcd/5swZ4wiqUIrZYzLRZvyN3r8/N8JK8QzXUlVAIwRaIJqAOUcwODE4amnMHnmwaetWIeuxtnb2NCzi6DQqLAegh4eH5fLly/q1ovaYTmII2hUxmqAbci1VDXRQEGg4zgxjcTStmMT9NBQ2Ggl5AZTzjDPVSWHPdZ6D9aCrADSme3BwUC5dulTMY//dC1QaKFFBfldGd8RzXUtOgEYoQa2cqZAACjhMJ5uafs6rR4rQOaYhcA971X7Gzrdv35ahoaHUGk0DwkpguplrJ0LFM3gmmyspBJpWzhCHvz4gLGnzrxZsVpoxJGARMhrKMRqrGoxGRx3rJAn9M84Y9cMZY9ovTaLRAJZxLKD379//LzpVKICU5nlpvxMJmoAFcefHjx87C7r1/8ALAgY0JjRfi6KOVZsZWgFZ/5/i+fPnaWVovkejYwbv0KFDBrprc+iRoAlcEFAgSkXUiL1rif6cIQ0Cpb9lDE44Vbf8kCZ1YnyuETciYkziP3nyxGpkjOjYmjVrjLVB07EsUZpNI1T/AoeOhop/Ua4UCRoh6UY8uJzj2rQVQzPVa+czYVRMMdGu169f58yC8QwNdwJbj2nEdFPUsdQEOEABDe3GyuAT0AjpTvIT99JI1b9I44jm55l0HAk66QuuXQMUEyFMjKCdaCrQ8+EBmH5ZJ+s5Bj4TGjYTjQ9NBjAOIeCjNJrGyTV+j4YVYFgG7HJpdgi0zUpXIi/g4jkzHmaoBHg1z8Hncy54Xi1W8B5bn9HuoLUBalTiPpxIZp/o24kWMorApNtONQ8ayCxcYH/v3j2jtbaFVM78GBkwm8cYnLn6devWGU23/cyaB3316lU5d+6cWRnJDJQumLMtqHLlxzhfV4iw5g4Tjsm3nWoe9MOHD80QiT1mHK+7FhJmmzE9fTlr4gHc+nfIyEiiHJG1mgfNmJ+N/23EfONguThKyG989OFAxutmkoUNTcYZi3Le8r9f7HHNg1aoBHhY61wrGg1MvHOGWGxA1mEY2m471TxoFQh9M5DzAyV63cU9Y2ng6j7OO7dR9syAVs22IZRq5VEOTda6ZAa0VsjvoyXgQUfLJXNnPejMIY2ukAcdLZfMnf0PsX8m4B1JaBQAAAAASUVORK5CYII=;" vertex="1" parent="1">
          <mxGeometry x="110.005" y="289" width="71.76" height="80" as="geometry" />
        </mxCell>
        <mxCell id="HT3ukdf5lwB25Wx5WFX2-3" value="" style="shape=image;verticalLabelPosition=bottom;labelBackgroundColor=default;verticalAlign=top;aspect=fixed;imageAspect=0;image=data:image/png,iVBORw0KGgoAAAANSUhEUgAAAMgAAACSCAYAAAAATYUPAAAMPmlDQ1BJQ0MgUHJvZmlsZQAASImVVwdYU8kWnluSkEBooUsJvQnSCSAlhBZ6bzZCEiCUGANBxV4WFVy7qIANXRVRsAJiQRE7i2LviwUVZV0s2JU3KaDrvvK9+b65899/zvznzJm5ZQBQO84RifJRdQAKhEXi+NBAempaOp30FJCBDqAAT+DM4RaKmLGxkQCWofbv5d11gEjbKw5SrX/2/9eiweMXcgFAYiHO5BVyCyA+AABezRWJiwAgSnnzyUUiKYYVaIlhgBAvlOJsOa6W4kw53iOzSYxnQdwOgJIKhyPOBkD1EuTpxdxsqKHaD7GTkCcQAqBGh9ivoGAiD+IMiG2gjQhiqT4j8wed7L9pZg5rcjjZw1g+F1lRChIUivI5U//PdPzvUpAvGfJhBatKjjgsXjpnmLebeRMjpFgF4j5hZnQMxJoQfxDwZPYQo5QcSViS3B415BayYM7gSgPUiccJioDYEOIQYX50pILPzBKEsCGGOwSdIihiJ0KsB/FCfmFwgsJmk3hivMIX2pglZjEV/FmOWOZX6uu+JC+JqdB/ncNnK/Qx1ZKcxBSIKRBbFAuSoyFWhdixMC8hQmEzuiSHFT1kI5bES+O3gDieLwwNlOtjxVnikHiFfVlB4dB8sU05Ana0Au8rykkMk+cHa+dyZPHDuWCX+EJm0pAOvzA1cmguPH5QsHzu2DO+MClBofNBVBQYLx+LU0T5sQp73IyfHyrlzSB2KyxOUIzFk4vghpTr41miothEeZx4SS4nPFYeD74MRAIWCAJ0IIE1E0wEuUDQ2dfUB+/kPSGAA8QgG/CBg4IZGpEi6xHCawIoAX9CxAeFw+MCZb18UAz5r8Os/OoAsmS9xbIReeAJxAUgAuTDe4lslHDYWzJ4DBnBP7xzYOXCePNhlfb/e36I/c4wIROpYCRDHulqQ5bEYGIQMYwYQrTFDXA/3AePhNcAWF1wBu41NI/v9oQnhC7CQ8I1Qjfh1gTBXPFPUUaBbqgfoshF5o+5wK2gpjseiPtCdaiM6+AGwAF3g36YuD/07A5ZliJuaVboP2n/bQY/rIbCjuxERsm65ACyzc8jVe1U3YdVpLn+MT/yWDOH880a7vnZP+uH7PNgG/GzJbYQ24+dwU5g57AjWBOgY61YM9aBHZXi4d31WLa7hrzFy+LJgzqCf/gbWllpJgud6px6nb7I+4r4U6TvaMCaKJoqFmTnFNGZ8IvAp7OFXMeRdBcnF1cApN8X+evrTZzsu4HodHzn5v0BgG/r4ODg4e9ceCsAez3h43/oO2fDgJ8OZQDOHuJKxMVyDpdeCPAtoQafNH1gDMyBDZyPC/AAPiAABINwEAMSQRoYD6PPgftcDCaD6WAOKAXlYBlYDSrBRrAF7AC7wT7QBI6AE+A0uAAugWvgDtw9PeAF6AfvwGcEQUgIFaEh+ogJYonYIy4IA/FDgpFIJB5JQzKQbESISJDpyDykHFmBVCKbkVpkL3IIOYGcQ7qQW8gDpBd5jXxCMVQF1UKNUCt0FMpAmWgEmoiOQ7PRSWgJOh9dgq5Fa9BdaCN6Ar2AXkO70RfoAAYwZUwHM8UcMAbGwmKwdCwLE2MzsTKsAqvB6rEWuM5XsG6sD/uIE3EaTscd4A4Ow5NwLj4Jn4kvxivxHXgj3o5fwR/g/fg3ApVgSLAneBPYhFRCNmEyoZRQQdhGOEg4BZ+lHsI7IpGoQ7QmesJnMY2YS5xGXExcT2wgHid2ER8RB0gkkj7JnuRLiiFxSEWkUtI60i5SK+kyqYf0QUlZyUTJRSlEKV1JqDRXqUJpp9IxpctKT5U+k9XJlmRvcgyZR55KXkreSm4hXyT3kD9TNCjWFF9KIiWXMoeyllJPOUW5S3mjrKxspuylHKcsUJ6tvFZ5j/JZ5QfKH1U0VexUWCpjVSQqS1S2qxxXuaXyhkqlWlEDqOnUIuoSai31JPU+9YMqTdVRla3KU52lWqXaqHpZ9aUaWc1Sjak2Xq1ErUJtv9pFtT51srqVOkudoz5TvUr9kPoN9QENmoazRoxGgcZijZ0a5zSeaZI0rTSDNXma8zW3aJ7UfETDaOY0Fo1Lm0fbSjtF69EiallrsbVytcq1dmt1avVra2q7aSdrT9Gu0j6q3a2D6VjpsHXydZbq7NO5rvNJ10iXqcvXXaRbr3tZ973eCL0APb5emV6D3jW9T/p0/WD9PP3l+k369wxwAzuDOIPJBhsMThn0jdAa4TOCO6JsxL4Rtw1RQzvDeMNphlsMOwwHjIyNQo1ERuuMThr1GesYBxjnGq8yPmbca0Iz8TMRmKwyaTV5TtemM+n59LX0dnq/qaFpmKnEdLNpp+lnM2uzJLO5Zg1m98wp5gzzLPNV5m3m/RYmFlEW0y3qLG5bki0ZljmWayzPWL63srZKsVpg1WT1zFrPmm1dYl1nfdeGauNvM8mmxuaqLdGWYZtnu972kh1q526XY1dld9EetfewF9ivt+8aSRjpNVI4smbkDQcVB6ZDsUOdwwNHHcdIx7mOTY4vR1mMSh+1fNSZUd+c3J3ynbY63XHWdA53nuvc4vzaxc6F61LlctWV6hriOsu12fWVm70b322D2013mnuU+wL3NvevHp4eYo96j15PC88Mz2rPGwwtRixjMeOsF8Er0GuW1xGvj94e3kXe+7z/8nHwyfPZ6fNstPVo/uitox/5mvlyfDf7dvvR/TL8Nvl1+5v6c/xr/B8GmAfwArYFPGXaMnOZu5gvA50CxYEHA9+zvFkzWMeDsKDQoLKgzmDN4KTgyuD7IWYh2SF1If2h7qHTQo+HEcIiwpaH3WAbsbnsWnZ/uGf4jPD2CJWIhIjKiIeRdpHiyJYoNCo8amXU3WjLaGF0UwyIYcesjLkXax07KfZwHDEuNq4q7km8c/z0+DMJtIQJCTsT3iUGJi5NvJNkkyRJaktWSx6bXJv8PiUoZUVKd+qo1BmpF9IM0gRpzemk9OT0bekDY4LHrB7TM9Z9bOnY6+Osx00Zd268wfj88UcnqE3gTNifQchIydiZ8YUTw6nhDGSyM6sz+7ks7hruC14AbxWvl+/LX8F/muWbtSLrWbZv9srs3hz/nIqcPgFLUCl4lRuWuzH3fV5M3va8wfyU/IYCpYKMgkNCTWGesH2i8cQpE7tE9qJSUfck70mrJ/WLI8TbCpHCcYXNRVrwR75DYiP5RfKg2K+4qvjD5OTJ+6doTBFO6ZhqN3XR1KclISW/TcOncae1TTedPmf6gxnMGZtnIjMzZ7bNMp81f1bP7NDZO+ZQ5uTN+X2u09wVc9/OS5nXMt9o/uz5j34J/aWuVLVUXHpjgc+CjQvxhYKFnYtcF61b9K2MV3a+3Km8ovzLYu7i8786/7r218ElWUs6l3os3bCMuEy47Ppy/+U7VmisKFnxaGXUysZV9FVlq96unrD6XIVbxcY1lDWSNd1rI9c2r7NYt2zdl8qcymtVgVUN1YbVi6rfr+etv7whYEP9RqON5Rs/bRJsurk5dHNjjVVNxRbiluItT7Ymbz3zG+O32m0G28q3fd0u3N69I35He61nbe1Ow51L69A6SV3vrrG7Lu0O2t1c71C/uUGnoXwP2CPZ83xvxt7r+yL2te1n7K8/YHmg+iDtYFkj0ji1sb8pp6m7Oa2561D4obYWn5aDhx0Pbz9ieqTqqPbRpccox+YfG2wtaR04LjredyL7xKO2CW13TqaevNoe1955KuLU2dMhp0+eYZ5pPet79sg573OHzjPON13wuNDY4d5x8Hf33w92enQ2XvS82HzJ61JL1+iuY5f9L5+4EnTl9FX21QvXoq91XU+6fvPG2BvdN3k3n93Kv/XqdvHtz3dm3yXcLbunfq/ivuH9mj9s/2jo9ug++iDoQcfDhId3HnEfvXhc+PhLz/wn1CcVT02e1j5zeXakN6T30vMxz3teiF587iv9U+PP6pc2Lw/8FfBXR39qf88r8avB14vf6L/Z/tbtbdtA7MD9dwXvPr8v+6D/YcdHxsczn1I+Pf08+Qvpy9qvtl9bvkV8uztYMDgo4og5sl8BDFY0KwuA19sBoKYBQIPnM8oY+flPVhD5mVWGwH/C8jOirHgAUA//3+P64N/NDQD2bIXHL6ivNhaAWCoAiV4AdXUdrkNnNdm5UlqI8BywKe5rZkEm+DdFfub8Ie6fWyBVdQM/t/8CTdV8nBiZAmYAAACKZVhJZk1NACoAAAAIAAQBGgAFAAAAAQAAAD4BGwAFAAAAAQAAAEYBKAADAAAAAQACAACHaQAEAAAAAQAAAE4AAAAAAAAAkAAAAAEAAACQAAAAAQADkoYABwAAABIAAAB4oAIABAAAAAEAAADIoAMABAAAAAEAAACSAAAAAEFTQ0lJAAAAU2NyZWVuc2hvdAaCIYQAAAAJcEhZcwAAFiUAABYlAUlSJPAAAAHWaVRYdFhNTDpjb20uYWRvYmUueG1wAAAAAAA8eDp4bXBtZXRhIHhtbG5zOng9ImFkb2JlOm5zOm1ldGEvIiB4OnhtcHRrPSJYTVAgQ29yZSA2LjAuMCI+CiAgIDxyZGY6UkRGIHhtbG5zOnJkZj0iaHR0cDovL3d3dy53My5vcmcvMTk5OS8wMi8yMi1yZGYtc3ludGF4LW5zIyI+CiAgICAgIDxyZGY6RGVzY3JpcHRpb24gcmRmOmFib3V0PSIiCiAgICAgICAgICAgIHhtbG5zOmV4aWY9Imh0dHA6Ly9ucy5hZG9iZS5jb20vZXhpZi8xLjAvIj4KICAgICAgICAgPGV4aWY6UGl4ZWxZRGltZW5zaW9uPjE0NjwvZXhpZjpQaXhlbFlEaW1lbnNpb24+CiAgICAgICAgIDxleGlmOlBpeGVsWERpbWVuc2lvbj4yMDA8L2V4aWY6UGl4ZWxYRGltZW5zaW9uPgogICAgICAgICA8ZXhpZjpVc2VyQ29tbWVudD5TY3JlZW5zaG90PC9leGlmOlVzZXJDb21tZW50PgogICAgICA8L3JkZjpEZXNjcmlwdGlvbj4KICAgPC9yZGY6UkRGPgo8L3g6eG1wbWV0YT4Ke7aR0wAAABxpRE9UAAAAAgAAAAAAAABJAAAAKAAAAEkAAABJAAAXd+vNuVEAABdDSURBVHgB7N0Jmx2lEgbgSWLUqHGLy+P//3Fed43ZYzKXlz7fnBpylj6T2dPcy4GGooCiPqqgO+Od4xaOlrBIYJHARgncWQCyUS5L4SKBLoEFIIsiLBLYIYEFIDuEs1QtElgAsujAIoEdElgAskM4S9UigQUgiw4sEtghgQUgO4SzVC0SWACy6MAigR0SWACyQzhL1SKBBSCLDiwS2CGBBSA7hLNULRJYALLowCKBHRJYALJDOEvVIoEFIIsOLBLYIYEFIDuEc95V9V8W3LmDe/9p6fFR/UcHqav05zGWOxPj82D1wfBYAHKJS71J4Smt8lpXAaL87du3J6MMbaU/qVxl8Lx79+5RBcT4XNtUulq+5NsW1gS9/IOpS9KEXaIGgim+OWVNtHn58uXRmzdv+ig9//fffyfPm4Z+7969o48//vgEIMCR54BBWUCTMrxqfhPvD61sAcglr3hAIo1liNK/evXq6FUDw+sGAEG5+Pz58w6KlGmnfFug+B999NGJsnv+9NNPTz0DzCeffHJ0//79DpQRLAtQJukuANmmZRdUHuVmBQBCKr5+/bpbCtZCeQAgVV9D6vYpceqlAQA+ngHjwYMHPQYsLI840ta+P7T8ApBzXPEoblhGQZWLwBFgvHzx4uh5i8DwoqXqUr+JD6Wt5TWf/sa09h8XDU3aAgbLwpKIn0rbM/AELOEx8t72fCj9Nj7XpXwByLmtRAPB2xbb/4Q7d6ZDMmUMKAIGgJAXYz20AQIhCtwf2k/d0ce60OxKtXm7OsOg82yUlBlvYOCSBTAsC+B4DlC0a+R+ezu5TWEByCapfCBlu5ST8gDI26Z8CZTFzv306dOjZ8+e9ciFAgrlI7+uuK39qGQnzyvFDv/ZaRmTNusRrsCyqgcWoBBjVYBFHoDutvncaTQB8sm4dgxkDs2O5ldetViQA5ZgVOjatAOkaV49YwACQDx58qSDI65UbScfJYqb5TnxFO1ZAXKKyfohgKzzovyi/u83UHzaAPLZZ59NZ5Xmen20cr9Ck7GvuZ7O7as/TX39nhaAzFyTqkRjPsocheM6/fvvv91yAIUDOLAAQA2j8lS+kzeTF4lTq5G+8qr5ymdbPvS1Xln6SDkXKwd6QMmZhZWpN2Xhty8N/31016V+AcjMlYjCIE9eSvHtphQpFoNL9ffff3eAAAWlENMuXUZZlCeqo5Cp8xz++pDP7q1uDOFjLIJnYwhAN7l24ZE+M9bjFaC5VcBQ3a7PP/+8WxZjSrvw2ZUeQruLz2XVLQCZKekoHnL5BNYhi+6cwZ0SgSR125Qo7WJZ0ImULyBAQzlzs+QZjbJNwdiAIDw9A4exSRONDV0NmVfGpS6WTFmAaixffPHF0Zdfftldr1iStK88K6/Or/G5SWEByMzVsviJaeKZInKpvMx7/Phxv7LN7VQUhpJEUcay1HFZciAGECAQ1FNAyiloryz1vXD1ozz8a7kx9rfxANJAYXwAnAsD9ayFC4YACy+hpjUPJMb51Vdf9dR4Msbad9qkbHxO+XVNF4DMXBmKV6NmAQeLARxAkl05ipqUurE72d0pWPx5rksAIlVXlY1SpW99et6kaJvKjFNIe/2zIiyI8TojBSjqMj70sR7aV97pPyBhTYDb2APc0CfFQxifp9Lr+7sAZObaRNEpkHzAARj//PPPycu+KE8UIYpZu2ERHHjtwPV9g3IKlra1TfqUAk8FUKVLHl1C+CkzfkE+QGFRxIBFPkBBmznJ12AMxmwO5vPw4cN+TskcNrXLWCqf65zfAZC1gKcJ3Czf8SKEHgWjPLm+/euvv7piVYWkOFEESigo+7hZBm+q7bgUKu8XQlvbjeOv/DcpXugrXcqSpq6m8sBunABSozmqEzLG8EqqHCCAxLxEeWWb5rONT/hdt3QPQAKSgCPpdZvG5YyHn+5DQkrErXKVKxUsfJSpKkYAAhABhnzcEe2isOHTGe752aZoldceFr0afSLgizmj9HNKm6tzS+a2jWdAworEMo6uorZtun793IgwEyDmMk5qfL4R8z3zICmRzzWeNb8dMMT6lW1lTHkToziUBkBYDWXiCA48til+5b+L7iwACe+MBxhsAgAiyjuzAPvIv46Xu2V+5gkoNgLzrKHST/Pov5XkWuUPAMg4bgD5MEDSwcF6NN/8n9WZw7Wp3VbI7mrxowDSKEuAUa2Gdmh2KRyabSH9jPUjv7F+13PGczLfBooXL563K+LnfTOwIeR8gg/6xPAFCPN2Bfz111/3fB3rSJ92SSttyq4ynQGQ0c3KcD8sgNhBuVPOHNJNu+mJZJri8MMpiSgftysKEkUYFTrl4bUt3UY38tvWfiwPv7SXijYBc2dFYjnHs4m2aY+vubIeAGJzsDEoEyrdnOfe6Ap/DgBIn04Zatv9Bgty2+xJlIWS2D2Bw42VXTQK1KXSFCSBAgQc3hG4/owCVeWo+bSt6b76SnsR+cw987QhsJpu7aQAk/OV/jPHjIW7Ze42iFjQ0d1Ku7TZ9FzrriI/DyAxIgFE04cJHGvF6JO7xBlkAccuz1Ox9JFDq93zt99+67dXXKr0XxVDvroXdtHsnIeO8zznMfZ9yHPmKQWIejZxPslmYbzjXD1/3mTwVbMkziQ5tHetWW0q4zzH50PGehG0OwCiO8hosQmnZxV1cMg0k7mapCfhNFymsov6rUqaPgg3MQM29DHMWQQKoY+4Vr6tYj3I4s0KIHVHpAwBh13T7mkX3Rb2jWFf/Ta+51kecIRnZAIUrAh5sCiejZc8pOgSgYIF4W65qPCMJvNLmj7G55RfVboHIIYVgKw1recIosWENuVLB0gOxydjWI1nl5Ankmnc2+iyuHErAg7PWrr2RFMBMLlVD/unFw8eTJZjG3/j3VU3px7NRQVzE5KmH2NWVjeOP/74o5/JlNskQuNZ9OwMYtP45ptv+sYROnViDeNzrbuK/H6AtEm2mbbohVGbTPs/8XVwnMxtAsdlQiQLII01kRci5M0L0Ck6TaXrDVc/+HCtHEbtkM4e3Inwq8C0a1IAu+TDh1+0XXI6lIZ35XtI/n3bH9LXSBs5Jk19xqScDMiHFRGd0bqerBQ+bZOyqI8ePeobSLUi4Tn2keerTvcCpE+Q4q0AAhPHQCJzCv0XC5IIOgLzTInt6twg0XMNdqq6W8nb9cW4A9MUJqRbLHxFboPbqny2Hl8b//CkJHjxr+2QeQGobFz4Oq45+fdtP6ePbTSRddLQZUyRUUDSLWxzQbuMQlxS9OTt0uLbb7/tVmQt/0n2IU8feb7qdBZAjhs4GmEb6wSCzQCZaleq9l7z2rQwFiOASAoUdrEABFhqW4sQZTYgz3Yv7pDUzp8rSAsjZvHtiNwHuyP+ysNfW3yV2RktPIAoH/s8qyCuUlEiw6SZQ8akPHV04+nTZ30jcZHhEK+OfITISRm5c7PIy3mtrs3YR56vOp0JkAaO5mF15ffT4glIVjNYFffKTjdRn2l+a+FPCxFAAAPFDSgorDpvuH2qnXa10yyqsixcwGHB8llEBQqeubWShkeAEguET8CBlwXPoqdNHcsh+fdtf0hfI23kmDT1GVMvb/LuoW0q1oELakPhknqOHKQCmWrP2rIi2VB6ZflJH6XoSrP7AdJOHF0W7Zu7O5MRadtCK2vzPu4FK0F168LCTFZmBaczTS4LExMOFHYmETj+406tbpLmdoAnfkIU2W5vJ+MaBSjKAIHb8Oeff/b+lFm4AMQzkDh32BG1DU0U47ot9Fw5oYv8t7UZ6z1bF9aW3KxXaAIQsldmI3Kj9ejR5Gr56y81XDe5zQBIG377ax1HPkqlX+YDHD0CB79f2m4wejwfgNhx+LR2JmcBQqegBB1Fb532MEeoFift0GfhMKDsgELhuUwBiN3QB4r+UIE2cbHk0X/33Xfdglh0ZWOcRnfzfqPcc0eOnmxsYECSq1/lnVdLyZuWkJENyYF9siKuwiefQ3/qr1PYCxCD7ZMMQIz/bvPVmxVhSSbUoOoV/TcQUTo39D4asZQiEzb3Jm9tgSUKPvKsQg0fNKGP4noWYwGUdxetlQlxuZTpV/Snbvqhuy1wABLr8f3333frUa1GxpK0M75hP1WGc4aOXrSx2NCAROqZzMiCzATyj2vK1Rpfpl43uc0HyKRDk7ygnHt1AvYmoF4zQWMqPqmc2uz5rUIOOOxETDehZtE6V/23cFLWngkWXS2n6GgsTt/BVguJNhYk/TbCXnav0SrDS3shAPAMXIDETbDAFjuLmlSbmvd8k0LkesiYtSEfG1lu//LNGln0TaalaDzn2pcVmc5/1nRax0P6vWjaWQBZaX+SkzG1efYQeKRiKl5VpnBPSsB2G7s2P7aa6dq0c111XBey5kOfsii4hUlZaMa0KjZasZZZaIvq7MElC+9dfMa62/YcOWVTAZJ6hrNmXU7NCqMhTxsLOe679r1qWc0DyIxRVpAcChACBg7njPGgR7AJAUdVdHm7ulhp0wZvi5LoWag8QqtsDKFPuZ3PorIgOXukrqabeNX625Qno8hZykqwHr///nt3tZRl7TJva/XAte/qRmuyIuu1Dp30KmV5jgBZT+ldNVvXjbkIluXwxjrnjviuFD/KLK1RnZ2I0jo0y/edqtGFL2DgJXLXuG9vWn7btbDxjQuCl4B3XnaxHvrfFkYe2+huQzn5jJGc3QKyJGS/KVgvGw1rnGvyrG+lv0pZngtAJvVZT+lQgFBc4Mi1qh0opjhWwQLIE6oIELma5fZQ1oCJQKPU+MhL9QOIuTZ2iNTXGMYFCQ99/vjjj31RjWGkq3x21VW625Cv4Mh8gMJmd8qKFAutjfWKu+qwXmW6SX6bytLfRaXvBxA7Rx3ZSgBzAUJIFNSNB3BwrzxXgVeLQICsBWEmRqj7hIcnRQcKuxuQAIuorIaRl3bKWI2ffvrp5OZlpNvFo9bdtnzWq85LGRl7eciKVBmTG5laWzLNec5aZr03yXZTWe3zIvJnBggB9Pcf0v5+pMHCSx/JjJFGYe3q47lj4j0xSZ6VYDFEQgWU3IzMFVz6DFCA4/Hj6Ury1as1SEZ+2vGRuQPefbAkI8045X31I/1NfyajrFXm4oWuy5bfV1/8BhRkk02Ha8VtJdtdbhaeVyHTswGkC6Oh4m3zLQHkuPnizVzeae9H2iwin50pYbIWDnP55qkLrbZqvNAQDFA4HAMIZT0UHGGbRewgcSX59EkD6OOTe3t040J41u+j1v/DdvOSvsNzUzry2ERzm8oi1/WcWOy1FeEhsCKxEOQvkKXPT2w8ZJx6daMMx2c0Fx0OBkgXxNtXDRwt9g+y3DxMAGmzOwWQXRPCh8CcPfxLPW4WegJK8CyyFnaYfOSWcukhQZ91Ib0lf7Xa5VgxFiULh2/ojUn/P/zww6ldblffh45tF6+bUFflarx5dhaxxr/88kt3bQOAyJacAMNLV+eRnCPxGGU4PqO56HAQQHy5OQHjxQoc91tqiE2p3ejcbbEo7bYJRTjOAg5xdhd5whNTL++sQTkJr5pgvW7jr25TCN9ax0LFzXvcQPKiuXzohNCzWD6NYMHmuFfaHjo2bW5yiMwyh8hO6rD+66+/dm/BM9mkHr11JV/rTNbqE8NPehUynQ0QE2r3o01r2qffDQ/tiNVBcrd9i9Wm04bfPiU4ACBxr1gPAsxVYAWIQxuhjR8EnlVQdVEieGUsmQMlgDxuY8mBsrt8bbGA0wLa6eJe7RvDvvr0fxvTyFlKDmRrI8xhPbJRT8b+4qR1/rbJmLdAB9CELulVyGoWQPqE+YztRpRX9fZe2wG66WgwOX7ToOJF0AogfRaT67NtYvhV94oAE7SJYFkP4IhrNQkO5WGuVXj3ebS+xwCs+USCO2A8aC0eQPCPjQNg4wJsm1t476sP3W1MRzmP1/iZc2Sc696cQ0YZX6Us9wOkKcrxcfuHSKzH0ScNIO0GousnRbNDsCXyEO/8EOVd7wCt8FSgePx9h/N6eKtEFNPB3M6Sv4ixSVCbyiqfmrcgCWPemCyk8QBJLBpQOHsASF24ff3uq884bmdKZ6aZkTO5sh7WW74Gco8rPZ5DIsOktd1l5XcDpIOjWY5jZ457DQYTQKa5+2U5pggX00TmASR+qWtAyhizmonnWvXrdgXI7PqIUBiFNT6n/aa0gmJTPavmsJ4/74PGOAAEUAEkYV+/++rD57amkTUAsM7WGUCqt2Du6snKOQRAxo0IzVXKcitA+gT7v0P3j/Hby7ujB22o9zscDHoKa5BMAFF6PgABCn4/9yovkDr3JswaDhVeFi48anuuVvxlCyoYh4VjxYB4bqh857a5bXRkDQA2wCert+pP2m1lDVkPGxE5uwgZz3lXKcvNAGE5vP07Zg6ftfhxM5kAMu3idYKsSA/dgtSaycWKANRMuj29JIoFyQGdEKogLurqr45nGtMacOrsdlwsUeDmAaodLqGOM2VjOodmbHPbnskTQGw8rvFzITPOE51N0BmErOWrPlylLDcAhP/YlL5ZjaMjf9rfofmTlrYrXe87toV3ADKZxs5raKPMDv3L//539G97URgzG0FI8/JIusu1SZuhizM/ZjG5WnY+N1i5nw/TOX3OoQm/25lO5xBrK7LMXCxnETImH5EuiNaY9QCSXOdHLlcpy3cBYsCxHg7n3a0CjvUBfL3nZgotPQAgBEZQP//888mNUQSGI1emAqS6NqOwxucyojNljc0C5hstlizvPgL2OX3OoTnTAG9Io0lWk/J7o56ve1lmZz3yEQMQa2wjct4j811rfpki2AiQfuZoB/OG6w6QNTgmd2o7QE7XVCWJIChg/kGNl0fyQgQmbzcBEOZ2nwVBf54h4wQSkT9ssbKY+qrz2tb3HJptbW9D+QiQ3BCOt5aR9wiQ6jVcpTwGgEyIP3rbXga2lx6T9eBWUfzVbdXq6Z1Br3aEWh4lIQTK5uO1lw0QzC0Xy/lDuYA29IQVgNhVKOllhixa+sy48jwnPUubOXxvCs0EkKY1KxcKQLhYsSB1HmhuBECmyTicT1+2tn/N3WABIKvbqpWBOG0nCGGarnL/0fka+PGEAxRSFkOUZ2ojSG06SKSNRw7HAchlK1wdV53P3Pxlj3fuuC6L7kR+ANI6td6sB5BY94TQ9U2xXYhwsb5Y3RimLrTSyDVprbuI/CkLYkB9UO3swa2qf5w6nb8Djjb9qY3Br//rq1wpQnF74YtdKbCkj6Thm9TERX82/1E7sAFIbjVCc1lpn9cZO7usBTzj8C682Sg7myLr4ZMT55Ex9DVvZw+HdFf7AJNQZVnz6sfntDmvdDNA+j/wmKDg0xIWpAIj+e50nYAKHeWe/oqe/2yXmyDgYD0IrPqVI0A6T41XIQDJe5CLFkT6XdLzl4C1ZjVYkF0AcXtlvbnXOfvRGdH6b9KBTWXnOYN3AbJypyh7XKupw9MgUd9LAARlS50xgEF88uRpuwl63q2G9uME3wFIAQd632HZTWJB6o6ifgk3RwIjQHgWysZgjYFEDDC8QBQBRkx5gJEUr8qzlo/9HPL8DkAmUIRFV/3VwzghV3TToPwZUP+BS26Ur2FZjf9ec9PcSJ3+m1Qmwf0SEwgmE0rqDXYFSMqTpu2SXn8JWHMuFgviZaH8GNBEwelDdAIoXLMDCVdbCkB5pg9i2o58Pb+PzpwCCHCc7iigWKX+WNwqCxzut50rXryc/oLFk3+f9FspN1Pqp8Gf/nQZMLTJ7VV2BAKpIRakmtta/z6TrnyW/MVLgE6xGsCRQ/q4fmiie5PerN1tI0yZT+M/a2cV+uEiB1hG3Rl5j8+HzPgdgJxuvEJDUAFAjcBE3r5pu8LrV/3A9az9+XsHMIevyV9c/6OnNrXOMoOs1iPgiOmsE2VB+KNSdLUOw/DrzJefay2BChBnEBvkuH4BRyZS62sdPaAPdMYLxYCERZl0b7IotX3Nh//c9P8AAAD//wqM+Z8AABrHSURBVO3dV4xlR7UG4D3BGXDANskXbIJsRBAgghACzANc8oVLRuKChEgiSgjEiy9CCCFeQCSDkAADD4QHBEgkgS4imSByMmAMJjqBw9gz44nc+ur0312zZ5/u4+6ZcfeZXVKdyquqVq2/1qqq3TOb/l1ct+iaaM1r05O46vyePXu7HTt2dDfddFP1O3fu7Pbt29dt2bKl27Rpc62Dcuqni82bN3f8scce2x1//PE13Lp1a3fMMcfUtso4YZuX/NDZtGlTomO4zjlABnbt2tVdc8013T//+c9u7969RUYm61d/S1ydaa4t005aSG6OO+647sQTT+xOOumk6skMWQl9NNv4tD6m5W8qnfVG1iYPjKup+r59e7ubb765AGN7t+3GbR1w/Hv/pGz//hLptJsIeks+Qg8cJnTb2972ABC0dQ1Y/c2FEZt6E1a2lklrP7ojxwHrSl6uvvrq7l//+lfdSPsbXn/t29ENlVXZKHLBAcUJJ5xQ5ek2t7lN3XSVR0YStjRnja8AEGSWQAIge/fu7rZtu7FqDRpk9+7dtUYFTwEHgNAgBkijSJtAUN5qDdqmTrSAoDRaHHN/Qv20ikN5iwTGyLriAAHfvn17d9VVV3U33njjklVR8peka7LBZuDWN8BImLKE6gQIQnJm0z3ttNOqdSKPW4usDAAk3U/CyeAm0yDs23ds764tu8C2bdu63Xv2dMR6YlIt7PgNMAAAIKCaxqAOTUJ+60ygPwnpljH98rb9GF/fHLCONMj1113X7Syh9KIvMkW6yNbeIk821erK+suLDCRU1salW5DEOjn55JPrpswMi+wk1GZWNxNADGj//n3l3LG7u/7666sdyaziMrgCkwoUaRMTAsXtbne7Ghp46g4NtJ8n3TKiXz7rBMd6tz4HrKNzh3MIAEw21YnVYF15MqNcPU4bacBipbT5kYuEVTZK/UKo0gIKmgRIyKBNmewt56bJ10wAMandu3d1O3bu6K679truurITyKsH8tJxGVYFRwYMDEwqg8w5w+ACkKGB9gfYTw+1GfM2BgfIRWSjHXG7xsrJFM9J7ykaxUbMA4q0cmCq9YCCW9hM0we6QEIGmVs2aTLZ9jdpOP03dWcCCPQa5PXXX1c1yM0376qUW1QaHA+tp5xySnfqqadW86qCqAyY02k6rhnNTz+/n26qjtE540AEOzJkeuIBAg0CIGQwWkWoPDIlDB3tpckeDXLmmWfWjVq6raNeXF/ekp4JIAZDa/AG2Q5MB5mYAThv3P72t69hC45pA5mWnwGmfAznlwMR2oR1pjbcEpEXoNAggOLAz4sri2tlJnGaxIZNJt10JT/hUFt5KT8IIAcMslSUdlt15ZVX1kHRJqkTItK0CZVGc1BpNEnbUY1PMmp+/ye0kt9PJ//WDDPv5cbQH/csbYbo9elM6tDSQ7WX8ibKeqKxl3LXdyw8SnjAaMuE2ymTv4DEGxygAA7X8ixxckkWnUdOK7J5XLk0Uhbfb1cJNbSWBYgBQ6iBXHHFFXVgsRF1kAkZhBsq9h6ABByLnU1GkeRgmAmlsJ9O/q0VZq4JM45p42z502+Ttv1wGi31lugdDJKhdkN5/f7WU3qIR0N55kUmWTXAccMNN1T5DEgyp8yfbKJDPmkRQCGf8tVJvYRpn3BFgOwqaswL6LXFvMpNgsY6MNB0nnPHcmosnQ6F/QH200NtjmSeeWbBEg6NMXnCtEl9400e/nF4mMWqGQs/oZO8afSG6mnTzw+d9Rq2PMoY+3mFpcVNtCO+OZsAiScHYX2TK+vUOnywqQtdGJ1++unV/AcSefFtmzY+CJAMDGGdR3tomDKLKi50EDrjjDPqALLwk7ksIbTtdLm4Aa9HZ6517sJmgP3xJi1Mm9puoU3yLDCHX3zaLVQbTKdtS0/9tm3iEzauT15mjv2wP69+edItbwMSD5A3Fb/Lw3XWqjRQN1YPLWIjZ+k4DmzZEr5P59NUgOiExrimfB5wVfE6sZD9zmkMZpWOPQpmgUymjWdyK4WrabMSzUNRvjjvHkBa2hl7QmVpJ2wdk0C9WR6y1ONbWqHX9lXr6aTUjWvLk7dew8xppfG1c7LR4KVjgDc6QMk5OfSyaaNLXt1qMbXC+5Zev++pANGxG6srr7yiPgxu2bL1AIAADDUVRLq96t9aLddxfyBJr6ZN2h7OMMLZ7yP57bjbuPp4mcXqt5dWP36onrJ2c1Kn1UAtzdBJnvRGdUO8MJf+nNRzJnEeuba807lUankOCBzgkFHWjvOIDX1Ie9fKCz8HAUS+DqGSeeX26sYSbimdVCSWMuX2w9xaRXto2w6+jSubxa2mzSx011oni5Uw9CwEb9w+lcCXvn1rM8HPCPXiHAsfS8Pa1iLyoSfUzoLmUKlP/csnEJwdsXWh3Q/bOhsl3ud1xp25JS3EL7dbeY7AH+35aBB84/IUwfJZSYscAJAMSMi28+Wlz5N13EeahdORTtrX8jqC8pNJJEz+Rg7D8HYOUee+M7r0D3+oWvee97xnd5e73GVRo6qDj5deemldQIsJMBF+4TnnnNOdffbZFQx2wF/+8pd1g7rrXe9a853z8NIiE4LLSl/HFpv6Xve61yJIwmthGzferG079tRp8zZq3PzwBu/wp34ruHAeMSd6dH+pg/f4bVOnSfBVGi9aHoU3BwEkQsC88vUlu65tGAZ6utcJgFBVOolbJF46nScXPiQ0N8JP2C+++OLuc5/7XAXCk5/85O5JT3pSfQ9S16L85je/6T7zmc90v/3tbyu/5OHTzYXPtM597nOf7nGPe1z3gAc8oC7wu971ru5Pf/pT94hHPKJ72tOe1t3jHveoPNbfJZdc0n3+85+v9J/61Kd2d7rTnRa1ljGh21+DdszqtC5127yNGM/G40YLSJhcQFP5USYEIPgnnRstMpzPUFoehSeLAFEYj6jDTh4HqaE0FmoMFOw4ANHBkEsnQ2UbMS88yNil8com8pGPfKT7whe+UDeVJzzhCd3LXvay7uwFjaA+AH3wgx+sAHrUox5VNxcLqi0g/PnPf+7uf//7d69//eurxn7Na17T/fSnP+3ue9/7di9/+csreDzAWuAf/ehH3YUXXlh3QP3QMjYoZWhy1oxpJpzVbfT1Mnee9YOvLKCYWuZmvQIQpil+0iLiMcMi3+HFIEB0AIH+wMXuiMlhPAKIOX/kNiDE+wuRTvr5GzVt7n2HV3b0D3zgA/WAaNeyO73gBS/oAIEZig/f/e53u/e97311Md7whjdU8OAbk4B2efe739399a9/rYKvvTqA42rykY98ZPc/hd797ne/bl8RgB//+MeLAHn1q1/d3fGOd6xrxYQjFPpz33/uuefWMkDJ2Jdbk+XK+vNej2kyap42LVrEgd16AAVnfsrw3YaCt7QvoLRKQL3wYhAgzhwYzXM6DYMNAjELb2EiALXiUfaDF64XmTuf/exnuwc96EGVA9///ve7888/v3v+859fBZWA0iDvfOc762K86U1vWgQIgP3tb3/r3vGOd1TNAES08lve8pa6kHY3D7WPf/zju2c+85lV89AgH/rQhyrtV7ziFXWxv/GNb3Q/+MEPqmAYhEV/8IMfXNsRgtYEVh4BEI8bykvZRggjp9YFKIDDMcEmBBR85Nh88IQG4ftWUHixIkDSKYIaQSCA2OUCEGVHo8OLv//971VY/1AOzf/99Kd3J5WN4xOf+ETVFC9+8Yu7Bz7wgdUc/c53vtM5VxD4l7zkJXXnwkdnvZ/97Gfdxz72sVrvbW97W13Et7/97RUMD3vYw7pvfetb1ex60Yte1D384Q/vfvWrX3UXvv/93RnlPp+Jddlll3Wf/OQn6/oEpH/5y1+qYNBkD3nIQw4QAOsYAWjXbSivLd8I8cgrkACGY4IDuzSA9J3NCEBYRG15eDEIEItGezCzdIg45+/DqXjIs0MBiFuAo81lF7L70xZ2c4x+9rOfXfly0UUXdT//+c+75z3ved0znvGMupmo9573vKeaUYQ+D1U7iilwSTm4W8SnPOUp9UCO9wCCv7QQ04mGYmIReKbD+wtAmFHA9otf/KL79Kc/3Z1XTKr/Kgd6B0875+WXX17PNc4xQztkKxDztIYBifVxe4hf4kOO/OIjeabpF6+ViqxzBwEEGACEWqei0lmtXH7cBCAU5NkRjybXbhjs3E996lPV3/3ud6+7u8uLb37zm91PfvKTKvAvfOEL6wIwf9773vd2NM055UpXPbuUzcbu5RbrsY99bHfWWWd1f/zjH7v//d8LSvw/qoaweB//+Mfr1S8QAQ4t5ZMJGsSnQMZhx7z3ve9dadzhDneoO6Nxaa+f7IrWCzjmFSDmZ52YWTYeIMEbsi2/dc4hAGJTEW95pN4gQNjVVBOiXJ+oxaWWEAWWuD7x5M9LiA880wrz8YjZRPhbfhBYQk5TvPSlL61Xt84NNAihpAVccOQtBB9pFAtFkJlMb3zjG+vt1Kte9arubne7W/fDH/6w3pRpT5M49APB6173umq2fe9736u3XjY2NzgWGxCf+MQnVjOvXSfroZ95Bog5WiebGJ6Q6XpY7wHEAzi+u5ENQFo5HgQI1P3jH/9YVEstQDSmNRz8nENaJreEDXDeXMBhXhjubHBRMadoU2cNFxbc9lJ2cRFYAHruc59bzSZmkJsqdS644IIq/PgVjzYhFv7+97/v3vzmN9dFe+1rX1vfQAi9dxbe2UVan6985SursDOHLbBxOaPozy3YQx/60HpNbIxoWy9ev+3a1YHP2Q+A2OTdxi4CpDdHGwVw5NOTrEeqDQKEaeXwCXGY2joEmARMAYvdliubZ2eulSdFVV9ddqUPf/jDddd+ejmcP+Yxj6kbR/jx9a9/vfvoRz9ahdg7hncOV8E2F8Lv7YKAhmZ2dLby7373u+6tb31r/QMfADn3vPPqbnh5OVM473zta1+rC+4xkgkHUL/+9a/rrZW3FHf/APKVr3ylbmRAxCyzPswMHsj0Oc/OPFuA0Nh9Zw0CEGvTl+EFgLSPhJPHKxoEArPgIRyA3PnOd64aJPnCPvG2bB7i4QUB9PZBI5gzIXVT1JoxBNZBWl1mlqtzj4lMKY+BzCYCqj26eC0uJPAAwgxzjXteAYgyu+C3v/3tSsfN17Oe9ax6iPdZyle/+tW6YTG/CL83FRrEG8pznvOcxc0MnWgQ8Xl2AYgzCKtoCCB4wMRlZjmw97XqQQDZvXvP4iPhNIA4g9iRLHZLcN4ZHoC4xHBL9eUvf7kK+vnlzeOshW+vqsAVprs5+dKXvlTPE49+9KMr871V4JnbLouCX/Foi+M57e1QDiBe5W1GnDrofvGLX6xnEGec/yyfpxjP/xXazikcOrQ7YPlURdjeYqXPWnmhfuLzFAKIjQnPmKSLr+omWXhUGFqne2IBhvNc5DnrXKuVBFfiEy0CIAg62PQBgrEcgCBokY82gOAVxmM42/aUIvAnFz5EG+DQ5qIZ8E45k8ktEucPepQRfNom/GwFFn07HXPKGc9NVXicvp03eAtq5/t3GY++XA7cUHZKZqB8ayTMjZkxtH1Kc8mbpObn1zoBBXnGr2kAOWHhqxDybB0neJjwoWqQScYwQIbY5TAYgLR27LwyOjyIgLZhGBqm4gGBtjgEVbk4l7rqLHoFC2lRdHjAYirtL0CzfaGZMvSk+dCp9bQr4FJujY45xr8qeODrcerrK07ePDp8CEBsaLQJHtbZmnOJcwASeQ6fw48GIJPFsXv5dNtfEVrgIYf5dkGIs4hx88rozA9zaQYOIzl5EVghF8GVjlDL27zZ0ix9Vr24UHIXhDT0rAPeqjNZxhLpuaxPzKf01a6JJvJbl76S108nf6OHhwUgBMCXvNQ19A05AGnv/VNnXhmd+UV4pTPXVvhSriwgUbetk3byW5d8dZlMHmQrnUKrFe/QSl9oVEBot0Cwr9UrzQYk6Sv999PJ3+jhigBZmKBbWRpkhTPIpDaibksAxBVZFkRpGAkgbFsapG9LL/Q5l8GQoCUvfAqP+gwYyh/KS7vQS7osRAXAQfmlQktHvJ8eaoNuW2+xnzmK3BKAuHRyVoxlEDYcYGLJnAUgVPqQBukTTyfzEg4Jmrz4zJPg4WPqS7capa3XxlNfXhtPnaG8lCXUVyv44tPatfXSfp7CWQHiepcGuUUAyacmsblbZgKI2xU+d//KW9U+T4zOXIYETd5Qvjb9fDyKD82E8vv1U5awli9okuS15xh56LRuObr9um27eYgDiCvwXPPWDxYL/6pb4DceuBIHkP6XIeodpEEsQvuxYh5XWmbaDRHzApmveYHjaAQIJkawWx6JJz+hulxbb5IzyevXS1nClcrV69NuxxE6Cft1kz8voc3dt1i+bPZQ2OcFfsrzGY4jQz55b/lSAdIyRCNIcy3mLcQ5RIP4suq1un/jFEByd3w0AKTlU+Kt0LaMTflqw5Zun0Zb1u+zn+63PZrS9Ua2yDGA7Cz/dYd/uqrlnbgLjhwXvBf1TeEFgOT+Y7Lr5SbL5yZutAh/AJIOmFaQByRMLoTnXYMMCVf4oexQCmdLd6jfaXmHcgzT+liv+S3P8IEllL8HcSNLRuPCJ99febJgEeXCKWXqNgABksmjEtuNagIQHy4GVRpmEMDgUBMzqwVRBjGGh4MDzjxLdMuSFHfguWOp9OiKRTYza9aPs3T+tcXkJyTPvoTwl5mAMiTDUwECfT5fcMDhWlQlTSXRIryr3+TXyPgzcuAIc6AFiE3ec0Uum6RrebO7TPtbkFbWBwGCkHOI71cAxBM912oQcZqFFskBJwg8wnwZuxs5UDkQgAAD+WX9+PPlyG8A4hGW7NIazh8eCGNeIXQQQEJ4oqonn074jAHhfBin07iAQzuaI4d1Z5EWRKnfD9sB9MvG9MiBtXCATDqcu7Uiu8ysfJITutIAwbw63T/YUIDiI1Jy2ZfNqkEKzfpKW04YVQ3pxEFdqCOmVj700gn00RbqIOgmK1pEmXat63easmn5KR/DkQO3hAPkzkZOVh3OAYSMto7MAYiN/cwCjlPLW96xx+bL6mUBMvnKUSd8hD83AdRVkKgTQIhWoaoAJKqqHZB4HwhJJ+zXH9MjB1bDgZhWDuWOBi6a5PXljHx7HMztVY4G/XrGsKnYYwdciwQgEX6gAA6IhMzkt8S2Fm2iQ38XIaS+AKh1bf3EE7b1xvjIgdVwgNySVQdzb3jAwdSSH5c4+fQVSC6XApDUa8NNReCXKJSSACTEAIId59GwvS4j3K2Ae3DxEunQzjuPcKmTcFperTz+jByYwoHIo+JWllKdxcPaAQ4bev44KuXahEa+AslmrmyIZu0LQIKQ3Kb3QdK/0VKOoH9ITtt0DIk6dybxCUqrSdoBJJ4wkxjDkQPTOBAZm1bOugEOfscO2mNvtWJYMuQssmYjz9NE+3Ke8j79qkGmASSVoZPKyh+/53ySA3k7eJoDOGgRCM0re2gJM5iEbdkYHzkwxAEy1sqZOuRHXj6NciinRVg9PNcCxAZOJm3gs2gP7QcBoqAdjPiePd5FgtDJ34lkgOpz0rxBAYlDO40yBJLUrw3Hn5EDK3CADLYyqfpELidXut47bOLyAIHLRh6ZpDE8SUQmI6/CaW5T+bd2o0AO+GChHYy4zth1rn3ZeLn2VZa6BgYc6gatNAmwAIm8djBtfNoAx/yRAzgQGROPhqA5HMrJo9AhPRpDvdYx923YDuduXdt6y8nhzADJoACDKgOUfArfDqSNAwTUUmeAkoGpY1D5G+22zRgfOTDEgWzE5JDc2axpDHLIrLIpR+jFOfLHyY/2OLnI4dYCloAiYa048DMVIKmbgQXBuUqDWgOUrm5Bk9RnfCprQW0ZgEcZIIkmoU22bp1oG//qBrfSQGul8eeo5ADZAwyyBhhuVeOlAYL8TGSItTP5V18AhI/8OZwfX2Qxr+azMPOga96hRgGJAYhDsCtf6G1BUkFUyqtbAIg4BBsoNQfJroMNegKUyf+eq87oRg60HAgwACBag7Ygc0J5S8BIy5wYJn/hympx5mDBkD1yeHCbtD04XPhY8eCC5AQcSQuhmf0XFQfNBstVkNTYklZInoEFKABiwHyAksEvNB+DDc6BrPtqpqEtmWLSk7V4eeJAo06EPX1Jx9TKuSPmfeRLnVndigBBKJ0nLs23IIFo/0/40qvK0hBSPzmZhAEDCLDw7qhHTRIubeywlZnVzMQmDBw23wBCXuhGyJPWR+KAQZ5oDwdzpv1qwIHmLQZIBmIwBgzR/rn/mxbUXiaTwarfd8riDdyEgCOT6Ncf0xuPA8ut/yyz0Z5s8eSsdTZRXp2UAUw2XsAACudecfKV8pbOLPFVAQThCHgFSVF5Owva+/ZhmBS0J0zbdoCZQEJlqd/WG+MbgAM2wDUOMzISGUIu8hAZIXs8sNhcmerOtzyA0CLZdNP2lg5rJoD0iWbQ7SQMlPZwH+0An0NUrtz6EwzN0BgqX+2kQnsMbyUOHAKADI28Lw+RHSAAhvY54VBZJKsCiMG3IMlkAhJ2Y24aXMNNO5v0Jxw60/JTPobrnANHCCA0ByA4x+YZoT3LHgo5WjVALFFAkuUKomkNwKBFgMVhq7UnAUldE+BNdHRzxIFDDJDIWWSFxuABwxkj3lmDi1wlXAtn1wSQfseZiBAIPOwwuwAEYPjdfDl4AVELlEysT3NMb1wOENBD5dCiLYAgN5+AQWPIy1mDTHEtONYyjkMKkDADQOINGBiAhRYJUKJRAIgPuNYymfQ/huuDAxUeawBJCwog4AECQBzIW2CYsfqRo6TbUPyWusMCEIPIQAMUecACGAABNMpa7SJvdPPDAQK7lg0vh2+aAiCkaZH2AD5LH2sZw2EDSJY5QJEWB4IAwYTF9+4Fmj1Vy7T1Q2MMNyYH1iKYZhwwRFM4q7aAmJX+rPWGuHzEAELw40ukTtRHY8mjXWI/Dg10zNuYHFiTcC5ooIBitbRW2w7HjyhAAKN9QMrt1ag1NqbwzzLqtQhnn/6hpNWnPS19ZAHSG8WtMeHeEMbkYebARl/jIwaQw7wOI/l1yoERICsszGg+rcCgOS8eATLjAg8BZXJFfugek2Ycylht5MDMHDjsJlZGMgyQERzhzxiuTw4cMYCsz+mPoxo5sDwHRoAsz5+x9CjnwP8DrHUoK0UtbfMAAAAASUVORK5CYII=;" vertex="1" parent="1">
          <mxGeometry x="317.79" y="150" width="95.89" height="70" as="geometry" />
        </mxCell>
        <mxCell id="HT3ukdf5lwB25Wx5WFX2-4" value="" style="image;aspect=fixed;html=1;points=[];align=center;fontSize=12;image=img/lib/azure2/databases/SQL_Server_Registries.svg;" vertex="1" parent="1">
          <mxGeometry x="331.735" y="438" width="68" height="62" as="geometry" />
        </mxCell>
        <mxCell id="HT3ukdf5lwB25Wx5WFX2-7" value="" style="group" vertex="1" connectable="0" parent="1">
          <mxGeometry x="326.05" y="289" width="79.37" height="80" as="geometry" />
        </mxCell>
        <mxCell id="HT3ukdf5lwB25Wx5WFX2-5" value="" style="image;aspect=fixed;perimeter=ellipsePerimeter;html=1;align=center;shadow=0;dashed=0;spacingTop=3;image=img/lib/active_directory/internet_cloud.svg;" vertex="1" parent="HT3ukdf5lwB25Wx5WFX2-7">
          <mxGeometry width="79.37" height="50" as="geometry" />
        </mxCell>
        <mxCell id="HT3ukdf5lwB25Wx5WFX2-6" value="&lt;b&gt;&lt;font style=&quot;font-size: 15px;&quot;&gt;Server&lt;/font&gt;&lt;/b&gt;" style="text;html=1;align=center;verticalAlign=middle;resizable=0;points=[];autosize=1;strokeColor=none;fillColor=none;" vertex="1" parent="HT3ukdf5lwB25Wx5WFX2-7">
          <mxGeometry x="4.680000000000007" y="50" width="70" height="30" as="geometry" />
        </mxCell>
        <mxCell id="HT3ukdf5lwB25Wx5WFX2-10" value="" style="group" vertex="1" connectable="0" parent="1">
          <mxGeometry x="460.94" y="275.3" width="95" height="62" as="geometry" />
        </mxCell>
        <mxCell id="HT3ukdf5lwB25Wx5WFX2-8" value="" style="outlineConnect=0;dashed=0;verticalLabelPosition=bottom;verticalAlign=top;align=center;html=1;shape=mxgraph.aws3.add_on;fillColor=#759C3E;gradientColor=none;" vertex="1" parent="HT3ukdf5lwB25Wx5WFX2-10">
          <mxGeometry x="20.25" width="49.5" height="23.25" as="geometry" />
        </mxCell>
        <mxCell id="HT3ukdf5lwB25Wx5WFX2-9" value="&lt;div style=&quot;font-size: 14px;&quot;&gt;&lt;b style=&quot;&quot;&gt;&lt;font style=&quot;font-size: 14px;&quot;&gt;OAuth2&lt;/font&gt;&lt;/b&gt;&lt;b style=&quot;background-color: initial;&quot;&gt;认证&lt;/b&gt;&lt;/div&gt;" style="text;html=1;align=center;verticalAlign=middle;resizable=0;points=[];autosize=1;strokeColor=none;fillColor=none;" vertex="1" parent="HT3ukdf5lwB25Wx5WFX2-10">
          <mxGeometry x="-5" y="23.25" width="100" height="30" as="geometry" />
        </mxCell>
        <mxCell id="HT3ukdf5lwB25Wx5WFX2-11" value="" style="shape=image;html=1;verticalAlign=top;verticalLabelPosition=bottom;labelBackgroundColor=#ffffff;imageAspect=0;aspect=fixed;image=https://cdn0.iconfinder.com/data/icons/logos-microsoft-office-365/128/Microsoft_Office-07-128.png" vertex="1" parent="1">
          <mxGeometry x="600" y="290" width="78" height="78" as="geometry" />
        </mxCell>
        <mxCell id="HT3ukdf5lwB25Wx5WFX2-19" value="" style="endArrow=block;startArrow=none;html=1;strokeWidth=5;fillColor=#ffcd28;strokeColor=#d79b00;gradientColor=#ffa500;rounded=0;startFill=0;endFill=1;" edge="1" parent="1">
          <mxGeometry width="50" height="50" relative="1" as="geometry">
            <mxPoint x="373" y="280" as="sourcePoint" />
            <mxPoint x="373.49" y="230" as="targetPoint" />
          </mxGeometry>
        </mxCell>
        <mxCell id="HT3ukdf5lwB25Wx5WFX2-22" value="" style="endArrow=block;startArrow=block;html=1;strokeWidth=5;fillColor=#ffcd28;strokeColor=#d79b00;gradientColor=#ffa500;rounded=0;startFill=1;endFill=1;" edge="1" parent="1">
          <mxGeometry width="50" height="50" relative="1" as="geometry">
            <mxPoint x="590" y="325" as="sourcePoint" />
            <mxPoint x="421.94" y="325.3" as="targetPoint" />
          </mxGeometry>
        </mxCell>
        <mxCell id="HT3ukdf5lwB25Wx5WFX2-24" value="" style="endArrow=block;startArrow=block;html=1;strokeWidth=5;fillColor=#ffcd28;strokeColor=#d79b00;gradientColor=#ffa500;rounded=0;startFill=1;endFill=1;edgeStyle=orthogonalEdgeStyle;" edge="1" parent="1">
          <mxGeometry width="50" height="50" relative="1" as="geometry">
            <mxPoint x="180" y="231" as="sourcePoint" />
            <mxPoint x="350" y="280" as="targetPoint" />
          </mxGeometry>
        </mxCell>
        <mxCell id="HT3ukdf5lwB25Wx5WFX2-27" value="" style="endArrow=block;startArrow=block;html=1;strokeWidth=5;fillColor=#ffcd28;strokeColor=#d79b00;gradientColor=#ffa500;rounded=0;startFill=1;endFill=1;" edge="1" parent="1">
          <mxGeometry width="50" height="50" relative="1" as="geometry">
            <mxPoint x="181.76" y="200" as="sourcePoint" />
            <mxPoint x="320" y="200" as="targetPoint" />
          </mxGeometry>
        </mxCell>
        <mxCell id="HT3ukdf5lwB25Wx5WFX2-28" value="" style="endArrow=block;startArrow=block;html=1;strokeWidth=5;fillColor=#ffcd28;strokeColor=#d79b00;gradientColor=#ffa500;rounded=0;startFill=1;endFill=1;" edge="1" parent="1">
          <mxGeometry width="50" height="50" relative="1" as="geometry">
            <mxPoint x="181.76" y="330" as="sourcePoint" />
            <mxPoint x="320" y="330" as="targetPoint" />
          </mxGeometry>
        </mxCell>
        <mxCell id="HT3ukdf5lwB25Wx5WFX2-29" value="" style="endArrow=block;startArrow=block;html=1;strokeWidth=5;fillColor=#ffcd28;strokeColor=#d79b00;gradientColor=#ffa500;rounded=0;startFill=1;endFill=1;" edge="1" parent="1">
          <mxGeometry width="50" height="50" relative="1" as="geometry">
            <mxPoint x="365.23" y="434" as="sourcePoint" />
            <mxPoint x="365.23" y="374" as="targetPoint" />
          </mxGeometry>
        </mxCell>
      </root>
    </mxGraphModel>
  </diagram>
</mxfile>
